<?xml version="1.0" encoding="UTF-8"?>
<!-- Generator: Adobe Illustrator 19.2.1, SVG Export Plug-In . SVG Version: 6.00 Build 0)  -->
<svg version="1.1" id="Layer_1" xmlns="http://www.w3.org/2000/svg" xmlns:xlink="http://www.w3.org/1999/xlink" x="0px" y="0px" viewBox="0 0 34 34" style="enable-background:new 0 0 34 34;" xml:space="preserve">
<style type="text/css">
	.st0{fill:url(#SVGID_1_);}
</style>
<linearGradient id="SVGID_1_" gradientUnits="userSpaceOnUse" x1="16.5" y1="5" x2="16.5" y2="30" gradientTransform="matrix(1 0 0 -1 0 34)">
	<stop offset="0" style="stop-color:#B0E8CD"/>
	<stop offset="1" style="stop-color:#56CAD8"/>
</linearGradient>
<path class="st0" d="M32.7,17.9L31,19.6c-0.2,0.2-0.5,0.2-0.7,0l-2.9-2.9c-0.2-0.2-0.2-0.5,0-0.7l1.7-1.7c0.4-0.5,1.2-0.5,1.6,0l2,2  C33.1,16.8,33.1,17.5,32.7,17.9z M29.6,21l-5.4,5.4c-0.2,0.2-0.5,0.2-0.7,0l-2.9-2.9c-0.2-0.2-0.2-0.5,0-0.7l5.4-5.4  c0.2-0.2,0.5-0.2,0.7,0l2.9,2.9C29.8,20.5,29.8,20.8,29.6,21z M19.2,21.4c-0.3,0.3-0.5,0.7-0.6,1.1c-0.2,0.1-0.3,0.2-0.5,0.4  c-0.2,0.2-0.3,0.4-0.5,0.7l-0.1,0.2L16.1,28v0.1c-0.1,0.3-0.1,0.6,0,0.9H3c-1.7,0-3-1.3-3-3V7c0-1.7,1.3-3,3-3h19c1.7,0,3,1.3,3,3  v8.5c-0.2,0.1-0.4,0.2-0.6,0.4L19.2,21.4z M4,22h12v-2H4V22z M4,14h12v-2H4V14z M20,8H4v2h16V8z M20,16H4v2h16V16z M19.4,24.4  L19.4,24.4c0-0.1,0.1-0.2,0.1-0.2c0.1-0.1,0.4-0.1,0.5,0l2.7,2.7c0.2,0.2,0.2,0.4,0,0.5l-0.1,0.1h-0.1l-4,1.5h-0.1  c-0.1,0-0.3,0-0.4-0.1c0-0.1,0-0.2,0-0.4v-0.1L19.4,24.4z"/>
</svg>