<svg xmlns="http://www.w3.org/2000/svg" xmlns:xlink="http://www.w3.org/1999/xlink" id="Layer_1" x="0px" y="0px" viewBox="0 0 18 15" style="enable-background:new 0 0 18 15;" xml:space="preserve"> <style type="text/css"> .st0{fill-rule:evenodd;clip-rule:evenodd;fill:url(#SVGID_1_);} </style> <linearGradient id="SVGID_1_" gradientUnits="userSpaceOnUse" x1="9" y1="-2.692104e-10" x2="9" y2="15"> <stop offset="0" style="stop-color:#DD5598"></stop> <stop offset="1" style="stop-color:#F9BEAA"></stop> </linearGradient> <path class="st0" d="M15,15H3c-1.7,0-3-1.3-3-3V3c0-1.7,1.3-3,3-3h12c1.7,0,3,1.3,3,3v9C18,13.7,16.7,15,15,15z M10.9,7.3 C10.6,7.1,7.5,5.1,7.4,5C7.2,4.9,7,5.1,7,5.3c0,0.2,0,4.2,0,4.4C7,10,7.2,10.1,7.4,10c0.2-0.1,3.3-2.1,3.5-2.2 C11,7.6,11,7.4,10.9,7.3z"></path> </svg>