<?xml version="1.0" encoding="UTF-8"?>
<!-- Generator: Adobe Illustrator 19.2.1, SVG Export Plug-In . SVG Version: 6.00 Build 0)  -->
<svg version="1.1" id="Layer_1" xmlns="http://www.w3.org/2000/svg" xmlns:xlink="http://www.w3.org/1999/xlink" x="0px" y="0px" viewBox="0 0 34 34" style="enable-background:new 0 0 34 34;" xml:space="preserve">
<style type="text/css">
	.st0{fill-rule:evenodd;clip-rule:evenodd;fill:url(#SVGID_1_);}
</style>
<linearGradient id="SVGID_1_" gradientUnits="userSpaceOnUse" x1="17" y1="31" x2="17" y2="2.9999">
	<stop offset="0" style="stop-color:#C0CDDD"/>
	<stop offset="1" style="stop-color:#8899AE"/>
</linearGradient>
<path class="st0" d="M25,31H9c-1.7,0-3-1.3-3-3V6c0-1.7,1.3-3,3-3h16c1.7,0,3,1.3,3,3v22C28,29.7,26.7,31,25,31z M25,7  c0-0.6-0.4-1-1-1H10C9.4,6,9,6.4,9,7v17c0,0.6,0.4,1,1,1h14c0.6,0,1-0.4,1-1V7z M11,12h12v2H11V12z M11,9h9v2h-9V9z M18,17h-7v-2h7  V17z"/>
</svg>