<svg xmlns="http://www.w3.org/2000/svg" xmlns:xlink="http://www.w3.org/1999/xlink" id="Layer_1" x="0px" y="0px" viewBox="0 0 20 20" style="enable-background:new 0 0 20 20;" xml:space="preserve"> <style type="text/css"> .st0{fill:url(#SVGID_1_);} </style> <linearGradient id="SVGID_1_" gradientUnits="userSpaceOnUse" x1="10.0074" y1="9.094947e-13" x2="10.0074" y2="19.9858"> <stop offset="0" style="stop-color:#DD5598"></stop> <stop offset="1" style="stop-color:#F9BEAA"></stop> </linearGradient> <path class="st0" d="M17.1,2.9C13.2-1,6.9-1,3,2.9S-1,13.2,3,17C6.9,21,13.2,21,17.1,17C21,13.2,21,6.9,17.1,2.9z M12.3,10.6 c-0.1,0.4-0.3,0.8-0.6,1L7,15.5c-0.1,0.1-0.3,0-0.3-0.1l1.1-5.9c0.1-0.4,0.3-0.8,0.6-1l4.7-3.9c0.1-0.1,0.3,0,0.3,0.1L12.3,10.6z"></path> </svg>