<svg version="1.1" id="Layer_1" xmlns="http://www.w3.org/2000/svg" xmlns:xlink="http://www.w3.org/1999/xlink" x="0px" y="0px" viewBox="0 0 200 100" style="enable-background:new 0 0 200 100;" xml:space="preserve">
<style type="text/css">
	.st0{fill:none;stroke:#1976D2;stroke-width:0.5;stroke-linecap:round;stroke-linejoin:round;stroke-miterlimit:10;}
</style>
<g>
	<path class="st0" d="M51,83.6c0,0.9,0.6,1.2,1.5,1.1c5.3,0,10.5,0,15.8,0c0.9,0,1.5-0.3,1.5-1.1"/>
	<path class="st0" d="M69.6,60.1c0-0.9-0.5-1.6-1.4-1.5c-5.3,0-10.5,0-15.8,0c-0.9,0-1.4,0.7-1.4,1.5"/>
	<path class="st0" d="M148.2,59.6c0-0.8-0.5-1.1-1.3-1.1c-5.3,0-10.7,0-16,0c-0.8,0-1.3,0.6-1.3,1.4"/>
	<path class="st0" d="M129.6,83.9c0,0.8,0.5,0.9,1.3,0.9c5.3,0,10.7,0,16,0c0.8,0,1.3-0.2,1.3-1"/>
	<path class="st0" d="M36.3,70.6c0,4.2,0,8.4,0,12.6c0,1.5,0,1.5,1.6,1.5c0.7,0,1.4-0.1,2,0c1,0.1,1.4-0.2,1.3-1.3   c-0.1-1.7,0-3.5,0-5.2c0-0.7,0.2-1,1-1c1.1,0,2.1,0,3.2,0c0.7,0,0.9,0.3,0.9,1c0,1.1,0,2.3,0,3.4c0,1-0.4,2.3,0.2,2.9   c0.7,0.6,1.9,0.2,2.9,0.2c1.6,0,1.6,0,1.6-1.7c0.1-8.5-0.1-17.2,0.1-25.4c0-1-0.3-1.3-1.3-1.3c-4.1,0-8.1,0-12.2,0   c-1,0-1.4,0.3-1.4,1.4C36.3,62,36.3,66.3,36.3,70.6z"/>
	<path class="st0" d="M162.8,70.6c0-4.4,0-8.7,0-13.1c0-0.7-0.1-1.2-1-1.2c-4.2,0-8.4,0-12.6,0c-0.8,0-1,0.3-1,1.1   c0,1.5,0,2.9,0,4.4c0,7.2,0,14.4,0,21.6c0,0.9,0.2,1.3,1.2,1.2c0.9-0.1,1.8-0.1,2.7,0c0.8,0,1.1-0.2,1-1c0-1.8,0-3.7,0-5.5   c0-0.7,0.2-1,0.9-0.9c0.9,0,1.9,0.1,2.8,0c1-0.1,1.1,0.3,1.1,1.2c0,1.7,0,3.5,0,5.2c0,0.8,0.2,1.2,1.1,1.1c0.9-0.1,1.8-0.1,2.7,0   s1.2-0.2,1.1-1.1C162.7,79.3,162.8,75,162.8,70.6z"/>
	<path class="st0" d="M70.9,87.5c0-0.8-0.1-2.2,0.7-2.1c0.7,0,3.4-0.1,4.2-0.2"/>
	<path class="st0" d="M81.7,80.1c0.4,0,0.5-0.3,0.5-0.6c0.1-1.5,0.3-3.1,0.4-4.6c0.3-4.6,0.1-9.2,0.1-13.9c0-0.6-0.2-0.9-0.8-0.8   c-0.5,0-0.9-0.2-0.8-0.8c0.1-0.7-0.3-0.9-1-0.9c-3.1,0-6.2,0-9.4,0c-1,0-1.2,0.3-1.2,1.2c0,4.4,0,8.8,0,13.2s0.1,10,0.2,14.4"/>
	<path class="st0" d="M129.6,87.4c0-0.3,0-1.3,0-1.7c0-4.2,0-8.4,0-12.6l0,0c0-4.5,0-8.9,0-13.4c0-0.7-0.1-1.1-0.9-1.1   c-3.2,0-6.5,0-9.7,0c-0.6,0-0.8,0.1-0.8,0.8c0,0.4,0,0.9-0.5,0.8c-1.2-0.1-1.1,0.7-1.1,1.5c0,5.7-0.2,11.5,0.4,17.2   c0.1,0.6-0.2,1.3,0.8,1.4"/>
	<path class="st0" d="M122.7,85.2c0.4,0,3.8,0,4.3-0.1c1-0.1,1.9,0.9,1.7,2.3"/>
	<path class="st0" d="M93,27.8c-0.5,0-1.2,0.1-1.6,0.5c-2.1,2.1-3.8,4.3-3.6,7.5c0.1,0.7,0.3,1.1,1.1,1.1c2.4,0,4.8,0,7.2,0   c0.7,0,1-0.2,0.9-0.9c-0.1-0.6,0-1.3,0.4-1.8c0.6-0.9,1.7-1.4,2.9-1.1c1,0.3,1.8,1.3,1.7,2.6c0,0.9,0.2,1.2,1.2,1.2   c2.2-0.1,4.4-0.1,6.6,0c1.1,0,1.4-0.4,1.4-1.4c0.1-3.1-1.6-5.3-3.7-7.3c-0.4-0.3-1.2-0.4-1.7-0.4"/>
	<path class="st0" d="M88,45.5c-0.9,0-1.3,0.6-1.2,1.4c0.1,1.4,0,2.7,0,4.1c0,0.8,0.3,1.1,1.1,1.1c2.8,0,5.6,0,8.5,0   c0.6,0,1-0.2,1.4-0.6c1.2-1.2,2.7-1.2,3.8,0.1c0.4,0.4,0.7,0.6,1.2,0.6c2.9,0,5.7,0,8.6,0c0.7,0,1-0.3,1-1c0-1.4,0-2.9,0-4.3   c0-0.9-0.3-1.4-1.2-1.4"/>
	<path class="st0" d="M117.1,58.2c0.9,0,2.2,0.5,2.6-0.2c0.4-0.8-0.7-1.6-1.1-2.4c-0.3-0.7-0.7-0.9-1.5-0.9c-11.1,0-22.3,0.1-33.4,0   c-2.1,0-3.2,0.6-3.9,2.4c-0.5,1.2-0.5,1.2,0.8,1.2C86.9,58.3,111.3,58.3,117.1,58.2z"/>
	<path class="st0" d="M70.5,87.5c9.2,0,19.8-0.1,29-0.1s22.4,0,31.6,0"/>
	<path class="st0" d="M131.1,87.4c6.1,0,12.2,0,18.3,0c4.9,0,14.6,0,18.5,0c0.4,0,0.5-0.5,0.1-0.7l-5.3-2.3"/>
	<path class="st0" d="M32,87.4c5.9,0,33.1,0,39,0"/>
	<path class="st0" d="M99.6,42.1c2.9,0,5.8,0,8.7,0c2.3,0,2,0.4,2.1-2.1c0-1.1-0.3-1.5-1.5-1.5c-5.9,0.1-11.8,0-17.7,0   c-2.7,0-2.4-0.4-2.4,2.5c0,0.9,0.3,1.1,1.1,1.1C93.2,42.1,96.4,42.1,99.6,42.1z"/>
	<path class="st0" d="M81.7,82c-0.3,0-2.4,0-2.7,0c-0.5,0-0.7,0.3-0.7,0.8s0.1,0.9,0.6,0.9c0.3,0,0.4,0,0.7,0c13.1,0,26.3,0,39.4,0   c0.3,0,0.7,0,1,0c0.5,0,0.8-0.6,0.8-0.9c0-0.4-0.1-0.7-0.6-0.7c-0.3,0-2.8,0-3.1,0"/>
	<path class="st0" d="M79.6,83.7c-0.8,0-2.4,0.2-3.3,0.2c-0.3,0-0.7,0-1,0c-0.4,0-0.4,0.3-0.4,0.6c0,0.3,0.1,0.6,0.5,0.6   c0.3,0,0.7,0,1,0c15.5,0,31,0,46.5,0c0.3,0,0.7,0,1,0c0.5,0,0.5-0.3,0.5-0.7c0-0.4-0.1-0.6-0.5-0.6c-0.3,0-3.5-0.2-3.8-0.2"/>
	<path class="st0" d="M73.3,48.9c-1.9,0-2.3,0.2-2.9,2.1c-0.2,0.6-0.3,1.2-0.4,1.9s0.2,1,0.9,1c1.8,0,3.5,0,5.3,0c1.3,0,2.6,0,3.8,0   c2.6,0,3-0.6,1.9-3.1c-0.1-0.2-0.2-0.3-0.2-0.5c-0.4-0.9-1-1.4-2.2-1.4"/>
	<path class="st0" d="M109,68c0-2.2-0.1-4.4,0-6.7c0-1.4-0.8-1.1-1.6-1.2c-0.9,0-1.5,0-1.5,1.2c0.1,3.8,0.1,7.6,0,11.4   c0,2.2,0.8,4.4,0.5,6.6c-0.1,0.8,0.6,0.7,1.1,0.7c0.6,0,1-0.1,1-0.9c-0.1-3.1,0.8-6.2,0.5-9.4C109,69.3,109,68.7,109,68z"/>
	<path class="st0" d="M93.3,68c0-2.2-0.1-4.4,0-6.5c0.1-1.3-0.7-1.3-1.6-1.3c-1,0-1.5,0.1-1.5,1.3c0.1,3.7,0.1,7.4,0,11.2   c-0.1,2.3,0.8,4.5,0.5,6.8c-0.1,0.7,0.5,0.7,1,0.7s1.2,0.1,1.1-0.7c-0.2-2.1,0.5-4.1,0.5-6.2C93.2,71.5,93.3,69.8,93.3,68z"/>
	<path class="st0" d="M114.3,67.9c0-2.2,0-4.4,0-6.5c0-1-0.3-1.3-1.2-1.2c-0.3,0-0.6,0-0.9,0c-0.7,0-0.9,0.3-0.9,1   c0,6.1-0.1,12.1,0.5,18.2c0,0.1,0,0.2,0,0.2c0.1,0.8,0.7,0.6,1.2,0.6s1-0.1,0.9-0.7c-0.3-2.2,0.6-4.3,0.5-6.5   C114.2,71.2,114.3,69.6,114.3,67.9z"/>
	<path class="st0" d="M98.5,68.1c0-2,0-4.1,0-6.1c0-1.8,0-1.8-1.9-1.8c-0.8,0-1.2,0.2-1.2,1.1c0,6-0.1,12,0.5,18c0,0.1,0,0.2,0,0.3   c0.2,0.7,0.8,0.5,1.3,0.5s0.8-0.2,0.8-0.7c-0.2-2.7,0.7-5.3,0.5-8C98.4,70.3,98.5,69.2,98.5,68.1z"/>
	<path class="st0" d="M88,68c0-2.1,0-4.3,0-6.4c0-1.3-0.1-1.3-1.7-1.4c-1,0-1.4,0.3-1.3,1.3c0.1,5.9-0.1,11.9,0.5,17.8   c0.1,0.7,0.4,0.8,1,0.9c0.6,0,1.2-0.1,1.1-0.9c-0.2-2.7,0.7-5.3,0.5-8C87.9,70.2,88,69.1,88,68z"/>
	<path class="st0" d="M103.7,68.2c0-2.2-0.1-4.4,0-6.5c0-1.2-0.3-1.5-1.5-1.5c-1,0-1.5,0.2-1.5,1.4c0.1,5.9-0.1,11.8,0.5,17.7   c0.1,0.7,0.2,0.9,0.9,0.9c0.7,0,1.2-0.1,1.2-0.9c-0.1-2.7,0.6-5.4,0.4-8.2C103.6,70.1,103.7,69.1,103.7,68.2z"/>
	<path class="st0" d="M81.9,60.2c2.4-0.2,5.2,0,7.5,0c2.6,0.1,4.1,0,7.9,0c1,0,3.9-0.1,5,0c2.7,0.1,7.2,0,9.9,0c2.6,0,2.9,0,5.5,0"/>
	<path class="st0" d="M99.6,82.2c5.7,0,11.6-0.1,17.4-0.1c0.5,0,1-0.1,0.9-1.1c-0.1-0.9-0.6-0.6-1.1-0.6c-0.9,0-1.8,0-2.7,0   c-2.4-0.1-4.9-0.1-7.3,0c-2.7,0-5.5,0-8.2,0c-2.4,0-4.8,0-7.2,0c-3.1-0.1-6.1,0-9.2,0c-0.6,0-0.8,0.2-0.8,0.8   c0,0.9,0.3,0.9,0.8,0.9C87.8,82.1,93.9,82.2,99.6,82.2z"/>
	<path class="st0" d="M71.2,44.9c-0.1,0.5,0.1,1.1,0.3,1.7c0.3,1,1.1,0.9,1.9,0.9c0.9,0,0.7-0.7,0.7-1.3c0.1-1.3,0.8-2.1,1.9-2.1   s1.8,0.9,1.9,2.2c0,0.5-0.1,1.1,0.6,1.1s1.5,0.3,1.9-0.5c0.7-1.2,0.8-2.5,0.1-3.7c-0.7-1.1-1.4-2.2-3-2c-0.9,0.1-1.8,0-2.7,0   C72.9,41.2,71.3,42.8,71.2,44.9z"/>
	<path class="st0" d="M86.8,43.7c-0.5,0-1.3,0-1.3,1.1c0,0.8,0.6,0.7,1.1,0.7c4.3,0,8.6,0,12.8,0c4.4,0,8.7,0,13.1,0   c0.5,0,1,0.1,1.1-0.6c0-0.8-0.1-1.1-1.1-1.1"/>
	<path class="st0" d="M89.6,42.1h-3.8c-0.5,0-1.1-0.4-1.1,1c0,0.8,0.5,0.6,1,0.6c5.2,0,10.4,0,15.5,0c4.1,0,8.2,0,12.3,0   c0.3,0,0.7,0.2,0.9-0.3c0.1-0.3,0-0.9-0.2-1.2c-0.3-0.3-0.6-0.1-1-0.1H110"/>
	<path class="st0" d="M45.2,81.2c0-0.6,0-1.2,0-1.8c0-0.5-0.2-0.6-0.6-0.6c-0.6,0-1.2,0-1.8,0c-0.4,0-0.6,0.1-0.6,0.6   c0,0.6,0,1.3,0,1.9c0,2.3,0,2.3,2.3,2.2c0,0,0,0,0.1,0c0.4,0,0.5-0.1,0.5-0.5C45.2,82.4,45.2,81.8,45.2,81.2z"/>
	<path class="st0" d="M157.2,81.1c0-0.7,0-1.4,0-2c0-0.4-0.1-0.7-0.6-0.7c-0.7,0-1.4,0-2.1,0c-0.4,0-0.6,0.2-0.6,0.6   c0,1.4,0,2.8,0,4.3c0,0.5,0.2,0.6,0.6,0.6c0.7,0,1.3,0,2,0c0.6,0,0.8-0.2,0.8-0.8C157.2,82.4,157.2,81.8,157.2,81.1z"/>
	<path class="st0" d="M109.1,52.8c-2,0-4.1,0-6.1,0c-0.8,0-1.1,0.1-1.1,0.6s0.3,0.6,1.1,0.6c4.1,0,8.2,0,12.3,0   c0.8,0,1.1-0.1,1.1-0.6s-0.3-0.6-1.1-0.6C113.2,52.8,111.1,52.8,109.1,52.8z"/>
	<path class="st0" d="M90.4,52.8c-2,0-4.1,0-6.1,0c-0.8,0-1.1,0.1-1.1,0.6s0.3,0.6,1.1,0.6c4.1,0,8.2,0,12.3,0   c0.8,0,1.1-0.1,1.1-0.6s-0.3-0.6-1.1-0.6C94.5,52.8,92.4,52.8,90.4,52.8z"/>
	<path class="st0" d="M97.8,20.3c-1.4,0.1-2.1,1-1.9,3.3c0.1,0.6,0.3,0.9,0.9,0.9c0.9,0,1.9,0,2.8,0c0.3,0,0.7,0,1,0   c2.9,0,3.1,0.3,2.7-2.6c-0.1-1.1-1.3-1.7-1.9-1.6"/>
	<path class="st0" d="M127.7,58.6c1,0,1.7-0.7,1.7-1.5s-0.1-1.6-1.2-1.6"/>
	<path class="st0" d="M120.7,55.5c-0.3,0-1,0.2-1,0.7c0,0.8,1.2,2.4,2,2.4"/>
	<path class="st0" d="M78.3,58.6c0.5-0.3,0.8-1.3,1.2-2c0.3-0.7,0-1.1-0.9-1.1"/>
	<path class="st0" d="M71.5,55.5c-1.1,0-1.1,0.9-1.1,1.6c0,0.8,0.1,1.6,1.1,1.5"/>
	<path class="st0" d="M88.7,36.9c-0.2,0-1.5,0-1.7,0c0.3,0.8,1.6,1.6,2.4,1.6"/>
	<path class="st0" d="M109.1,38.5c0.7,0,2.7-0.8,2.9-1.6c-0.2,0-1.7,0-1.9,0"/>
	<path class="st0" d="M94.3,26.2c-0.4,0-1,0.2-1.3,0.5c-0.2,0.2-0.6,0.5-0.5,0.9s0.5,0.2,0.8,0.2c2.1,0,4.2,0,6.3,0c2,0,4.1,0,6.1,0   c0.3,0,0.9,0.2,1-0.2c0.1-0.5-0.4-1-0.8-1.1c-0.2-0.1-1-0.2-1.3-0.2"/>
	<path class="st0" d="M155.5,55.9c2.4,0,4.9,0,7.3,0c0.3,0,0.7,0.1,0.7-0.2s-0.2-0.5-0.6-0.6c-0.2,0-0.5,0-0.8,0   c-4.4,0-8.8,0-13.2,0c-0.2,0-0.5,0-0.7,0c-0.5,0-0.8,0.3-0.8,0.6c0,0.4,0.5,0.2,0.8,0.2C150.7,55.9,153.1,55.9,155.5,55.9z"/>
	<path class="st0" d="M43.6,55.9c2.5,0,4.9,0,7.4,0c0.2,0,0.6,0.1,0.7-0.1c0.1-0.3-0.2-0.5-0.5-0.6C51,55,50.6,55,50.3,55   c-4.4,0-8.8,0-13.3,0c-0.2,0-0.4,0-0.6,0c-0.5,0-0.8,0.3-0.8,0.6c0,0.4,0.5,0.2,0.8,0.2C38.9,55.9,41.2,55.9,43.6,55.9z"/>
	<path class="st0" d="M74.8,54.5c-1.9,0-3.7,0-5.6,0c-0.6,0-1.1,0.3-1,0.7c0,0.4,0.6,0.3,1,0.3c3.4,0,6.7,0,10.1,0   c0.3,0,0.5,0,0.8,0c0.5-0.1,0.8-0.4,0.8-0.7c0-0.4-0.5-0.2-0.8-0.2C78.3,54.5,76.6,54.5,74.8,54.5z"/>
	<path class="st0" d="M124.6,54.5c-1.8,0-3.7,0-5.5,0c-0.2,0-0.6-0.1-0.7,0.2c-0.1,0.2,0.1,0.4,0.3,0.5c0.2,0.2,0.5,0.2,0.8,0.2   c3.6,0,7.3,0,10.9,0c0.2,0,0.6,0,0.7-0.2c0.1-0.2-0.1-0.4-0.3-0.5c-0.3-0.3-0.7-0.2-1-0.2C128,54.5,126.3,54.5,124.6,54.5z"/>
	<path class="st0" d="M99.6,37.8L99.6,37.8c0.4,0,0.9,0,1.3,0c0.3,0,0.4-0.1,0.5-0.4c0.3-1.1-0.1-3.4-1.2-3.6   c-0.7-0.1-1.6,0.2-2,0.7c-0.5,0.6-0.5,2.4-0.3,3s0.9,0.2,1.4,0.3C99.4,37.9,99.5,37.8,99.6,37.8z"/>
	<path class="st0" d="M99.6,53.8L99.6,53.8c0.4,0,0.7,0,1.1,0c0.2,0,0.4-0.1,0.4-0.3c0.2-0.8-0.3-1.8-1.1-2.1   c-0.6-0.2-1.1,0-1.5,0.4c-0.5,0.5-0.6,1.1-0.4,1.7c0.2,0.6,0.8,0.2,1.2,0.3C99.5,53.9,99.5,53.8,99.6,53.8z"/>
	<path class="st0" d="M97,24.5c-1.2-0.1-2,0.8-2.9,1.7c3.8,0,7.4,0,11.1,0c-0.9-1-1.6-1.7-2.8-1.7"/>
	<path class="st0" d="M76.1,48.9c1.8,0,3.5,0,5.3,0c0.3,0,0.8,0.2,0.8-0.3c0-0.4-0.3-0.8-0.8-0.8c-0.4,0-0.7,0-1.1,0c-3,0-6,0-9,0   c-0.6,0-1,0.1-1.1,0.7c0,0.7,0.6,0.4,0.9,0.4C72.8,48.9,74.4,48.9,76.1,48.9z"/>
	<path class="st0" d="M99.6,19.2c0.7,0.1,1.2-0.4,1.2-1.1c0-0.5,0.1-1,0.2-1.6s0.2-1-0.4-1.3c-0.6-0.4-1.2-0.4-1.9-0.1   c-0.6,0.3-0.7,0.8-0.6,1.4c0.1,0.5,0.2,1,0.2,1.4C98.4,18.7,98.8,19.3,99.6,19.2z"/>
	<path class="st0" d="M76.1,47.1c1.4,0,1.5,0,1.5-0.8c0-1-0.5-1.6-1.3-1.6s-1.4,0.6-1.4,1.6C74.7,47.4,75.6,47.1,76.1,47.1z"/>
	<path class="st0" d="M99.7,20.3L99.7,20.3c0.6,0,1.1,0,1.7,0c0.3,0,0.7-0.1,0.7-0.6c0-0.4-0.3-0.6-0.7-0.6c-1.2,0-2.4,0-3.6,0   c-0.3,0-0.6,0.1-0.6,0.5s0.2,0.6,0.6,0.6C98.4,20.3,99.1,20.3,99.7,20.3z"/>
	<path class="st0" d="M74.1,40.8c1.4,0,2.8,0,4.2,0C76.6,38.9,75.4,38.9,74.1,40.8z"/>
	<path class="st0" d="M99.7,14.6c0.5-0.1,1-0.4,1-1s-0.4-1.1-1-1.1s-1,0.5-1,1.1C98.6,14.2,99.1,14.5,99.7,14.6z"/>
	<path class="st0" d="M102.3,13.9c0-0.4-0.3-0.8-0.9-0.8c-0.8,0.1-0.6,0.9-0.8,1.4c-0.2,0.5,0.4,0.6,0.8,0.6   C102,15.1,102.3,14.8,102.3,13.9z"/>
	<path class="st0" d="M98.7,14.4c-0.5-0.3-0.1-1.2-0.9-1.3c-0.6-0.1-1,0.4-1,1s0.4,1,1,1C98.2,15.1,98.6,15,98.7,14.4z"/>
	<path class="st0" d="M87.9,34.1c0-0.2-1.3-1.4-1.3-1.6c-0.5,1.2,0.7,3.3,1.6,4.4"/>
	<path class="st0" d="M111.1,36.9c0.9-1,2.1-3.1,1.6-4.4c0,0.2-1.3,1.4-1.3,1.6"/>
	<path class="st0" d="M52.6,79.4c0-1.8,0-1.8,1.9-1.8c1.7,0,1.7,0,1.7,1.9s0,1.9-2,1.9C52.6,81.3,52.6,81.3,52.6,79.4z"/>
	<path class="st0" d="M68.1,79.4c0,1.9,0,1.9-1.8,1.9s-1.8,0-1.8-2c0-1.8,0-1.8,2.1-1.8C68.1,77.5,68.1,77.5,68.1,79.4z"/>
	<path class="st0" d="M66,64.8c1.8,0,1.8,0,1.8-1.5c0-1.7,0-1.7-1.5-1.7c-1.6,0-1.6,0-1.7,1.6C64.6,64.5,64.9,65.1,66,64.8z"/>
	<path class="st0" d="M52.9,63.4c-0.2,1,0.2,1.5,1.5,1.4c1.7-0.1,1.6,0,1.7-1.6c0.1-1.2-0.3-1.7-1.6-1.6   C52.9,61.7,52.9,61.6,52.9,63.4z"/>
	<path class="st0" d="M58.6,79.3c0-2.1-0.1-1.8,2.1-1.8c1.5,0,1.5,0,1.5,2.1c0,1.7,0,1.7-2,1.7C58.6,81.3,58.6,81.3,58.6,79.3z"/>
	<path class="st0" d="M60.1,64.8c1.9,0,1.8,0,1.9-1.6c0.1-1.3-0.4-1.7-1.6-1.6c-1.6,0.1-1.6,0.1-1.7,1.7   C58.6,64.6,59.1,65.1,60.1,64.8z"/>
	<path class="st0" d="M66.2,70.3c1.6,0,1.6,0,1.6-1.1c0-1.3-0.6-2.1-1.6-2.1c-0.9,0-1.5,0.9-1.6,2C64.5,70.5,65.4,70.3,66.2,70.3z"/>
	<path class="st0" d="M54.5,70.3c0.7-0.1,1.7,0.3,1.6-1c-0.1-1.2-0.7-2.1-1.6-2.1c-1,0-1.5,0.8-1.6,2.1   C52.8,70.6,53.8,70.2,54.5,70.3z"/>
	<path class="st0" d="M60.4,70.3c0.7-0.1,1.7,0.3,1.6-1c0-1.2-0.6-2.1-1.6-2.1c-0.9,0-1.6,0.9-1.7,2.1   C58.6,70.6,59.6,70.2,60.4,70.3z"/>
	<path class="st0" d="M52.9,73.9c0,1.9,0,1.9,1.6,1.9s1.6,0,1.6-1.6s0-1.6-1.6-1.7C53.2,72.4,52.6,72.8,52.9,73.9z"/>
	<path class="st0" d="M66.4,72.3c1.7,0,1.7,0,1.7,1.9c0,1.7,0,1.7-1.9,1.7c-1.8,0-1.8,0-1.8-1.9C64.5,72.3,64.5,72.3,66.4,72.3z"/>
	<path class="st0" d="M60.3,75.7c1.6,0,1.7,0,1.7-1.6s-0.1-1.6-1.5-1.6c-1.7,0-1.7,0.1-1.7,1.6C58.7,75.7,58.7,75.7,60.3,75.7z"/>
	<path class="st0" d="M144.1,65.5c1.1,0.2,1.6-0.1,1.5-1.3c-0.1-1.5,0-1.5-1.4-1.5c-1.5,0-1.4,0-1.5,1.5   C142.6,65.3,143,65.8,144.1,65.5z"/>
	<path class="st0" d="M145.9,79.6c0,2,0.1,1.7-1.9,1.7c-1.5,0-1.5,0-1.5-1.9c0-1.5,0-1.5,2-1.5C145.9,77.8,145.9,77.8,145.9,79.6z"/>
	<path class="st0" d="M140.2,79.4c0.2-1-0.2-1.4-1.4-1.3c-1.5,0.1-1.4,0-1.5,1.5c-0.1,1.1,0.3,1.5,1.4,1.4   C140.2,80.9,140.2,81,140.2,79.4z"/>
	<path class="st0" d="M140.5,64.1c0,1.7,0,1.7-1.7,1.7c-1.6,0-1.6,0-1.6-1.8c0-1.7,0-1.7,1.8-1.7C140.5,62.4,140.5,62.4,140.5,64.1z   "/>
	<path class="st0" d="M144.1,71.6c-0.7-0.1-1.8,0.5-1.7-1.1c0.1-1.4,0.6-2.2,1.7-2.2c1.1,0,1.7,0.8,1.7,2.2   C145.9,71.6,145.9,71.6,144.1,71.6z"/>
	<path class="st0" d="M144.2,73.1c1.7,0,1.7,0,1.7,1.5c0,1.7,0,1.7-1.8,1.7c-1.7,0-1.7,0-1.7-1.7C142.5,73.1,142.5,73.1,144.2,73.1z   "/>
	<path class="st0" d="M135.1,79.6c0,1.7,0,1.7-1.6,1.7c-1.8,0-1.7,0.2-1.7-1.8c0-1.6,0-1.6,1.7-1.6   C135.1,77.8,135.1,77.8,135.1,79.6z"/>
	<path class="st0" d="M135.1,64.2c0,1.9,0.1,1.6-1.7,1.7c-1.5,0-1.5,0-1.5-1.8c0-1.6,0-1.6,1.7-1.6   C135.1,62.4,135.1,62.4,135.1,64.2z"/>
	<path class="st0" d="M139,71.6c-1,0-1.9,0.3-1.8-1.2c0.1-1.4,0.6-2.1,1.7-2.1c1.1,0,1.6,0.7,1.7,2.1C140.6,72,139.6,71.5,139,71.6z   "/>
	<path class="st0" d="M133.5,71.6c-0.9,0-1.8,0.3-1.6-1.2c0.1-1.4,0.5-2.1,1.7-2.1c1.1,0,1.5,0.7,1.6,2.1   C135.2,71.9,134.3,71.6,133.5,71.6z"/>
	<path class="st0" d="M138.8,73.1c1.6,0,1.6,0,1.6,1.5c0,1.8,0,1.8-1.6,1.8c-1.7,0-1.7,0-1.7-1.6C137.1,73.1,137.1,73.1,138.8,73.1z   "/>
	<path class="st0" d="M135.1,74.8c0,1.6,0,1.6-1.7,1.6c-1.6,0-1.6,0-1.6-1.7c0-1.6,0-1.6,1.8-1.6C135.1,73.1,135.1,73.1,135.1,74.8z   "/>
	<path class="st0" d="M41.8,70.8c0,0.1,0,0.2,0,0.4c-0.1,0.9,0,1.5,1.2,1.5c1.1,0,1.3-0.6,1.2-1.5c0-0.4,0-0.8,0-1.2   c0-0.6-0.3-0.8-0.9-0.8C41.9,69,41.8,69.2,41.8,70.8z M46.7,71c0-0.2,0-0.3,0-0.5c0.1-0.9-0.1-1.4-1.2-1.3c-1,0-1.3,0.5-1.2,1.4   c0,0.3,0,0.6,0,0.9c-0.1,1,0.4,1.3,1.4,1.3C47.1,72.7,46.7,71.7,46.7,71z M41.8,67.4C41.7,68.3,41.7,69,43,69c1,0,1.2-0.5,1.2-1.4   s0-1.6-1.3-1.6C41.9,66,41.7,66.5,41.8,67.4z M46.7,67.5c0.1-0.9,0.1-1.6-1.1-1.6c-1.1,0-1.3,0.5-1.3,1.5c0,0.9,0,1.5,1.2,1.5   C46.6,69,46.9,68.5,46.7,67.5z M44.2,62.5c0.9,0,1.7,0,2.6,0c0.3,0,0.7,0.1,0.7-0.3c0.1-0.4-0.2-0.8-0.6-0.8c-1.8,0-3.6,0-5.3,0   c-0.4,0-0.7,0.4-0.6,0.8c0.1,0.4,0.5,0.2,0.7,0.2C42.6,62.5,43.4,62.5,44.2,62.5z M46.7,64.4c0.1-0.8,0.2-1.5-1.1-1.5   c-1.1,0-1.4,0.4-1.3,1.4c0,0.9-0.1,1.6,1.2,1.6C46.7,65.8,46.8,65.3,46.7,64.4z M41.8,64.3c-0.1,0.8-0.2,1.6,1.1,1.6   c1.1,0,1.3-0.6,1.3-1.5c0-0.8,0.1-1.5-1.2-1.5C41.9,62.9,41.7,63.3,41.8,64.3z M44.3,59.9c0.6,0.1,1.2-0.1,1.1-0.8   c-0.1-0.7-0.4-1.6-1.2-1.7c-0.7,0-1,0.9-1.1,1.6C43.1,59.7,43.7,59.9,44.3,59.9z M44.2,61L44.2,61c0.6-0.1,1.2,0,1.9-0.1   c0.2,0,0.5-0.1,0.6-0.4c0-0.3-0.3-0.4-0.5-0.4c-1.2,0-2.5,0-3.7,0c-0.2,0-0.4,0-0.5,0.3s0.2,0.4,0.4,0.5C43,61,43.6,61,44.2,61z"/>
	<path class="st0" d="M155.6,72.5c0,0.1,0,0.2,0,0.3c-0.1,0.8,0,1.4,1.1,1.4s1.1-0.6,1.1-1.4c0-0.3,0-0.5,0-0.8c0-0.8-0.3-1-1-1.1   C155.4,70.9,155.6,71.7,155.6,72.5z M155.3,72.7c0-0.2,0-0.3,0-0.4c0-0.7,0.1-1.3-1-1.3s-1.1,0.6-1,1.4c0,0.3,0,0.5,0,0.8   c-0.1,0.9,0.3,1.1,1.1,1.1C155.7,74.2,155.2,73.3,155.3,72.7z M155.6,69.5c-0.1,0.8,0,1.3,1.1,1.3s1.1-0.6,1.1-1.4   s-0.1-1.3-1.1-1.3C155.5,68.1,155.5,68.7,155.6,69.5z M155.5,65L155.5,65c0.7,0,1.5,0,2.2,0c0.3,0,0.7,0.1,0.7-0.3   s-0.2-0.6-0.6-0.7c-0.5,0-1,0-1.5,0c-1,0-2.1,0-3.1,0c-0.4,0-0.7,0.3-0.7,0.7s0.5,0.3,0.7,0.3C154,65,154.8,65,155.5,65z    M157.7,66.6c0.1-0.8,0-1.3-1.1-1.3s-1.1,0.6-1.1,1.3c0,0.8,0,1.4,1.1,1.4S157.8,67.5,157.7,66.6z M155.3,69.5   c0.1-0.7,0.1-1.3-1-1.3s-1,0.6-1,1.3c0,0.7-0.1,1.4,1,1.4C155.4,70.8,155.4,70.2,155.3,69.5z M155.3,66.9c0-0.9,0.2-1.6-1-1.6   c-1,0-1.1,0.5-1,1.2c0,0.7-0.2,1.5,1,1.5C155.4,68,155.4,67.4,155.3,66.9z M155.5,62.6c0.6,0,1-0.1,1-0.8s-0.4-1.4-1-1.4   s-0.9,0.8-1,1.4C154.4,62.5,154.9,62.6,155.5,62.6z M155.5,62.9L155.5,62.9c-0.6,0-1.1,0-1.7,0c-0.2,0-0.4,0-0.4,0.3   s0.2,0.4,0.4,0.4c1.1,0,2.2,0,3.4,0c0.2,0,0.5-0.1,0.4-0.4c0-0.3-0.3-0.3-0.5-0.3C156.6,62.9,156,62.9,155.5,62.9z"/>
	<path class="st0" d="M76.4,78.2c-0.7,0-1-0.5-1-1.2s0.5-1.1,1.1-1.1c0.7,0,1.1,0.4,1.1,1.1C77.6,77.9,77.2,78.2,76.4,78.2z"/>
	<path class="st0" d="M123.1,67.8L123.1,67.8c0.5,0,1.1,0,1.6,0c1-0.1,0.6-0.8,0.7-1.4c0.1-0.5,0.1-1.1-0.7-1.1c-1,0-2,0-3,0   c-0.3,0-0.6,0-0.7,0.4c-0.4,1.4,0,2,1.5,2C122.7,67.8,122.9,67.8,123.1,67.8z"/>
	<path class="st0" d="M123.2,70.3c0.3,0,0.7,0,1,0c1,0.1,1.3-0.3,1.3-1.3c0-0.9-0.2-1.3-1.2-1.2c-0.8,0.1-1.6,0-2.5,0   c-0.6,0-0.8,0.2-0.8,0.9c0,1.6-0.1,1.6,1.6,1.6C122.7,70.3,123,70.3,123.2,70.3z"/>
	<path class="st0" d="M121.5,64.3h-0.9c-0.3,0-0.6,0.4-0.6,0.7c0,0.4,0.5,0.3,0.7,0.3c0.8,0,1.5,0,2.3,0s1.5,0,2.3,0   c0.3,0,0.7,0.2,0.7-0.3c0-0.3-0.2-0.7-0.6-0.7H121.5z"/>
	<path class="st0" d="M123.1,63.5c0.5,0.1,1.1,0,1-0.7c-0.1-0.6-0.4-1.4-1-1.4s-0.9,0.8-1,1.4S122.4,63.5,123.1,63.5z"/>
	<path class="st0" d="M123,64.3c0.6,0,1.1,0,1.7,0c0.3,0,0.5-0.1,0.5-0.5c0-0.3-0.3-0.3-0.5-0.3c-1.1,0-2.2,0-3.3,0   c-0.2,0-0.5,0-0.5,0.3c0,0.3,0.2,0.4,0.5,0.5C122,64.4,122.5,64.3,123,64.3z"/>
	<path class="st0" d="M76.1,67.8L76.1,67.8c0.5,0,1.1,0,1.6,0c1-0.1,0.6-0.8,0.7-1.4c0.1-0.5,0.1-1.1-0.7-1.1c-1,0-2,0-3,0   c-0.3,0-0.6,0-0.7,0.4c-0.4,1.4,0,2,1.5,2C75.7,67.8,75.9,67.8,76.1,67.8z"/>
	<path class="st0" d="M76.2,70.3c0.3,0,0.7,0,1,0c1,0.1,1.3-0.3,1.3-1.3c0-0.9-0.2-1.3-1.2-1.2c-0.8,0.1-1.6,0-2.5,0   c-0.6,0-0.8,0.2-0.8,0.9c0,1.6-0.1,1.6,1.6,1.6C75.7,70.3,76,70.3,76.2,70.3z"/>
	<path class="st0" d="M74.5,64.3h-0.9c-0.3,0-0.6,0.4-0.6,0.7c0,0.4,0.5,0.3,0.7,0.3c0.8,0,1.5,0,2.3,0s1.5,0,2.3,0   c0.3,0,0.7,0.2,0.7-0.3c0-0.3-0.2-0.7-0.6-0.7H74.5z"/>
	<path class="st0" d="M76.1,63.5c0.5,0.1,1.1,0,1-0.7c-0.1-0.6-0.4-1.4-1-1.4s-0.9,0.8-1,1.4S75.4,63.5,76.1,63.5z"/>
	<path class="st0" d="M76,64.3c0.6,0,1.1,0,1.7,0c0.3,0,0.5-0.1,0.5-0.5c0-0.3-0.3-0.3-0.5-0.3c-1.1,0-2.2,0-3.3,0   c-0.2,0-0.5,0-0.5,0.3c0,0.3,0.2,0.4,0.5,0.5C75,64.4,75.5,64.3,76,64.3z"/>
	<path class="st0" d="M122.9,78.2c-0.6,0-1-0.4-1-1.2c0-0.7,0.5-1.1,1.2-1.1s1.1,0.5,1.1,1.2C124.2,77.9,123.7,78.3,122.9,78.2z"/>
	<path class="st0" d="M96.5,50c0-0.7,0-1.5,0-2.2"/>
	<path class="st0" d="M90.8,47.8c0,0.7,0,1.5,0,2.2"/>
	<path class="st0" d="M108.3,50c0-0.7,0-1.5,0-2.2"/>
	<path class="st0" d="M102.4,50c0-0.7,0-1.5,0-2.2"/>
	<path class="st0" d="M71.2,45.3c0-0.2-0.8-1-0.8-1.2c-0.8,1.6,1.2,2.4,1.7,3.2"/>
	<path class="st0" d="M71.2,45.3c0-0.2-0.8-1-0.8-1.2c-0.8,1.6,1.2,2.4,1.7,3.2"/>
	<path class="st0" d="M81.2,45.3c0-0.2,0.6-1,0.6-1.2c0.6,1.6-0.9,2.4-1.3,3.2"/>
	<path class="st0" d="M40.8,49.4c-1.9,0-2.3,0.2-2.9,2.1c-0.2,0.6-0.3,1.2-0.4,1.9c-0.1,0.7,0.2,1,0.9,1c1.8,0,3.5,0,5.3,0   c1.3,0,2.6,0,3.8,0c2.6,0,3-0.6,1.9-3.1c-0.1-0.2-0.2-0.3-0.2-0.5c-0.4-0.9-1-1.4-2.2-1.4"/>
	<path class="st0" d="M38.8,45.5c-0.1,0.5,0.1,1.1,0.3,1.7c0.3,1,1.1,0.9,1.9,0.9c0.9,0,0.7-0.7,0.7-1.3c0.1-1.3,0.8-2.1,1.9-2.1   c1.1,0,1.8,0.9,1.9,2.2c0,0.5-0.1,1.1,0.6,1.1c0.7,0,1.5,0.3,1.9-0.5c0.7-1.2,0.8-2.5,0.1-3.7c-0.7-1.1-1.4-2.2-3-2   c-0.9,0.1-1.8,0-2.7,0C40.4,41.8,38.8,43.4,38.8,45.5z"/>
	<path class="st0" d="M43.6,49.4c1.8,0,3.5,0,5.3,0c0.3,0,0.8,0.2,0.8-0.3c0-0.4-0.3-0.8-0.8-0.8c-0.4,0-0.7,0-1.1,0c-3,0-6,0-9,0   c-0.6,0-1,0.1-1.1,0.7c0,0.7,0.6,0.4,0.9,0.4C40.3,49.4,42,49.4,43.6,49.4z"/>
	<path class="st0" d="M43.6,47.7c1.4,0,1.5,0,1.5-0.8c0-1-0.5-1.6-1.3-1.6s-1.4,0.6-1.4,1.6C42.3,48,43.1,47.6,43.6,47.7z"/>
	<path class="st0" d="M41.7,41.4c1.4,0,2.8,0,4.2,0C44.2,39.4,42.9,39.4,41.7,41.4z"/>
	<path class="st0" d="M38.7,45.8c0-0.2-0.8-1-0.8-1.2c-0.8,1.6,1.2,2.4,1.7,3.2"/>
	<path class="st0" d="M38.7,45.8c0-0.2-0.8-1-0.8-1.2c-0.8,1.6,1.2,2.4,1.7,3.2"/>
	<path class="st0" d="M48.7,45.8c0-0.2,0.6-1,0.6-1.2c0.6,1.6-0.9,2.4-1.3,3.2"/>
	<path class="st0" d="M120.5,48.9c-1.9,0-2.3,0.2-2.9,2.1c-0.2,0.6-0.3,1.2-0.4,1.9s0.2,1,0.9,1c1.8,0,3.5,0,5.3,0   c1.3,0,2.6,0,3.8,0c2.6,0,3-0.6,1.9-3.1c-0.1-0.2-0.2-0.3-0.2-0.5c-0.4-0.9-1-1.4-2.2-1.4"/>
	<path class="st0" d="M118.5,44.9c-0.1,0.5,0.1,1.1,0.3,1.7c0.3,1,1.1,0.9,1.9,0.9c0.9,0,0.7-0.7,0.7-1.3c0.1-1.3,0.8-2.1,1.9-2.1   s1.8,0.9,1.9,2.2c0,0.5-0.1,1.1,0.6,1.1s1.5,0.3,1.9-0.5c0.7-1.2,0.8-2.5,0.1-3.7c-0.7-1.1-1.4-2.2-3-2c-0.9,0.1-1.8,0-2.7,0   C120.1,41.2,118.5,42.8,118.5,44.9z"/>
	<path class="st0" d="M123.3,48.9c1.8,0,3.5,0,5.3,0c0.3,0,0.8,0.2,0.8-0.3c0-0.4-0.3-0.8-0.8-0.8c-0.4,0-0.7,0-1.1,0c-3,0-6,0-9,0   c-0.6,0-1,0.1-1.1,0.7c0,0.7,0.6,0.4,0.9,0.4C120,48.9,121.7,48.9,123.3,48.9z"/>
	<path class="st0" d="M123.3,47.1c1.4,0,1.5,0,1.5-0.8c0-1-0.5-1.6-1.3-1.6s-1.4,0.6-1.4,1.6C122,47.4,122.8,47.1,123.3,47.1z"/>
	<path class="st0" d="M121.3,40.8c1.4,0,2.8,0,4.2,0C123.9,38.9,122.6,38.9,121.3,40.8z"/>
	<path class="st0" d="M118.4,45.3c0-0.2-0.8-1-0.8-1.2c-0.8,1.6,1.2,2.4,1.7,3.2"/>
	<path class="st0" d="M118.4,45.3c0-0.2-0.8-1-0.8-1.2c-0.8,1.6,1.2,2.4,1.7,3.2"/>
	<path class="st0" d="M128.4,45.3c0-0.2,0.6-1,0.6-1.2c0.6,1.6-0.9,2.4-1.3,3.2"/>
	<path class="st0" d="M152.5,49.4c-2.1,0-2.5,0.2-3.1,2.1c-0.2,0.6-0.3,1.2-0.5,1.9c-0.1,0.7,0.2,1,1,1c1.9,0,3.8,0,5.7,0   c1.4,0,2.7,0,4.1,0c2.8,0,3.2-0.6,2-3.1c-0.1-0.2-0.2-0.3-0.3-0.5c-0.5-0.9-1.1-1.4-2.3-1.4"/>
	<path class="st0" d="M150.4,45.5c-0.1,0.5,0.2,1.1,0.4,1.7c0.4,1,1.2,0.9,2.1,0.9c1,0,0.7-0.7,0.8-1.3c0.1-1.3,0.9-2.1,2-2.1   s1.9,0.9,2,2.2c0,0.5-0.2,1.1,0.6,1.1c0.7,0,1.6,0.3,2.1-0.5c0.7-1.2,0.9-2.5,0.1-3.7c-0.7-1.1-1.5-2.2-3.3-2c-0.9,0.1-1.9,0-2.9,0   C152.1,41.8,150.4,43.4,150.4,45.5z"/>
	<path class="st0" d="M155.5,49.4c1.9,0,3.8,0,5.7,0c0.3,0,0.8,0.2,0.8-0.3c0-0.4-0.3-0.8-0.9-0.8c-0.4,0-0.8,0-1.2,0   c-3.2,0-6.4,0-9.6,0c-0.6,0-1.1,0.1-1.1,0.7c0,0.7,0.7,0.4,1,0.4C152,49.4,153.8,49.4,155.5,49.4z"/>
	<path class="st0" d="M155.5,47.7c1.5,0,1.6,0,1.6-0.8c0-1-0.6-1.6-1.4-1.6c-0.9,0-1.5,0.6-1.5,1.6C154.1,48,155,47.6,155.5,47.7z"/>
	<path class="st0" d="M153.4,41.4c1.5,0,2.9,0,4.5,0C156.1,39.4,154.8,39.4,153.4,41.4z"/>
	<path class="st0" d="M150.3,45.8c0-0.2-0.8-1-0.8-1.2c-0.8,1.6,1.3,2.4,1.8,3.2"/>
	<path class="st0" d="M150.3,45.8c0-0.2-0.8-1-0.8-1.2c-0.8,1.6,1.3,2.4,1.8,3.2"/>
	<path class="st0" d="M161,45.8c0-0.2,0.7-1,0.7-1.2c0.7,1.6-1,2.4-1.4,3.2"/>
	<path class="st0" d="M31.8,87.4c0,0-1.9,0.2,1-1.1c2.9-1.3,3.7-1.9,3.7-1.9"/>
</g>
</svg>