<svg id="Layer_1" data-name="Layer 1" xmlns="http://www.w3.org/2000/svg" viewBox="0 0 240 240"><defs><style>.cls-1{fill:none;stroke:#2999d6;stroke-miterlimit:10;stroke-width:7.48px;}.cls-2{fill:#2999d6;}</style></defs><title>Artboard 16 copy</title><path class="cls-1" d="M83.12,146.34c-15.14,0-27.66-12.12-27.9-27A27.5,27.5,0,0,1,80.48,91.44c0-1.1,0-2.2.06-3.29a35.41,35.41,0,0,1,34.56-33h.62a35.1,35.1,0,0,1,34.17,26.62c1-.1,2-.15,3.05-.15a32.2,32.2,0,0,1,22.61,8.68c6,5.85,9.42,14,9.74,23.59v.28a31.12,31.12,0,0,1-31,32l-41.34.12Z"/><path class="cls-2" d="M226.54,180.31H13.46a7.57,7.57,0,0,1-7.56-7.56v-144a7.57,7.57,0,0,1,7.56-7.56H226.54a7.57,7.57,0,0,1,7.56,7.56v144A7.57,7.57,0,0,1,226.54,180.31ZM13.46,23.35a5.41,5.41,0,0,0-5.4,5.4v144a5.41,5.41,0,0,0,5.4,5.4H226.54a5.41,5.41,0,0,0,5.4-5.4v-144a5.41,5.41,0,0,0-5.4-5.4Z"/><path class="cls-2" d="M226.54,183.11H13.46A10.38,10.38,0,0,1,3.09,172.74v-144A10.38,10.38,0,0,1,13.46,18.39H226.54a10.38,10.38,0,0,1,10.37,10.37v144A10.38,10.38,0,0,1,226.54,183.11ZM13.46,26.16a2.6,2.6,0,0,0-2.6,2.6v144a2.6,2.6,0,0,0,2.6,2.6H226.54a2.6,2.6,0,0,0,2.6-2.6v-144a2.6,2.6,0,0,0-2.6-2.6Z"/><path class="cls-2" d="M156.3,218.81H83.7a2.67,2.67,0,0,1-1.82-4.61l12-11.25V179.88a1.74,1.74,0,0,1,1.74-1.74h48.7a1.74,1.74,0,0,1,1.73,1.74v23.06l12,11.25a2.67,2.67,0,0,1-1.82,4.61Zm-60.22-38.5v22.82a1.76,1.76,0,0,1-.54,1.26L83.36,215.77a.5.5,0,0,0,.34.87H156.3a.5.5,0,0,0,.34-.87L144.48,204.4a1.75,1.75,0,0,1-.55-1.27V180.31Z"/><path class="cls-2" d="M156.29,221.61H83.71A5.47,5.47,0,0,1,80,212.14L91.1,201.73V179.88a4.55,4.55,0,0,1,4.54-4.54h48.7a4.55,4.55,0,0,1,4.54,4.54v21.84L160,212.14a5.47,5.47,0,0,1-3.74,9.47Zm-66.76-7.77h60.93l-7.9-7.39a4.57,4.57,0,0,1-1.44-3.32v-20H98.88v20a4.58,4.58,0,0,1-1.39,3.28Z"/></svg>