<svg id="Layer_1" data-name="Layer 1" xmlns="http://www.w3.org/2000/svg" viewBox="0 0 250 250"><defs><style>.cls-1{fill:#2999d6;}</style></defs><title>CC web icons final blue 5pt</title><path class="cls-1" d="M172.58,215.52H141.87a22.08,22.08,0,0,1-22.06-22.06V56.53a19.49,19.49,0,0,0-19.46-19.46H77.42v-2.6h22.92A22.08,22.08,0,0,1,122.4,56.53V193.47a19.49,19.49,0,0,0,19.46,19.46h30.71Z"/><path class="cls-1" d="M175.58,218.52H141.87a25.09,25.09,0,0,1-25.06-25.06V56.53a16.48,16.48,0,0,0-16.46-16.46H74.42V31.48h25.92A25.09,25.09,0,0,1,125.4,56.53V193.47a16.48,16.48,0,0,0,16.46,16.46h33.71Z"/><path class="cls-1" d="M48.45,66.05A30.28,30.28,0,1,1,78.72,35.77,30.31,30.31,0,0,1,48.45,66.05Zm0-58A27.68,27.68,0,1,0,76.13,35.77,27.71,27.71,0,0,0,48.45,8.1Z"/><path class="cls-1" d="M48.45,69.05A33.28,33.28,0,1,1,81.72,35.77,33.32,33.32,0,0,1,48.45,69.05Zm0-58A24.68,24.68,0,1,0,73.13,35.77,24.71,24.71,0,0,0,48.45,11.1Z"/><path class="cls-1" d="M201.55,244.5a30.28,30.28,0,1,1,30.28-30.27A30.31,30.31,0,0,1,201.55,244.5Zm0-58a27.68,27.68,0,1,0,27.68,27.68A27.71,27.71,0,0,0,201.55,186.54Z"/><path class="cls-1" d="M201.55,247.5a33.28,33.28,0,1,1,33.28-33.27A33.31,33.31,0,0,1,201.55,247.5Zm0-58a24.68,24.68,0,1,0,24.68,24.68A24.71,24.71,0,0,0,201.55,189.54Z"/><path class="cls-1" d="M201.55,117.28A30.27,30.27,0,1,1,231.83,87,30.31,30.31,0,0,1,201.55,117.28Zm0-58A27.68,27.68,0,1,0,229.24,87,27.71,27.71,0,0,0,201.55,59.32Z"/><path class="cls-1" d="M201.55,120.28A33.27,33.27,0,1,1,234.83,87,33.31,33.31,0,0,1,201.55,120.28Zm0-58A24.68,24.68,0,1,0,226.24,87,24.71,24.71,0,0,0,201.55,62.32Z"/><rect class="cls-1" x="121.11" y="85.7" width="51.47" height="2.6"/><rect class="cls-1" x="118.11" y="82.7" width="57.47" height="8.6"/></svg>