<svg id="Layer_1" data-name="Layer 1" xmlns="http://www.w3.org/2000/svg" viewBox="0 0 250 250"><defs><style>.cls-1{fill:#2999d6;}</style></defs><title>CC web icons final blue 5pt</title><path class="cls-1" d="M23.44,50a6.29,6.29,0,0,0,7.22,6.28V53.94a4,4,0,1,1,0-7.86V43.74A6.29,6.29,0,0,0,23.44,50Z"/><path class="cls-1" d="M29.77,59.29a9.28,9.28,0,0,1,0-18.56,9.11,9.11,0,0,1,1.28.1l2.53.35v8.57L30,48.95l-.23,0a1.1,1.1,0,0,0,0,2.2l.24,0,3.57-.8v8.56l-2.53.35A9.11,9.11,0,0,1,29.77,59.29Z"/><path class="cls-1" d="M218.19,223.09v12.43a5.78,5.78,0,0,1-5.78,5.78H13.59a5.79,5.79,0,0,1-5.78-5.78V68.33H30.65V66H7.81V38a5.79,5.79,0,0,1,5.78-5.78H30.65V29.95H13.59A8.1,8.1,0,0,0,5.5,38V235.52a8.1,8.1,0,0,0,8.09,8.09H212.41a8.1,8.1,0,0,0,8.09-8.09V223.09Z"/><path class="cls-1" d="M212.41,246.54H13.59a11,11,0,0,1-11-11V38a11,11,0,0,1,11-11h20v8.18h-20A2.85,2.85,0,0,0,10.75,38v25H33.58v8.18H10.75V235.52a2.85,2.85,0,0,0,2.85,2.85H212.41a2.85,2.85,0,0,0,2.85-2.85V220.15h8.18v15.37A11,11,0,0,1,212.41,246.54Z"/><path class="cls-1" d="M236.41,224.24H37.59a8.1,8.1,0,0,1-8.09-8.09V18.67a8.1,8.1,0,0,1,8.09-8.09H236.41a8.1,8.1,0,0,1,8.09,8.09V216.15A8.1,8.1,0,0,1,236.41,224.24ZM37.59,12.89a5.79,5.79,0,0,0-5.78,5.78V216.15a5.79,5.79,0,0,0,5.78,5.78H236.41a5.79,5.79,0,0,0,5.78-5.78V18.67a5.79,5.79,0,0,0-5.78-5.78Z"/><path class="cls-1" d="M236.41,227.18H37.59a11,11,0,0,1-11-11V18.67a11,11,0,0,1,11-11H236.41a11,11,0,0,1,11,11V216.15A11,11,0,0,1,236.41,227.18ZM37.59,15.82a2.85,2.85,0,0,0-2.85,2.85V216.15A2.85,2.85,0,0,0,37.59,219H236.41a2.85,2.85,0,0,0,2.85-2.85V18.67a2.85,2.85,0,0,0-2.85-2.85Z"/><path class="cls-1" d="M224.72,136.83H121.48a1.15,1.15,0,1,1,0-2.3H224.72a1.15,1.15,0,1,1,0,2.3Z"/><path class="cls-1" d="M224.72,139.77H121.48a4.09,4.09,0,0,1,0-8.17H224.72a4.09,4.09,0,0,1,0,8.17Z"/><path class="cls-1" d="M53.77,37a6.34,6.34,0,1,1,6.34-6.34A6.35,6.35,0,0,1,53.77,37Zm0-10.38a4,4,0,1,0,4,4A4,4,0,0,0,53.77,26.61Z"/><path class="cls-1" d="M53.77,39.92A9.28,9.28,0,1,1,63,30.64,9.29,9.29,0,0,1,53.77,39.92Zm0-10.38a1.1,1.1,0,1,0,1.1,1.1A1.1,1.1,0,0,0,53.77,29.55Z"/><path class="cls-1" d="M74.92,37a6.34,6.34,0,1,1,6.34-6.34A6.35,6.35,0,0,1,74.92,37Zm0-10.38a4,4,0,1,0,4,4A4,4,0,0,0,74.92,26.61Z"/><path class="cls-1" d="M74.92,39.92a9.28,9.28,0,1,1,9.27-9.28A9.29,9.29,0,0,1,74.92,39.92Zm0-10.38A1.1,1.1,0,1,0,76,30.64,1.1,1.1,0,0,0,74.92,29.55Z"/><path class="cls-1" d="M97.06,37a6.34,6.34,0,1,1,6.34-6.34A6.35,6.35,0,0,1,97.06,37Zm0-10.38a4,4,0,1,0,4,4A4,4,0,0,0,97.06,26.61Z"/><path class="cls-1" d="M97.06,39.92a9.28,9.28,0,1,1,9.28-9.28A9.29,9.29,0,0,1,97.06,39.92Zm0-10.38a1.1,1.1,0,1,0,1.1,1.1A1.1,1.1,0,0,0,97.06,29.55Z"/><rect class="cls-1" x="30.65" y="46.65" width="212.69" height="2.31"/><rect class="cls-1" x="27.72" y="43.72" width="218.56" height="8.18"/><path class="cls-1" d="M98.47,205.65H53.21a5.79,5.79,0,0,1-5.78-5.78V70.4a5.79,5.79,0,0,1,5.78-5.78H98.47a5.79,5.79,0,0,1,5.78,5.78V199.87A5.79,5.79,0,0,1,98.47,205.65ZM53.21,66.93a3.47,3.47,0,0,0-3.47,3.47V199.87a3.47,3.47,0,0,0,3.47,3.47H98.47a3.47,3.47,0,0,0,3.47-3.47V70.4a3.47,3.47,0,0,0-3.47-3.47Z"/><path class="cls-1" d="M98.47,208.58H53.21a8.72,8.72,0,0,1-8.71-8.71V70.4a8.72,8.72,0,0,1,8.71-8.71H98.47a8.72,8.72,0,0,1,8.71,8.71V199.87A8.72,8.72,0,0,1,98.47,208.58ZM53.21,69.87a.54.54,0,0,0-.53.53V199.87a.54.54,0,0,0,.53.53H98.47a.54.54,0,0,0,.53-.53V70.4a.54.54,0,0,0-.53-.53Z"/><path class="cls-1" d="M220.79,121.29H125.65a5.63,5.63,0,0,1-5.63-5.63V70.4a5.63,5.63,0,0,1,5.63-5.63h95.14a5.63,5.63,0,0,1,5.63,5.63v45.26A5.63,5.63,0,0,1,220.79,121.29ZM125.65,66.78A3.63,3.63,0,0,0,122,70.4v45.26a3.63,3.63,0,0,0,3.62,3.62h95.14a3.63,3.63,0,0,0,3.62-3.62V70.4a3.63,3.63,0,0,0-3.62-3.62Z"/><path class="cls-1" d="M220.79,124.22H125.65a8.57,8.57,0,0,1-8.56-8.56V70.4a8.57,8.57,0,0,1,8.56-8.56h95.14a8.57,8.57,0,0,1,8.56,8.56v45.26A8.57,8.57,0,0,1,220.79,124.22ZM125.65,69.71a.7.7,0,0,0-.69.69v45.26a.7.7,0,0,0,.69.69h95.14a.7.7,0,0,0,.69-.69V70.4a.7.7,0,0,0-.69-.69Z"/><path class="cls-1" d="M220.79,205.49H125.65a5.63,5.63,0,0,1-5.63-5.63V154.61a5.63,5.63,0,0,1,5.63-5.63h95.14a5.63,5.63,0,0,1,5.63,5.63v45.26A5.63,5.63,0,0,1,220.79,205.49ZM125.65,151a3.63,3.63,0,0,0-3.62,3.62v45.26a3.63,3.63,0,0,0,3.62,3.62h95.14a3.63,3.63,0,0,0,3.62-3.62V154.61a3.63,3.63,0,0,0-3.62-3.62Z"/><path class="cls-1" d="M220.79,208.43H125.65a8.57,8.57,0,0,1-8.56-8.56V154.61a8.57,8.57,0,0,1,8.56-8.56h95.14a8.57,8.57,0,0,1,8.56,8.56v45.26A8.57,8.57,0,0,1,220.79,208.43Zm-95.14-54.51a.7.7,0,0,0-.69.69v45.26a.7.7,0,0,0,.69.69h95.14a.7.7,0,0,0,.69-.69V154.61a.7.7,0,0,0-.69-.69Z"/></svg>