<svg id="Layer_1" data-name="Layer 1" xmlns="http://www.w3.org/2000/svg" viewBox="0 0 250 250"><defs><style>.cls-1{fill:#2999d6;}</style></defs><title>CC web icons final blue 5pt</title><path class="cls-1" d="M125,244.53A119.5,119.5,0,1,1,244.5,125,119.64,119.64,0,0,1,125,244.53ZM125,7.85A117.18,117.18,0,1,0,242.18,125,117.31,117.31,0,0,0,125,7.85Z"/><path class="cls-1" d="M125,247.46A122.43,122.43,0,1,1,247.43,125,122.57,122.57,0,0,1,125,247.46Zm0-236.68A114.25,114.25,0,1,0,239.25,125,114.37,114.37,0,0,0,125,10.78Z"/><path class="cls-1" d="M124.89,244.61l-.42-.21C123.78,244,55,208.07,54.36,125.11S123.77,6,124.48,5.65l.52-.26.52.26c.7.35,70,35.66,70,115.92,0,52.15-19,82.77-35,99.28-17.35,17.93-34.47,23.4-35.19,23.63ZM125,8c-6.37,3.45-68.91,39.35-68.32,117.09.6,78.12,62.64,113.86,68.42,117,5.93-2.12,68.14-26.63,68.14-120.54C193.24,46.44,131.36,11.39,125,8Z"/><path class="cls-1" d="M124.64,247.76l-1.48-.74c-.21-.11-18.17-9.46-36-29.34a138.62,138.62,0,0,1-35.78-92.56C50.78,39.94,122.45,3.38,123.18,3L125,2.11l1.83.91c.72.36,71.68,36.42,71.68,118.55,0,53.13-19.5,84.42-35.85,101.32-18,18.6-35.69,24.16-36.44,24.39ZM125,11.35C113.72,17.84,59.06,53,59.62,125.06c.24,32,10.86,60.5,31.56,84.74a137.42,137.42,0,0,0,34.17,29.08c5-2,19.6-8.7,33.87-24.58,20.63-23,31.09-54.16,31.09-92.73C190.31,51.93,136.23,17.7,125,11.35Z"/><rect class="cls-1" x="123.84" y="6.69" width="2.32" height="236.68"/><rect class="cls-1" x="120.91" y="3.75" width="8.19" height="242.55"/><rect class="cls-1" x="17.56" y="74.23" width="214.9" height="2.33"/><rect class="cls-1" x="14.62" y="71.29" width="220.77" height="8.2"/><rect class="cls-1" x="17.56" y="172.84" width="214.9" height="2.33"/><rect class="cls-1" x="14.62" y="169.91" width="220.77" height="8.2"/></svg>