<svg id="Layer_1" data-name="Layer 1" xmlns="http://www.w3.org/2000/svg" viewBox="0 0 250 250"><defs><style>.cls-1{fill:#2999d6;}</style></defs><title>CC web icons final blue 5pt</title><path class="cls-1" d="M235.51,243.76h-221a9,9,0,0,1-9-9V15.24a9,9,0,0,1,9-9h221a9,9,0,0,1,9,9V234.76A9,9,0,0,1,235.51,243.76ZM14.49,8.81a6.43,6.43,0,0,0-6.42,6.42V234.76a6.43,6.43,0,0,0,6.42,6.42h221a6.43,6.43,0,0,0,6.42-6.42V15.24a6.43,6.43,0,0,0-6.42-6.42Z"/><path class="cls-1" d="M235.51,246.69h-221A11.94,11.94,0,0,1,2.57,234.76V15.24A11.94,11.94,0,0,1,14.49,3.31h221a11.94,11.94,0,0,1,11.93,11.93V234.76A11.94,11.94,0,0,1,235.51,246.69ZM14.49,11.75A3.49,3.49,0,0,0,11,15.24V234.76a3.5,3.5,0,0,0,3.49,3.49h221a3.5,3.5,0,0,0,3.49-3.49V15.24a3.49,3.49,0,0,0-3.49-3.49Z"/><path class="cls-1" d="M222.51,143.81H107.75a1.28,1.28,0,0,1,0-2.56H222.51a1.28,1.28,0,0,1,0,2.56Z"/><path class="cls-1" d="M222.51,146.75H107.75a4.21,4.21,0,0,1,0-8.43H222.51a4.21,4.21,0,0,1,0,8.43Z"/><path class="cls-1" d="M32.48,35.6a7.05,7.05,0,1,1,7.05-7.05A7.06,7.06,0,0,1,32.48,35.6Zm0-11.53A4.48,4.48,0,1,0,37,28.55,4.49,4.49,0,0,0,32.48,24.07Z"/><path class="cls-1" d="M32.48,38.54a10,10,0,1,1,10-10A10,10,0,0,1,32.48,38.54Zm0-11.53A1.55,1.55,0,1,0,34,28.55,1.55,1.55,0,0,0,32.48,27Z"/><path class="cls-1" d="M54.66,35.6a7.05,7.05,0,1,1,7.05-7.05A7.06,7.06,0,0,1,54.66,35.6Zm0-11.53a4.48,4.48,0,1,0,4.48,4.48A4.49,4.49,0,0,0,54.66,24.07Z"/><path class="cls-1" d="M54.66,38.54a10,10,0,1,1,10-10A10,10,0,0,1,54.66,38.54Zm0-11.53a1.55,1.55,0,1,0,1.55,1.55A1.55,1.55,0,0,0,54.66,27Z"/><path class="cls-1" d="M76.84,35.6a7.05,7.05,0,1,1,7.05-7.05A7.06,7.06,0,0,1,76.84,35.6Zm0-11.53a4.48,4.48,0,1,0,4.48,4.48A4.49,4.49,0,0,0,76.84,24.07Z"/><path class="cls-1" d="M76.84,38.54a10,10,0,1,1,10-10A10,10,0,0,1,76.84,38.54Zm0-11.53a1.55,1.55,0,1,0,1.55,1.55A1.55,1.55,0,0,0,76.84,27Z"/><rect class="cls-1" x="6.78" y="46.34" width="236.43" height="2.57"/><rect class="cls-1" x="3.85" y="43.41" width="242.3" height="8.44"/><path class="cls-1" d="M82.17,223.08H31.86a6.43,6.43,0,0,1-6.42-6.42V72.75a6.43,6.43,0,0,1,6.42-6.42H82.17a6.43,6.43,0,0,1,6.42,6.42V216.66A6.43,6.43,0,0,1,82.17,223.08ZM31.86,68.89A3.86,3.86,0,0,0,28,72.75V216.66a3.86,3.86,0,0,0,3.85,3.85H82.17A3.86,3.86,0,0,0,86,216.66V72.75a3.86,3.86,0,0,0-3.85-3.85Z"/><path class="cls-1" d="M82.17,226H31.86a9.37,9.37,0,0,1-9.36-9.36V72.75a9.37,9.37,0,0,1,9.36-9.36H82.17a9.37,9.37,0,0,1,9.36,9.36V216.66A9.37,9.37,0,0,1,82.17,226ZM31.86,71.82a.92.92,0,0,0-.92.92V216.66a.92.92,0,0,0,.92.92H82.17a.92.92,0,0,0,.92-.92V72.75a.92.92,0,0,0-.92-.92Z"/><path class="cls-1" d="M218.14,129.31H112.38a6.26,6.26,0,0,1-6.25-6.25V72.75a6.26,6.26,0,0,1,6.25-6.25H218.14a6.26,6.26,0,0,1,6.25,6.25v50.31A6.26,6.26,0,0,1,218.14,129.31ZM112.38,68.72a4,4,0,0,0-4,4v50.31a4,4,0,0,0,4,4H218.14a4,4,0,0,0,4-4V72.75a4,4,0,0,0-4-4Z"/><path class="cls-1" d="M218.14,132.24H112.38a9.2,9.2,0,0,1-9.19-9.19V72.75a9.2,9.2,0,0,1,9.19-9.19H218.14a9.2,9.2,0,0,1,9.19,9.19v50.31A9.2,9.2,0,0,1,218.14,132.24ZM112.38,71.65a1.09,1.09,0,0,0-1.09,1.09v50.31a1.09,1.09,0,0,0,1.09,1.09H218.14a1.09,1.09,0,0,0,1.09-1.09V72.75a1.09,1.09,0,0,0-1.09-1.09Z"/><path class="cls-1" d="M218.14,222.91H112.38a6.26,6.26,0,0,1-6.25-6.25V166.35a6.26,6.26,0,0,1,6.25-6.25H218.14a6.26,6.26,0,0,1,6.25,6.25v50.31A6.26,6.26,0,0,1,218.14,222.91ZM112.38,162.32a4,4,0,0,0-4,4v50.31a4,4,0,0,0,4,4H218.14a4,4,0,0,0,4-4V166.35a4,4,0,0,0-4-4Z"/><path class="cls-1" d="M218.14,225.84H112.38a9.2,9.2,0,0,1-9.19-9.19V166.35a9.2,9.2,0,0,1,9.19-9.19H218.14a9.2,9.2,0,0,1,9.19,9.19v50.31A9.2,9.2,0,0,1,218.14,225.84ZM112.38,165.26a1.09,1.09,0,0,0-1.09,1.09v50.31a1.09,1.09,0,0,0,1.09,1.09H218.14a1.09,1.09,0,0,0,1.09-1.09V166.35a1.09,1.09,0,0,0-1.09-1.09Z"/></svg>