<svg xmlns="http://www.w3.org/2000/svg" viewBox="0 0 250 250"><defs><style>.cls-1{fill:#2999d6;}</style></defs><title>CC web icons final blue 5pt</title><g id="Layer_3" data-name="Layer 3"><path class="cls-1" d="M92.08,9.92s2.36.13,2.55,2-.83,2.21-.83,2.21h2.61v2.36h-2.1v7.9s5.86,1.91,6.18,7.26S99,37.53,99,37.53H85s-1.78-.57-1.47-5.93,6.18-7.26,6.18-7.26v-7.9h-2.1V14.09h2.61s-1-.38-.83-2.21,2.64-2,2.64-2m0-1.53H92c-1.81.09-3.86,1.17-4.08,3.32a5.46,5.46,0,0,0,0,.84H86.13V18h2.1v5.35c-1.94.91-5.89,3.34-6.18,8.2-.36,6.06,1.84,7.25,2.52,7.47l.23.07H99.27l.23-.07c.68-.22,2.88-1.41,2.52-7.47-.29-4.85-4.24-7.29-6.18-8.2V18h2.1V12.56H96.18a5.46,5.46,0,0,0,0-.84,4,4,0,0,0-4-3.32Z"/><path class="cls-1" d="M99.72,42H84.35l-.66-.21c-1.52-.49-5-2.48-4.53-10.4a12.29,12.29,0,0,1,6.17-9.74v-.74h-2.1V9.67h2.24a7.2,7.2,0,0,1,6.38-4.16h.48A7.09,7.09,0,0,1,98.6,9.67h2.24v11.2h-2.1v.74a12.29,12.29,0,0,1,6.17,9.74c.47,7.92-3,9.91-4.53,10.4ZM86.58,34.64H97.49a11.31,11.31,0,0,0,.12-2.86c-.2-3.29-4.15-4.67-4.19-4.69L92,26.64l-1.38.45c-.14,0-4,1.4-4.19,4.69A11.24,11.24,0,0,0,86.58,34.64Z"/><path class="cls-1" d="M172.86,9.92s2.45.13,2.64,2-.83,2.21-.83,2.21h2.61v2.36h-2.1v7.9s5.86,1.91,6.18,7.26-1.47,5.93-1.47,5.93h-14s-1.78-.57-1.47-5.93,6.18-7.26,6.18-7.26v-7.9h-2.1V14.09h2.61s-1-.38-.83-2.21,2.55-2,2.55-2m0-1.53h-.08a4,4,0,0,0-4,3.32,5.46,5.46,0,0,0,0,.84H167V18h2.1v5.35c-1.94.91-5.89,3.34-6.18,8.2-.36,6.06,1.84,7.25,2.52,7.47l.23.07h14.46l.23-.07c.68-.22,2.88-1.41,2.52-7.47-.29-4.85-4.24-7.29-6.18-8.2V18h2.1V12.56h-1.77a5.46,5.46,0,0,0,0-.84c-.22-2.15-2.27-3.23-4.08-3.32Z"/><path class="cls-1" d="M180.6,42H165.23l-.66-.21c-1.52-.49-5-2.48-4.53-10.4a12.29,12.29,0,0,1,6.17-9.74v-.74h-2.1V9.67h2.24a7.1,7.1,0,0,1,6.28-4.16h.48a7.18,7.18,0,0,1,6.36,4.16h2.24v11.2h-2.1v.74a12.29,12.29,0,0,1,6.17,9.74c.47,7.92-3,9.91-4.53,10.4Zm-13.14-7.31h10.91a11.31,11.31,0,0,0,.12-2.86c-.2-3.29-4.15-4.67-4.19-4.69l-1.38-.45-1.38.45c-.14,0-4,1.4-4.19,4.69A11.3,11.3,0,0,0,167.46,34.64Z"/><path class="cls-1" d="M179.65,43s1.73.06,1.76.89-.83,2.23-1.58,2.23h0l.83,1.53a1.77,1.77,0,0,1,1-.35c.67,0,1.5.52,1.88,2.83a12.13,12.13,0,0,1-.18,5.62V240.08H138.65v-21a8.55,8.55,0,0,0-6.05-7.65h0a8.55,8.55,0,0,0-6.05,7.65v21H81.6V55.58a12.55,12.55,0,0,1-.12-5.43c.39-2.31,1.21-2.83,1.88-2.83a1.77,1.77,0,0,1,1,.35l.83-1.53h0c-.75,0-1.61-1.42-1.58-2.23S85.3,43,85.3,43H98.77s1.73.06,1.76.89-.83,2.23-1.58,2.23h0l.83,1.53a1.77,1.77,0,0,1,1-.35c.67,0,1.5.52,1.88,2.83a11.19,11.19,0,0,1-.35,6.1v41.5l30.2-14h0l30.2,14V56.1a11.6,11.6,0,0,1-.29-5.95c.39-2.31,1.21-2.83,1.88-2.83a1.77,1.77,0,0,1,1,.35l.83-1.53h0c-.75,0-1.61-1.42-1.58-2.23s1.76-.89,1.76-.89h13.47M102.24,192.74h60.53V137.21c-3.79-15.36-30.35-21.28-30.35-21.28-1.59.34-26.38,5.92-30.18,21.28v55.53M179.68,41.48h-13.5c-2,.07-3.24,1-3.29,2.37a4,4,0,0,0,.58,2c-1,.28-2.16,1.22-2.63,4a13.49,13.49,0,0,0,.27,6.46v39l-28-13-.64-.3-.64.3-28,13V56.53a13.24,13.24,0,0,0,.33-6.63c-.46-2.79-1.65-3.73-2.63-4a4,4,0,0,0,.58-2c0-1.37-1.31-2.3-3.23-2.37H85.3c-2,.07-3.24,1-3.29,2.37a4,4,0,0,0,.58,2c-1,.28-2.16,1.22-2.63,4a14.3,14.3,0,0,0,.1,5.89V241.61h48V219.12a7,7,0,0,1,4.54-6,7,7,0,0,1,4.54,6v22.47h47.7V56A13.92,13.92,0,0,0,185,49.9c-.46-2.79-1.65-3.73-2.63-4a4,4,0,0,0,.58-2c0-1.37-1.31-2.3-3.23-2.37Zm-75.9,95.92c3.55-13.65,25.52-19.18,28.64-19.9,3,.73,25.38,6.65,28.83,19.9v53.81H103.77V137.4Z"/><path class="cls-1" d="M187.71,244.5H134.23V219.21a4,4,0,0,0-1.65-2.84,4,4,0,0,0-1.65,2.83V244.5H77.18V56.12a17.58,17.58,0,0,1-.06-6.7,8.81,8.81,0,0,1,2.06-4.67,5.8,5.8,0,0,1-.05-1c.09-2.92,2.59-5,6.07-5.17H98.93c3.45.13,5.92,2.25,6,5.17a5.79,5.79,0,0,1-.05,1A8.82,8.82,0,0,1,107,49.42a16.77,16.77,0,0,1-.29,7.57V90.81l25.78-12,25.78,12v-34a16.8,16.8,0,0,1-.23-7.37,8.82,8.82,0,0,1,2.06-4.67,5.7,5.7,0,0,1-.05-1c.09-2.92,2.59-5,6.07-5.17H179.8c3.46.13,5.93,2.25,6,5.17a5.79,5.79,0,0,1-.05,1,8.82,8.82,0,0,1,2.06,4.67,17.26,17.26,0,0,1-.12,6.94Zm-46.17-7.31H180.4V55.32l.13-.42a8.72,8.72,0,0,0,.18-3.64l-3.48-3.75-.87-1.61h-6.9l-4.35,5.36a8.23,8.23,0,0,0,.24,3.8l.19.5v46.71L132.44,86.88,99.35,102.28V55.66l.23-.54a8,8,0,0,0,.26-3.85L95.48,45.9h-6.9l-4.35,5.36a9.1,9.1,0,0,0,.15,3.53l.11.38v182h39.14V219.12a11.41,11.41,0,0,1,8-10.39l.45-.15H133l.47.15a11.41,11.41,0,0,1,8,10.35ZM99.47,49.63Zm66,0Zm.19,146H99.35V136.86l.08-.34c4.17-16.87,29.5-22.79,32.37-23.41l.62-.13.62.14c1.16.26,28.36,6.51,32.53,23.41l.08.34Zm-59-7.31h51.69V137.8c-2.68-9.07-17.21-15-26-17.32-4.26,1.06-22.51,6.22-25.73,17.31Z"/><rect class="cls-1" x="81.25" y="66.63" width="20.99" height="5.78"/><rect class="cls-1" x="81.25" y="68.75" width="21" height="1.53"/><rect class="cls-1" x="78.36" y="65.86" width="26.78" height="7.31"/><rect class="cls-1" x="162.41" y="66.63" width="20.99" height="5.78"/><rect class="cls-1" x="162.41" y="68.75" width="21" height="1.53"/><rect class="cls-1" x="159.52" y="65.86" width="26.78" height="7.31"/><rect class="cls-1" x="81.25" y="166.09" width="20.99" height="5.78"/><rect class="cls-1" x="81.25" y="168.22" width="21" height="1.53"/><rect class="cls-1" x="78.36" y="165.33" width="26.78" height="7.31"/><rect class="cls-1" x="162.41" y="166.09" width="20.99" height="5.78"/><rect class="cls-1" x="162.41" y="168.22" width="21" height="1.53"/><rect class="cls-1" x="159.52" y="165.33" width="26.78" height="7.31"/><rect class="cls-1" x="81.25" y="104.73" width="102.45" height="5.78"/><rect class="cls-1" x="81.25" y="106.86" width="102.45" height="1.53"/><rect class="cls-1" x="78.36" y="103.96" width="108.23" height="7.31"/><rect class="cls-1" x="64.05" y="237.95" width="136.72" height="5.78"/><path class="cls-1" d="M200.78,241.61H64.06a.76.76,0,1,1,0-1.53H200.78a.76.76,0,0,1,0,1.53Z"/><path class="cls-1" d="M200.78,244.5H64.05a3.66,3.66,0,0,1,0-7.31H200.78a3.66,3.66,0,1,1,0,7.31Z"/></g></svg>