<svg id="Layer_1" data-name="Layer 1" xmlns="http://www.w3.org/2000/svg" viewBox="0 0 250 250"><defs><style>.cls-1{fill:#2999d6;}</style></defs><title>CC web icons final blue 5pt</title><path class="cls-1" d="M72.42,25a6.08,6.08,0,1,0,6.08,6.08A6.08,6.08,0,0,0,72.42,25Zm0,9.94a3.86,3.86,0,1,1,3.86-3.86A3.87,3.87,0,0,1,72.42,34.95Z"/><path class="cls-1" d="M72.42,40.1a9,9,0,1,1,9-9A9,9,0,0,1,72.42,40.1Zm0-9.94a.92.92,0,1,0,.92.92A.94.94,0,0,0,72.42,30.16Z"/><path class="cls-1" d="M28.76,25a6.08,6.08,0,1,0,6.08,6.08A6.08,6.08,0,0,0,28.76,25Zm0,9.94a3.86,3.86,0,1,1,3.86-3.86A3.87,3.87,0,0,1,28.76,34.95Z"/><path class="cls-1" d="M28.76,40.1a9,9,0,1,1,9-9A9,9,0,0,1,28.76,40.1Zm0-9.94a.92.92,0,1,0,.92.92A.92.92,0,0,0,28.76,30.16Z"/><path class="cls-1" d="M50.1,25a6.08,6.08,0,1,0,6.08,6.08A6.08,6.08,0,0,0,50.1,25Zm0,9.94A3.86,3.86,0,1,1,54,31.08,3.87,3.87,0,0,1,50.1,34.95Z"/><path class="cls-1" d="M50.1,40.1a9,9,0,1,1,9-9A9,9,0,0,1,50.1,40.1Zm0-9.94a.92.92,0,1,0,.92.92A.92.92,0,0,0,50.1,30.16Z"/><path class="cls-1" d="M28.21,63.63a5.54,5.54,0,0,0-5.54,5.54v124a5.54,5.54,0,0,0,5.54,5.54H71.58a5.54,5.54,0,0,0,5.54-5.54v-124a5.54,5.54,0,0,0-5.54-5.54ZM74.9,69.17v124a3.33,3.33,0,0,1-3.32,3.32H28.21a3.33,3.33,0,0,1-3.32-3.32v-124a3.33,3.33,0,0,1,3.32-3.32H71.58A3.33,3.33,0,0,1,74.9,69.17Z"/><path class="cls-1" d="M71.58,201.68H28.21a8.49,8.49,0,0,1-8.48-8.48v-124a8.49,8.49,0,0,1,8.48-8.48H71.58a8.48,8.48,0,0,1,8.48,8.48v124A8.48,8.48,0,0,1,71.58,201.68ZM28.21,68.79a.39.39,0,0,0-.38.38v124a.39.39,0,0,0,.38.38H71.58a.39.39,0,0,0,.38-.38v-124a.39.39,0,0,0-.38-.38Z"/><path class="cls-1" d="M92.22,193.2a5.4,5.4,0,0,0,5.39,5.39h58.93v-1.92H97.61a3.47,3.47,0,0,1-3.47-3.47V149.84a3.47,3.47,0,0,1,3.47-3.47h58.93v-1.92H97.61a5.4,5.4,0,0,0-5.39,5.39Z"/><path class="cls-1" d="M159.48,201.53H97.61a8.34,8.34,0,0,1-8.33-8.33V149.84a8.34,8.34,0,0,1,8.33-8.33h61.86v7.8H97.61a.54.54,0,0,0-.53.53V193.2a.54.54,0,0,0,.53.53h61.86Z"/><path class="cls-1" d="M156.54,214.34H13.25a5.54,5.54,0,0,1-5.54-5.54V48.63H209.26V76.37h2.21V19.61a7.76,7.76,0,0,0-7.75-7.75H13.25A7.76,7.76,0,0,0,5.5,19.61V208.8a7.76,7.76,0,0,0,7.75,7.75H156.54ZM7.71,19.61a5.54,5.54,0,0,1,5.54-5.54H203.73a5.54,5.54,0,0,1,5.54,5.54V46.42H7.71Z"/><path class="cls-1" d="M159.48,219.49H13.25A10.7,10.7,0,0,1,2.56,208.8V19.61A10.7,10.7,0,0,1,13.25,8.92H203.73a10.7,10.7,0,0,1,10.69,10.69v59.7h-8.09V51.57H10.65V208.8a2.6,2.6,0,0,0,2.6,2.6H159.48ZM10.65,43.48H206.32V19.61a2.6,2.6,0,0,0-2.6-2.6H13.25a2.6,2.6,0,0,0-2.6,2.6Z"/><path class="cls-1" d="M93.63,132.64h62.91v-2.21H93.63a1.1,1.1,0,1,0,0,2.21Z"/><path class="cls-1" d="M159.48,135.58H93.63a4,4,0,1,1,0-8.08h65.85Z"/><path class="cls-1" d="M188.76,63.78H97.61a5.4,5.4,0,0,0-5.39,5.39v43.36a5.4,5.4,0,0,0,5.39,5.39h58.93V116H97.61a3.47,3.47,0,0,1-3.47-3.47V69.17a3.47,3.47,0,0,1,3.47-3.47h91.15a3.47,3.47,0,0,1,3.47,3.47v7.2h1.92v-7.2A5.4,5.4,0,0,0,188.76,63.78Z"/><path class="cls-1" d="M159.48,120.86H97.61a8.34,8.34,0,0,1-8.33-8.33V69.17a8.34,8.34,0,0,1,8.33-8.33h91.15a8.34,8.34,0,0,1,8.33,8.33V79.31h-7.8V69.17a.54.54,0,0,0-.53-.53H97.61a.54.54,0,0,0-.53.53v43.36a.54.54,0,0,0,.53.53h61.86Z"/><path class="cls-1" d="M236.75,238.14H163.18a7.76,7.76,0,0,1-7.75-7.75V83a7.76,7.76,0,0,1,7.75-7.75h73.56A7.76,7.76,0,0,1,244.5,83V230.39A7.76,7.76,0,0,1,236.75,238.14ZM163.18,77.48A5.54,5.54,0,0,0,157.65,83V230.39a5.54,5.54,0,0,0,5.54,5.54h73.56a5.54,5.54,0,0,0,5.54-5.54V83a5.54,5.54,0,0,0-5.54-5.54Z"/><path class="cls-1" d="M236.75,241.08H163.18a10.7,10.7,0,0,1-10.69-10.69V83a10.7,10.7,0,0,1,10.69-10.69h73.56A10.7,10.7,0,0,1,247.44,83V230.39A10.7,10.7,0,0,1,236.75,241.08ZM163.18,80.42a2.6,2.6,0,0,0-2.6,2.6V230.39a2.6,2.6,0,0,0,2.6,2.6h73.56a2.6,2.6,0,0,0,2.6-2.6V83a2.6,2.6,0,0,0-2.6-2.6Z"/><path class="cls-1" d="M227.91,197.18H174.13a1.11,1.11,0,1,1,0-2.21h53.79a1.11,1.11,0,0,1,0,2.21Z"/><path class="cls-1" d="M227.92,200.12H174.13a4,4,0,1,1,0-8.09h53.79a4,4,0,0,1,0,8.09Z"/><path class="cls-1" d="M227.91,210.46H174.13a1.11,1.11,0,0,1,0-2.21h53.79a1.11,1.11,0,0,1,0,2.21Z"/><path class="cls-1" d="M227.92,213.4H174.13a4,4,0,1,1,0-8.09h53.79a4,4,0,0,1,0,8.09Z"/><path class="cls-1" d="M227.91,223.89H174.13a1.11,1.11,0,1,1,0-2.21h53.79a1.11,1.11,0,0,1,0,2.21Z"/><path class="cls-1" d="M227.92,226.83H174.13a4,4,0,1,1,0-8.09h53.79a4,4,0,0,1,0,8.09Z"/><circle class="cls-1" cx="171.77" cy="95.03" r="2.48"/><path class="cls-1" d="M171.77,100.45A5.42,5.42,0,1,1,177.2,95,5.43,5.43,0,0,1,171.77,100.45Zm0-5.88a.45.45,0,1,0,.45.45A.45.45,0,0,0,171.77,94.58Z"/><circle class="cls-1" cx="184.4" cy="95.03" r="2.48"/><path class="cls-1" d="M184.4,100.45A5.42,5.42,0,1,1,189.83,95,5.43,5.43,0,0,1,184.4,100.45Zm0-5.88a.45.45,0,1,0,.45.45A.45.45,0,0,0,184.4,94.58Z"/><circle class="cls-1" cx="197.03" cy="95.03" r="2.48"/><path class="cls-1" d="M197,100.45A5.42,5.42,0,1,1,202.46,95,5.43,5.43,0,0,1,197,100.45Zm0-5.88a.45.45,0,1,0,.45.45A.45.45,0,0,0,197,94.58Z"/><rect class="cls-1" x="156.54" y="109.82" width="86.85" height="2.21"/><rect class="cls-1" x="153.6" y="106.88" width="92.73" height="8.09"/><path class="cls-1" d="M223.85,182.6H178.32a5.54,5.54,0,0,1-5.54-5.54V133.71a5.54,5.54,0,0,1,5.54-5.54h45.53a5.54,5.54,0,0,1,5.54,5.54v43.36A5.54,5.54,0,0,1,223.85,182.6Zm-45.53-52.22a3.33,3.33,0,0,0-3.32,3.32v43.36a3.33,3.33,0,0,0,3.32,3.32h45.53a3.33,3.33,0,0,0,3.32-3.32V133.71a3.33,3.33,0,0,0-3.32-3.32Z"/><path class="cls-1" d="M223.85,185.54H178.32a8.49,8.49,0,0,1-8.48-8.48V133.71a8.49,8.49,0,0,1,8.48-8.48h45.53a8.49,8.49,0,0,1,8.48,8.48v43.36A8.49,8.49,0,0,1,223.85,185.54Zm-45.53-52.22a.39.39,0,0,0-.38.38v43.36a.39.39,0,0,0,.38.38h45.53a.39.39,0,0,0,.38-.38V133.71a.39.39,0,0,0-.38-.38Z"/></svg>