<svg id="Layer_1" data-name="Layer 1" xmlns="http://www.w3.org/2000/svg" viewBox="0 0 250 250"><defs><style>.cls-1{fill:#2999d6;}</style></defs><title>CC web icons final blue 5pt</title><path class="cls-1" d="M191.07,201.93H78.62a15,15,0,0,1-14.42-11l-31.34-113a8.32,8.32,0,0,0-8-6.08H18a1,1,0,0,1,0-2h6.88a10.34,10.34,0,0,1,9.94,7.56l31.34,113a13,13,0,0,0,12.48,9.49H191.07a12.87,12.87,0,0,0,12.06-8.24l27.94-71.6a1,1,0,0,1,1.31-.57,1,1,0,0,1,.57,1.31L205,192.41A14.88,14.88,0,0,1,191.07,201.93Z"/><path class="cls-1" d="M191.07,204.9H78.62a18,18,0,0,1-17.28-13.14L30,78.72a5.35,5.35,0,0,0-5.14-3.91H18a4,4,0,0,1,0-7.95h6.88a13.32,13.32,0,0,1,12.8,9.73L69,189.63a10,10,0,0,0,9.62,7.31H191.07a9.92,9.92,0,0,0,9.3-6.36L228.31,119a4,4,0,0,1,7.41,2.88l-27.94,71.61A17.83,17.83,0,0,1,191.07,204.9Z"/><path class="cls-1" d="M95.11,244.5A18.47,18.47,0,1,1,113.58,226,18.49,18.49,0,0,1,95.11,244.5Zm0-34.61A16.14,16.14,0,1,0,111.25,226,16.16,16.16,0,0,0,95.11,209.89Z"/><path class="cls-1" d="M95.11,247.47A21.43,21.43,0,1,1,116.55,226,21.46,21.46,0,0,1,95.11,247.47Zm0-34.61A13.18,13.18,0,1,0,108.29,226,13.19,13.19,0,0,0,95.11,212.85Z"/><path class="cls-1" d="M178.93,244.5A18.47,18.47,0,1,1,197.4,226,18.49,18.49,0,0,1,178.93,244.5Zm0-34.61A16.14,16.14,0,1,0,195.07,226,16.16,16.16,0,0,0,178.93,209.89Z"/><path class="cls-1" d="M178.93,247.47A21.43,21.43,0,1,1,200.36,226,21.46,21.46,0,0,1,178.93,247.47Zm0-34.61A13.18,13.18,0,1,0,192.11,226,13.19,13.19,0,0,0,178.93,212.85Z"/><rect class="cls-1" x="61.12" y="176.8" width="148.51" height="2.04"/><rect class="cls-1" x="58.15" y="173.83" width="154.44" height="7.98"/><rect class="cls-1" x="55.27" y="153.97" width="163.27" height="2.05"/><rect class="cls-1" x="52.3" y="151" width="169.2" height="7.99"/><rect class="cls-1" x="48.38" y="129.05" width="180.27" height="2.15"/><rect class="cls-1" x="45.41" y="126.09" width="186.2" height="8.09"/><path class="cls-1" d="M129.52,109.81a8.13,8.13,0,0,1-5.76-2.38L88.7,72.37a8.15,8.15,0,0,1,0-11.51l53-53a8.33,8.33,0,0,1,11.51,0l35.07,35.07a8.14,8.14,0,0,1,0,11.51l-53,53A8.13,8.13,0,0,1,129.52,109.81Zm18-102.06a5.77,5.77,0,0,0-4.11,1.7l-53,53a5.82,5.82,0,0,0,0,8.22l35.07,35.07a6,6,0,0,0,8.23,0l53-53a5.81,5.81,0,0,0,0-8.22L151.61,9.46A5.78,5.78,0,0,0,147.5,7.75Z"/><path class="cls-1" d="M129.52,112.78a11,11,0,0,1-7.85-3.25L86.6,74.46a11.11,11.11,0,0,1,0-15.71l53-53a11.13,11.13,0,0,1,7.85-3.18h0a11.15,11.15,0,0,1,7.86,3.18l35.06,35.06a11.11,11.11,0,0,1,0,15.71l-53,53A11,11,0,0,1,129.52,112.78Zm18-102.06a2.79,2.79,0,0,0-2,.83l-53,53a2.8,2.8,0,0,0-.83,2,2.83,2.83,0,0,0,.83,2l35.07,35.07a3.1,3.1,0,0,0,4,0l53-53a2.85,2.85,0,0,0,0-4L149.52,11.55A2.8,2.8,0,0,0,147.5,10.72Z"/><rect class="cls-1" x="82.23" y="44.66" width="88.97" height="2.33" transform="translate(4.71 103.02) rotate(-45)"/><rect class="cls-1" x="79.26" y="41.69" width="94.9" height="8.26" transform="translate(4.71 103.02) rotate(-45)"/><rect class="cls-1" x="91.87" y="54.31" width="88.98" height="2.33" transform="translate(0.71 112.67) rotate(-45)"/><rect class="cls-1" x="88.91" y="51.34" width="94.91" height="8.26" transform="translate(0.72 112.69) rotate(-45.01)"/></svg>