<svg id="Layer_1" data-name="Layer 1" xmlns="http://www.w3.org/2000/svg" viewBox="0 0 250 250"><defs><style>.cls-1{fill:#2999d6;}</style></defs><title>CC web icons final blue 5pt</title><path class="cls-1" d="M179.56,52.19h-32a8.41,8.41,0,0,1-8.4-8.41V7.38h2.19V43.78A6.23,6.23,0,0,0,147.52,50h32Z"/><path class="cls-1" d="M182.55,55.18h-35a11.4,11.4,0,0,1-11.39-11.39V4.39h8.16V43.78A3.24,3.24,0,0,0,147.52,47h35Z"/><rect class="cls-1" x="38.61" y="102.56" width="124.83" height="1.68"/><rect class="cls-1" x="35.69" y="99.64" width="130.67" height="7.52" rx="2.92" ry="2.92"/><rect class="cls-1" x="38.61" y="121.19" width="124.83" height="1.68"/><rect class="cls-1" x="35.69" y="118.27" width="130.67" height="7.52" rx="2.92" ry="2.92"/><rect class="cls-1" x="38.61" y="144.84" width="93.94" height="1.48"/><rect class="cls-1" x="35.73" y="141.96" width="99.7" height="7.24" rx="2.88" ry="2.88"/><rect class="cls-1" x="38.61" y="166.32" width="78.41" height="1.98"/><rect class="cls-1" x="35.73" y="163.44" width="84.17" height="7.74" rx="2.88" ry="2.88"/><rect class="cls-1" x="38.61" y="80.7" width="96.49" height="1.48"/><rect class="cls-1" x="35.69" y="77.78" width="102.33" height="7.32" rx="2.92" ry="2.92"/><rect class="cls-1" x="38.61" y="58.54" width="89.02" height="1.42"/><rect class="cls-1" x="35.69" y="55.63" width="94.85" height="7.25" rx="2.92" ry="2.92"/><path class="cls-1" d="M169.47,244.29a56.84,56.84,0,1,1,56.84-56.84A56.9,56.9,0,0,1,169.47,244.29Zm0-111.49a54.65,54.65,0,1,0,54.65,54.65A54.71,54.71,0,0,0,169.47,132.8Z"/><path class="cls-1" d="M169.47,247.27a59.82,59.82,0,1,1,59.82-59.82A59.89,59.89,0,0,1,169.47,247.27Zm0-111.49a51.66,51.66,0,1,0,51.66,51.66A51.72,51.72,0,0,0,169.47,135.79Z"/><path class="cls-1" d="M159.31,208l-14.67-17.29a1.09,1.09,0,1,1,1.67-1.42l13.05,15.37L194,165.9a1.09,1.09,0,1,1,1.63,1.46Z"/><path class="cls-1" d="M159.25,212.59l-16.89-19.9a4.08,4.08,0,0,1,3.46-6.71,4,4,0,0,1,2.77,1.43l10.82,12.75,32.4-36.26a4.08,4.08,0,0,1,6.09,5.43ZM144,191.28h0Z"/><path class="cls-1" d="M115.81,197.65H31.91A7.66,7.66,0,0,1,24.26,190V15.12a7.66,7.66,0,0,1,7.65-7.65H140.72l38.74,43v83.24c.74.14,1.46.29,2.19.46V50.1a1.08,1.08,0,0,0-.28-.73L142,5.65a1.08,1.08,0,0,0-.81-.36H31.91a9.85,9.85,0,0,0-9.84,9.84V190a9.85,9.85,0,0,0,9.84,9.84h84.38C116.12,199.11,115.95,198.39,115.81,197.65Z"/><path class="cls-1" d="M120.05,202.83H31.91A12.84,12.84,0,0,1,19.09,190V15.12A12.84,12.84,0,0,1,31.91,2.3h109.3a4.08,4.08,0,0,1,3,1.36l39.34,43.71a4,4,0,0,1,1,2.73V138l-3.65-.83c-.69-.16-1.37-.3-2.07-.43l-2.44-.45V51.66l-37.08-41.2H31.91a4.67,4.67,0,0,0-4.66,4.66V190a4.67,4.67,0,0,0,4.66,4.66h86.37l.46,2.43c.12.65.27,1.28.42,1.92Z"/></svg>