<svg id="Layer_1" data-name="Layer 1" xmlns="http://www.w3.org/2000/svg" viewBox="0 0 250 250"><defs><style>.cls-1,.cls-2{fill:#2999d6;}.cls-2{stroke:#2999d6;stroke-miterlimit:10;stroke-width:5.47px;}</style></defs><title>mobile ui</title><path class="cls-1" d="M170,244.5H80a16,16,0,0,1-16-16V21.46a16,16,0,0,1,16-16h90a16,16,0,0,1,16,16V228.54A16,16,0,0,1,170,244.5ZM80,8A13.52,13.52,0,0,0,66.48,21.46V228.54A13.52,13.52,0,0,0,80,242h90a13.52,13.52,0,0,0,13.51-13.51V21.46A13.52,13.52,0,0,0,170,8Z"/><path class="cls-1" d="M170,247.5H80a19,19,0,0,1-19-19V21.46a19,19,0,0,1,19-19h90a19,19,0,0,1,19,19V228.54A19,19,0,0,1,170,247.5ZM80,11A10.52,10.52,0,0,0,69.48,21.46V228.54A10.52,10.52,0,0,0,80,239h90a10.52,10.52,0,0,0,10.51-10.51V21.46A10.52,10.52,0,0,0,170,11Z"/><path class="cls-1" d="M132.78,26.5H117.22a1.23,1.23,0,0,1,0-2.46h15.55a1.23,1.23,0,0,1,0,2.46Z"/><path class="cls-1" d="M132.78,29.5H117.22a4.23,4.23,0,0,1,0-8.46h15.55a4.23,4.23,0,0,1,0,8.46Z"/><rect class="cls-1" x="70.28" y="41.71" width="112.38" height="2.21"/><rect class="cls-1" x="66.48" y="38.77" width="119.98" height="8.09"/><path class="cls-1" d="M158.54,216.78H91.45a1.29,1.29,0,1,1,0-2.57h67.09a1.29,1.29,0,1,1,0,2.57Z"/><path class="cls-1" d="M158.54,220.19H91.45a4.7,4.7,0,1,1,0-9.38h67.09a4.7,4.7,0,1,1,0,9.38Z"/><path class="cls-1" d="M158.54,190.78H91.45a1.29,1.29,0,1,1,0-2.57h67.09a1.29,1.29,0,1,1,0,2.57Z"/><path class="cls-1" d="M158.54,194.19H91.45a4.7,4.7,0,1,1,0-9.38h67.09a4.7,4.7,0,1,1,0,9.38Z"/><circle class="cls-1" cx="91.36" cy="67.96" r="2.47"/><path class="cls-1" d="M91.36,73.35A5.39,5.39,0,1,1,96.75,68,5.39,5.39,0,0,1,91.36,73.35Zm0-5.84a.45.45,0,1,0,.45.45A.45.45,0,0,0,91.36,67.51Z"/><circle class="cls-1" cx="107.24" cy="67.96" r="2.47"/><path class="cls-1" d="M107.24,73.35A5.39,5.39,0,1,1,112.63,68,5.39,5.39,0,0,1,107.24,73.35Zm0-5.84a.45.45,0,1,0,.45.45A.45.45,0,0,0,107.24,67.51Z"/><circle class="cls-1" cx="124.11" cy="67.96" r="2.47"/><path class="cls-1" d="M124.11,73.35A5.39,5.39,0,1,1,129.5,68,5.39,5.39,0,0,1,124.11,73.35Zm0-5.84a.45.45,0,1,0,.45.45A.45.45,0,0,0,124.11,67.51Z"/><path class="cls-2" d="M155.24,158.06H94.76a7.16,7.16,0,0,1-7.35-6.93V96.88A7.16,7.16,0,0,1,94.76,90h60.48a7.16,7.16,0,0,1,7.35,6.93v54.25A7.16,7.16,0,0,1,155.24,158.06ZM94.76,92.72a4.3,4.3,0,0,0-4.41,4.16v54.25a4.3,4.3,0,0,0,4.41,4.16h60.48a4.3,4.3,0,0,0,4.41-4.16V96.88a4.3,4.3,0,0,0-4.41-4.16Z"/></svg>