<svg id="Layer_1" data-name="Layer 1" xmlns="http://www.w3.org/2000/svg" viewBox="0 0 250 250"><defs><style>.cls-1{fill:#2999d6;}</style></defs><title>responsive structures</title><path class="cls-1" d="M59.53,25.58a4.5,4.5,0,1,0,4.5,4.5A4.51,4.51,0,0,0,59.53,25.58Z"/><path class="cls-1" d="M43.43,25.58a4.5,4.5,0,1,0,4.5,4.5A4.51,4.51,0,0,0,43.43,25.58Z"/><path class="cls-1" d="M28.24,25.58a4.5,4.5,0,1,0,4.5,4.5A4.51,4.51,0,0,0,28.24,25.58Z"/><path class="cls-1" d="M28.21,63.63a5.54,5.54,0,0,0-5.54,5.54v124a5.54,5.54,0,0,0,5.54,5.54H71.58a5.54,5.54,0,0,0,5.54-5.54v-124a5.54,5.54,0,0,0-5.54-5.54ZM74.9,69.17v124a3.33,3.33,0,0,1-3.32,3.32H28.21a3.33,3.33,0,0,1-3.32-3.32v-124a3.33,3.33,0,0,1,3.32-3.32H71.58A3.33,3.33,0,0,1,74.9,69.17Z"/><path class="cls-1" d="M71.58,201.68H28.21a8.48,8.48,0,0,1-8.48-8.48v-124a8.48,8.48,0,0,1,8.48-8.47H71.58a8.48,8.48,0,0,1,8.48,8.47v124A8.48,8.48,0,0,1,71.58,201.68ZM28.21,68.79a.39.39,0,0,0-.38.38v124a.39.39,0,0,0,.38.38H71.58a.39.39,0,0,0,.38-.38v-124a.39.39,0,0,0-.38-.38Z"/><path class="cls-1" d="M156.54,214.34H13.25a5.54,5.54,0,0,1-5.54-5.54V48.63H209.26V76.37h2.21V19.61a7.76,7.76,0,0,0-7.75-7.75H13.25A7.76,7.76,0,0,0,5.5,19.61V208.8a7.76,7.76,0,0,0,7.75,7.75H156.54ZM7.71,19.61a5.54,5.54,0,0,1,5.54-5.54H203.73a5.54,5.54,0,0,1,5.54,5.54V46.42H7.71Z"/><path class="cls-1" d="M159.48,219.49H13.25A10.7,10.7,0,0,1,2.56,208.8V19.61A10.7,10.7,0,0,1,13.25,8.92H203.72a10.7,10.7,0,0,1,10.69,10.69v59.7h-8.09V51.57H10.65V208.8a2.6,2.6,0,0,0,2.6,2.6H159.48ZM10.65,43.48H206.32V19.61a2.6,2.6,0,0,0-2.6-2.6H13.25a2.6,2.6,0,0,0-2.6,2.6Z"/><path class="cls-1" d="M93.63,136.72h62.91v-2.21H93.63a1.1,1.1,0,0,0,0,2.21Z"/><path class="cls-1" d="M159.48,139.66H93.63a4,4,0,1,1,0-8.08h65.85Z"/><path class="cls-1" d="M93.63,155.51h62.91v-2.21H93.63a1.1,1.1,0,0,0,0,2.21Z"/><path class="cls-1" d="M159.48,158.45H93.63a4,4,0,1,1,0-8.08h65.85Z"/><path class="cls-1" d="M93.63,176.46h62.91v-2.21H93.63a1.1,1.1,0,0,0,0,2.21Z"/><path class="cls-1" d="M159.48,179.4H93.63a4,4,0,1,1,0-8.08h65.85Z"/><path class="cls-1" d="M93.63,197.4h62.91V195.2H93.63a1.1,1.1,0,0,0,0,2.21Z"/><path class="cls-1" d="M159.48,200.34H93.63a4,4,0,1,1,0-8.08h65.85Z"/><path class="cls-1" d="M188.76,63.78H97.61a5.4,5.4,0,0,0-5.39,5.39v43.36a5.4,5.4,0,0,0,5.39,5.39h58.93V116H97.61a3.47,3.47,0,0,1-3.47-3.47V69.17a3.47,3.47,0,0,1,3.47-3.47h91.15a3.47,3.47,0,0,1,3.47,3.47v7.2h1.92v-7.2A5.4,5.4,0,0,0,188.76,63.78Z"/><path class="cls-1" d="M159.48,120.86H97.61a8.34,8.34,0,0,1-8.33-8.33V69.17a8.34,8.34,0,0,1,8.33-8.33h91.15a8.34,8.34,0,0,1,8.33,8.33V79.31h-7.8V69.17a.54.54,0,0,0-.53-.53H97.61a.54.54,0,0,0-.53.53v43.36a.54.54,0,0,0,.53.53h61.86Z"/><path class="cls-1" d="M236.75,238.14H163.18a7.76,7.76,0,0,1-7.75-7.75V83a7.76,7.76,0,0,1,7.75-7.75h73.56A7.76,7.76,0,0,1,244.5,83V230.39A7.76,7.76,0,0,1,236.75,238.14ZM163.18,77.48A5.54,5.54,0,0,0,157.65,83V230.39a5.54,5.54,0,0,0,5.54,5.54h73.56a5.54,5.54,0,0,0,5.54-5.54V83a5.54,5.54,0,0,0-5.54-5.54Z"/><path class="cls-1" d="M236.75,241.08H163.18a10.7,10.7,0,0,1-10.69-10.69V83a10.7,10.7,0,0,1,10.69-10.69h73.56A10.7,10.7,0,0,1,247.44,83V230.39A10.7,10.7,0,0,1,236.75,241.08ZM163.18,80.42a2.6,2.6,0,0,0-2.6,2.6V230.39a2.6,2.6,0,0,0,2.6,2.6h73.56a2.6,2.6,0,0,0,2.6-2.6V83a2.6,2.6,0,0,0-2.6-2.6Z"/><path class="cls-1" d="M227.61,217.61H174.43c-.6,0-1.09-.37-1.09-.82s.49-.82,1.09-.82h53.18c.6,0,1.09.37,1.09.82S228.21,217.61,227.61,217.61Z"/><path class="cls-1" d="M227.61,219.78H174.43c-2.21,0-4-1.35-4-3s1.79-3,4-3h53.18c2.21,0,4,1.35,4,3S229.82,219.78,227.61,219.78Z"/><path class="cls-1" d="M227.61,201H174.43c-.6,0-1.09-.37-1.09-.82s.49-.82,1.09-.82h53.18c.6,0,1.09.37,1.09.82S228.21,201,227.61,201Z"/><path class="cls-1" d="M227.61,203.15H174.43c-2.21,0-4-1.35-4-3s1.79-3,4-3h53.18c2.21,0,4,1.35,4,3S229.82,203.15,227.61,203.15Z"/><circle class="cls-1" cx="174.74" cy="93.03" r="1.83"/><path class="cls-1" d="M174.74,97a4,4,0,1,1,4-4A4,4,0,0,1,174.74,97Zm0-4.33a.33.33,0,1,0,.33.33A.34.34,0,0,0,174.74,92.7Z"/><circle class="cls-1" cx="186.53" cy="93.03" r="1.83"/><path class="cls-1" d="M186.53,97a4,4,0,1,1,4-4A4,4,0,0,1,186.53,97Zm0-4.33a.33.33,0,1,0,.33.33A.33.33,0,0,0,186.53,92.7Z"/><circle class="cls-1" cx="199.06" cy="93.03" r="1.83"/><path class="cls-1" d="M199.06,97a4,4,0,1,1,4-4A4,4,0,0,1,199.06,97Zm0-4.33a.33.33,0,1,0,.33.33A.34.34,0,0,0,199.06,92.7Z"/><rect class="cls-1" x="156.54" y="109.82" width="86.85" height="2.21"/><rect class="cls-1" x="153.6" y="106.88" width="92.73" height="8.09"/><path class="cls-1" d="M223,182.54H179.19a5.33,5.33,0,0,1-5.32-5.32v-41.7a5.33,5.33,0,0,1,5.32-5.32H223a5.33,5.33,0,0,1,5.32,5.32v41.7A5.33,5.33,0,0,1,223,182.54Zm-43.79-50.22a3.2,3.2,0,0,0-3.19,3.19v41.7a3.2,3.2,0,0,0,3.19,3.19H223a3.2,3.2,0,0,0,3.19-3.19v-41.7a3.2,3.2,0,0,0-3.19-3.19Z"/><path class="cls-1" d="M223,185.37H179.19a8.16,8.16,0,0,1-8.15-8.15v-41.7a8.16,8.16,0,0,1,8.15-8.15H223a8.16,8.16,0,0,1,8.15,8.15v41.7A8.16,8.16,0,0,1,223,185.37Zm-43.79-50.22a.37.37,0,0,0-.37.37v41.7a.37.37,0,0,0,.37.37H223a.37.37,0,0,0,.37-.37v-41.7a.37.37,0,0,0-.37-.37Z"/><path class="cls-1" d="M192,30.12H173.09a1.06,1.06,0,1,1,0-2.13H192a1.06,1.06,0,1,1,0,2.13Z"/><path class="cls-1" d="M192,32.55H173.09a3.5,3.5,0,0,1,0-7H192a3.5,3.5,0,1,1,0,7Z"/></svg>