<svg id="Layer_1" data-name="Layer 1" xmlns="http://www.w3.org/2000/svg" viewBox="0 0 240 240"><defs><style>.cls-1{fill:#2999d6;}.cls-2{fill:none;stroke:#2999d6;stroke-linecap:round;stroke-miterlimit:10;stroke-width:11.66px;}</style></defs><title>smart menu</title><path class="cls-1" d="M227.4,235.42H12.6a8.75,8.75,0,0,1-8.74-8.74V13.32A8.75,8.75,0,0,1,12.6,4.58H227.4a8.75,8.75,0,0,1,8.74,8.74V226.68A8.75,8.75,0,0,1,227.4,235.42ZM12.6,7.08a6.25,6.25,0,0,0-6.24,6.24V226.68a6.25,6.25,0,0,0,6.24,6.24H227.4a6.25,6.25,0,0,0,6.24-6.24V13.32a6.25,6.25,0,0,0-6.24-6.24Z"/><path class="cls-1" d="M227.4,238.28H12.6A11.61,11.61,0,0,1,1,226.68V13.32A11.61,11.61,0,0,1,12.6,1.72H227.4A11.61,11.61,0,0,1,239,13.32V226.68A11.61,11.61,0,0,1,227.4,238.28ZM12.6,9.93a3.39,3.39,0,0,0-3.39,3.39V226.68a3.39,3.39,0,0,0,3.39,3.39H227.4a3.39,3.39,0,0,0,3.39-3.39V13.32a3.39,3.39,0,0,0-3.39-3.39Z"/><path class="cls-1" d="M212.87,27.78H194.52a1,1,0,0,1,0-2.07h18.35a1,1,0,1,1,0,2.07Z"/><path class="cls-1" d="M212.87,30.15H194.52a3.4,3.4,0,0,1,0-6.8h18.35a3.4,3.4,0,0,1,0,6.8Z"/><rect class="cls-1" x="5.1" y="43.55" width="229.79" height="2.5"/><rect class="cls-1" x="2.25" y="40.69" width="235.5" height="8.21"/><path class="cls-1" d="M56.37,23.37a4.37,4.37,0,1,0,4.37,4.37A4.38,4.38,0,0,0,56.37,23.37Z"/><path class="cls-1" d="M40.72,23.37a4.37,4.37,0,1,0,4.37,4.37A4.38,4.38,0,0,0,40.72,23.37Z"/><path class="cls-1" d="M26,23.37a4.37,4.37,0,1,0,4.37,4.37A4.38,4.38,0,0,0,26,23.37Z"/><path class="cls-1" d="M59.71,76.55a7.09,7.09,0,1,0,7.09,7.09A7.09,7.09,0,0,0,59.71,76.55Z"/><line class="cls-2" x1="86.13" y1="83.63" x2="187.38" y2="83.63"/><path class="cls-1" d="M59.71,110.5a7.09,7.09,0,1,0,7.09,7.09A7.09,7.09,0,0,0,59.71,110.5Z"/><line class="cls-2" x1="86.13" y1="117.58" x2="187.38" y2="117.58"/><path class="cls-1" d="M59.71,147.5a7.09,7.09,0,1,0,7.09,7.09A7.09,7.09,0,0,0,59.71,147.5Z"/><line class="cls-2" x1="86.13" y1="154.58" x2="187.38" y2="154.58"/><path class="cls-1" d="M59.71,184.5a7.09,7.09,0,1,0,7.09,7.09A7.09,7.09,0,0,0,59.71,184.5Z"/><line class="cls-2" x1="86.13" y1="191.58" x2="187.38" y2="191.58"/></svg>