<svg xmlns="http://www.w3.org/2000/svg" xmlns:xlink="http://www.w3.org/1999/xlink" id="Layer_1" x="0px" y="0px" viewBox="0 0 18 7" style="enable-background:new 0 0 18 7;" xml:space="preserve"> <style type="text/css"> .st0{fill:url(#SVGID_1_);} </style> <g> <g> <linearGradient id="SVGID_1_" gradientUnits="userSpaceOnUse" x1="9" y1="3.242164e-05" x2="9" y2="7.0014"> <stop offset="0" style="stop-color:#4449B6"></stop> <stop offset="1" style="stop-color:#837CDF"></stop> </linearGradient> <path class="st0" d="M3.7,0C1.7,0,0,1.5,0,3.5C0,5.5,1.7,7,3.7,7c2.1,0,3.7-1.5,3.7-3.5C7.5,1.5,5.8,0,3.7,0z M14.3,0 c-2.1,0-3.7,1.5-3.7,3.5c0,2,1.7,3.5,3.7,3.5C16.3,7,18,5.5,18,3.5C18,1.5,16.3,0,14.3,0z M14.3,4.9c-0.9,0-1.5-0.6-1.5-1.4 c0-0.8,0.6-1.4,1.5-1.4c0.8,0,1.5,0.6,1.5,1.4C15.8,4.3,15.1,4.9,14.3,4.9z"></path> </g> </g> </svg>