<?xml version="1.0" encoding="UTF-8"?>
<!-- Generator: Adobe Illustrator 19.2.1, SVG Export Plug-In . SVG Version: 6.00 Build 0)  -->
<svg version="1.1" id="Layer_1" xmlns="http://www.w3.org/2000/svg" xmlns:xlink="http://www.w3.org/1999/xlink" x="0px" y="0px" viewBox="0 0 34 34" style="enable-background:new 0 0 34 34;" xml:space="preserve">
<style type="text/css">
	.st0{fill-rule:evenodd;clip-rule:evenodd;fill:url(#SVGID_1_);}
	.st1{fill:url(#SVGID_2_);}
	.st2{fill:#FFFFFF;}
	.st3{fill:url(#SVGID_3_);}
	.st4{fill:url(#SVGID_4_);}
</style>
<linearGradient id="SVGID_1_" gradientUnits="userSpaceOnUse" x1="12.5" y1="29" x2="12.5" y2="3.9999">
	<stop offset="0" style="stop-color:#C0CDDD"/>
	<stop offset="1" style="stop-color:#8899AE"/>
</linearGradient>
<path class="st0" d="M22,29H3c-1.7,0-3-1.3-3-3V7c0-1.7,1.3-3,3-3h19c1.7,0,3,1.3,3,3v19C25,27.7,23.7,29,22,29z M4,22h12v-2H4V22z   M4,14h12v-2H4V14z M20,8H4v2h16V8z M20,16H4v2h16V16z"/>
<g>
	<g>
		<linearGradient id="SVGID_2_" gradientUnits="userSpaceOnUse" x1="30.1045" y1="20.7705" x2="30.1045" y2="12.9756">
			<stop offset="0" style="stop-color:#C0CDDD"/>
			<stop offset="1" style="stop-color:#8899AE"/>
		</linearGradient>
		<path class="st1" d="M30.6,20.8c-0.4,0-0.8-0.2-1.1-0.4l-2.9-2.9c-0.6-0.6-0.6-1.5,0-2.1l1.7-1.7c0.4-0.4,0.9-0.6,1.5-0.6    c0.6,0,1.1,0.2,1.5,0.6l2,2c0.8,0.8,0.8,2.2,0,3l-1.7,1.7C31.4,20.6,31,20.8,30.6,20.8z"/>
		<path class="st2" d="M29.9,14c0.3,0,0.6,0.1,0.8,0.3l2,2c0.5,0.5,0.5,1.2,0,1.6L31,19.6c-0.1,0.1-0.2,0.2-0.4,0.2    c-0.1,0-0.3-0.1-0.4-0.2l-2.9-2.9c-0.2-0.2-0.2-0.5,0-0.7l1.7-1.7C29.3,14.1,29.6,14,29.9,14 M29.9,12c-0.8,0-1.6,0.3-2.2,0.9    l-1.7,1.7c-1,1-1,2.6,0,3.5l2.9,2.9c0.5,0.5,1.1,0.7,1.8,0.7c0.7,0,1.3-0.3,1.8-0.7l1.7-1.7c1.2-1.2,1.2-3.2,0-4.5l-2-2    C31.5,12.3,30.7,12,29.9,12L29.9,12z"/>
	</g>
	<g>
		<linearGradient id="SVGID_3_" gradientUnits="userSpaceOnUse" x1="25.123" y1="27.5234" x2="25.123" y2="16.2061">
			<stop offset="0" style="stop-color:#C0CDDD"/>
			<stop offset="1" style="stop-color:#8899AE"/>
		</linearGradient>
		<path class="st3" d="M23.9,27.5c-0.4,0-0.8-0.2-1.1-0.4l-2.9-2.9c-0.6-0.6-0.6-1.5,0-2.1l5.4-5.4c0.3-0.3,0.7-0.4,1.1-0.4    c0.4,0,0.8,0.2,1.1,0.4l2.9,2.9c0.3,0.3,0.4,0.7,0.4,1.1s-0.2,0.8-0.4,1.1l-5.4,5.4C24.6,27.4,24.3,27.5,23.9,27.5z"/>
		<path class="st2" d="M26.4,17.2c0.1,0,0.3,0.1,0.4,0.2l2.9,2.9c0.2,0.2,0.2,0.5,0,0.7l-5.4,5.4c-0.1,0.1-0.2,0.2-0.4,0.2    s-0.3-0.1-0.4-0.2l-2.9-2.9c-0.2-0.2-0.2-0.5,0-0.7l5.4-5.4C26.1,17.3,26.3,17.2,26.4,17.2 M26.4,15.2c-0.7,0-1.3,0.3-1.8,0.7    l-5.4,5.4c-1,1-1,2.6,0,3.6l2.9,2.9c0.5,0.5,1.1,0.7,1.8,0.7c0.7,0,1.3-0.3,1.8-0.7l5.4-5.4c1-1,1-2.6,0-3.6l-2.9-2.9    C27.7,15.5,27.1,15.2,26.4,15.2L26.4,15.2z"/>
	</g>
	<g>
		<linearGradient id="SVGID_4_" gradientUnits="userSpaceOnUse" x1="20.4619" y1="30" x2="20.4619" y2="23.0693">
			<stop offset="0" style="stop-color:#C0CDDD"/>
			<stop offset="1" style="stop-color:#8899AE"/>
		</linearGradient>
		<path class="st4" d="M18.4,30c-0.4,0-0.7-0.1-1-0.4c-0.3-0.3-0.5-0.8-0.4-1.3l0-0.1l1.5-4.3c0.1-0.2,0.2-0.3,0.3-0.4    c0.3-0.3,0.6-0.4,1-0.4c0.4,0,0.7,0.1,1,0.4l2.7,2.7c0.5,0.5,0.5,1.4,0,2c-0.1,0.1-0.3,0.2-0.4,0.3l0,0l-4.2,1.5l-0.1,0    C18.6,30,18.5,30,18.4,30z"/>
		<path class="st2" d="M19.8,24.1c0.1,0,0.2,0,0.3,0.1l2.7,2.7c0.2,0.2,0.2,0.4,0,0.5c0,0-0.1,0.1-0.1,0.1l-0.1,0L18.5,29l-0.1,0    c0,0-0.1,0-0.1,0c-0.1,0-0.2,0-0.3-0.1C18,28.8,18,28.7,18,28.5l0-0.1l1.4-4.1l0-0.1c0,0,0-0.1,0.1-0.1    C19.6,24.1,19.7,24.1,19.8,24.1 M19.8,22.1c-0.6,0-1.2,0.2-1.7,0.7c-0.2,0.2-0.4,0.4-0.5,0.7l0,0.1l0,0.1l0,0.1l-1.4,4.1l0,0.1    l0,0.1l0,0.1c-0.2,0.8,0.1,1.6,0.6,2.2c0.5,0.5,1.1,0.7,1.7,0.7c0.2,0,0.4,0,0.5-0.1l0.1,0l0.1,0l0.1,0l4.1-1.4l0.1,0l0.1,0l0.1,0    c0.3-0.1,0.5-0.3,0.7-0.5c0.9-0.9,0.9-2.4,0-3.4l-2.7-2.7C21,22.3,20.4,22.1,19.8,22.1L19.8,22.1z"/>
	</g>
</g>
</svg>