<?xml version="1.0" encoding="UTF-8"?>
<!-- Generator: Adobe Illustrator 19.2.1, SVG Export Plug-In . SVG Version: 6.00 Build 0)  -->
<svg version="1.1" id="Layer_1" xmlns="http://www.w3.org/2000/svg" xmlns:xlink="http://www.w3.org/1999/xlink" x="0px" y="0px" viewBox="0 0 34 34" style="enable-background:new 0 0 34 34;" xml:space="preserve">
<style type="text/css">
	.st0{fill:url(#SVGID_1_);}
</style>
<g>
	<g>
		<linearGradient id="SVGID_1_" gradientUnits="userSpaceOnUse" x1="17" y1="30" x2="17" y2="4">
			<stop offset="0" style="stop-color:#41BEED"/>
			<stop offset="1" style="stop-color:#3064B6"/>
		</linearGradient>
		<path class="st0" d="M14,16h-4v4h4V16z M26,7h-1V4h-3v3H12V4H9l0,3H7.9C6.3,7,5,8.4,5,9.9l0,17.3C5,28.7,7.3,30,8.9,30h17.1    c1.6,0,2.9-1.3,2.9-2.8V9.9C29,8.4,27.6,7,26,7z M26,27H8V13h18V27z M19,16h-4v4h4V16z M24,16h-4v4h4V16z"/>
	</g>
</g>
</svg>