<svg xmlns="http://www.w3.org/2000/svg" xmlns:xlink="http://www.w3.org/1999/xlink" id="Layer_1" x="0px" y="0px" viewBox="0 0 18 14" style="enable-background:new 0 0 18 14;" xml:space="preserve"> <style type="text/css"> .st0{fill-rule:evenodd;clip-rule:evenodd;fill:url(#SVGID_1_);} </style> <linearGradient id="SVGID_1_" gradientUnits="userSpaceOnUse" x1="9" y1="-3.137757e-10" x2="9" y2="14"> <stop offset="0" style="stop-color:#48B7E9"></stop> <stop offset="1" style="stop-color:#B8F6C6"></stop> </linearGradient> <path class="st0" d="M16,14H2c-1.1,0-2-0.9-2-2V6h18v6C18,13.1,17.1,14,16,14z M8,9H3c-0.6,0-1,0.4-1,1s0.4,1,1,1h5c0.6,0,1-0.4,1-1 S8.6,9,8,9z M0,2c0-1.1,0.9-2,2-2h14c1.1,0,2,0.9,2,2v2H0V2z"></path> </svg>