<svg xmlns="http://www.w3.org/2000/svg" xmlns:xlink="http://www.w3.org/1999/xlink" id="Layer_1" x="0px" y="0px" viewBox="0 0 19 13" style="enable-background:new 0 0 19 13;" xml:space="preserve"> <style type="text/css"> .st0{fill:url(#SVGID_1_);} </style> <g id="icon"> <g> <linearGradient id="SVGID_1_" gradientUnits="userSpaceOnUse" x1="9.5" y1="3.284462e-05" x2="9.5" y2="13"> <stop offset="0" style="stop-color:#2D5BC1"></stop> <stop offset="1" style="stop-color:#2EA9D9"></stop> </linearGradient> <path class="st0" d="M0,0v1.2c0,1.1,0.8,1.9,1.8,1.9h15.4c1,0,1.8-0.8,1.8-1.9V0H0z M3,6.8C3,7.9,3.8,8,4.8,8h9.4 c1,0,1.8-0.2,1.8-1.2V5H3V6.8z M6,11.1C6,12.2,6.8,13,7.8,13h3.4c1,0,1.8-0.8,1.8-1.9V9.9H6V11.1z"></path> </g> </g> </svg>