<svg xmlns="http://www.w3.org/2000/svg" xmlns:xlink="http://www.w3.org/1999/xlink" id="Layer_1" x="0px" y="0px" viewBox="0 0 26 26" style="enable-background:new 0 0 26 26;" xml:space="preserve"> <style type="text/css"> .st0{fill:#BBEAD4;} .st1{fill:#A6E4DD;} .st2{fill-rule:evenodd;clip-rule:evenodd;fill:#56CAD8;} .st3{fill-rule:evenodd;clip-rule:evenodd;fill:#8DDCD3;} </style> <g> <path class="st0" d="M2.3,19.5c-0.4,0-0.7-0.2-0.9-0.5C0.5,17.1,0,15.1,0,13C0,5.8,5.8,0,13,0c3.2,0,6.3,1.2,8.7,3.4 c0.4,0.4,0.4,1,0.1,1.4c-0.4,0.4-1,0.4-1.4,0.1C18.4,3,15.7,2,13,2C6.9,2,2,6.9,2,13c0,1.8,0.4,3.5,1.2,5c0.3,0.5,0.1,1.1-0.4,1.3 C2.6,19.5,2.5,19.5,2.3,19.5z"></path> </g> <g> <path class="st1" d="M13,26c-0.1,0-0.1,0-0.2,0c-3.2,0-6.3-1.3-8.7-3.5c-0.4-0.4-0.4-1,0-1.4c0.4-0.4,1-0.4,1.4,0 c2,1.9,4.6,2.9,7.4,3C18.9,24,24,19.2,24,13.1c0-1.7-0.3-3.3-1-4.8c-0.2-0.5,0-1.1,0.5-1.3c0.5-0.2,1.1,0,1.3,0.5 c0.8,1.8,1.2,3.7,1.2,5.7C25.9,20.3,20.1,26,13,26z"></path> </g> <path class="st2" d="M4.5,19.9c0.8,0,1.5,0.7,1.5,1.5s-0.7,1.5-1.5,1.5S3,22.2,3,21.4S3.6,19.9,4.5,19.9z"></path> <path class="st3" d="M21.8,3.3c0.8,0,1.5,0.7,1.5,1.5s-0.7,1.5-1.5,1.5s-1.5-0.7-1.5-1.5S21,3.3,21.8,3.3z"></path> <g> <path class="st0" d="M18,18.3c-0.2,0-0.5-0.1-0.7-0.2c-0.4-0.4-0.5-1-0.1-1.4c0.8-0.9,1.2-1.9,1.4-3.1c0.3-3.1-1.9-5.9-5-6.2 c-0.7-0.1-1.4,0-2,0.1c-0.5,0.1-1.1-0.2-1.2-0.7c-0.1-0.5,0.2-1.1,0.7-1.2c0.9-0.2,1.8-0.3,2.7-0.2c4.2,0.5,7.2,4.3,6.8,8.5 c-0.2,1.6-0.8,3-1.8,4.2C18.6,18.2,18.3,18.3,18,18.3z"></path> </g> <g> <path class="st1" d="M13,20.6c-0.3,0-0.6,0-0.9-0.1C7.9,20,4.9,16.2,5.4,12c0.2-1.7,0.9-3.2,2.1-4.4c0.4-0.4,1-0.4,1.4,0 c0.4,0.4,0.4,1,0,1.4c-0.9,0.9-1.4,2-1.6,3.3c-0.4,3.1,1.8,5.9,4.9,6.3c0.7,0.1,1.4,0,2.1-0.1c0.5-0.1,1.1,0.2,1.2,0.7 c0.1,0.5-0.2,1.1-0.7,1.2C14.3,20.5,13.7,20.6,13,20.6z"></path> </g> <path class="st3" d="M18,15.8c0.8,0,1.5,0.7,1.5,1.5s-0.7,1.5-1.5,1.5c-0.8,0-1.5-0.7-1.5-1.5S17.2,15.8,18,15.8z"></path> <path class="st2" d="M8.2,6.9c0.8,0,1.5,0.7,1.5,1.5c0,0.8-0.7,1.5-1.5,1.5c-0.8,0-1.5-0.7-1.5-1.5C6.7,7.5,7.3,6.9,8.2,6.9z"></path> </svg>