<svg xmlns="http://www.w3.org/2000/svg" xmlns:xlink="http://www.w3.org/1999/xlink" width="28px" height="25px"> <defs> <linearGradient id="PSgrad_0" x1="0%" x2="35.837%" y1="0%" y2="93.358%"> <stop offset="0%" stop-color="rgb(47,99,183)" stop-opacity="1"/> <stop offset="100%" stop-color="rgb(65,190,237)" stop-opacity="1"/> </linearGradient> </defs> <path fill-rule="evenodd" fill-opacity="0" fill="rgb(130, 143, 159)" d="M3.000,10.000 L22.000,10.000 C23.657,10.000 25.000,11.343 25.000,13.000 L25.000,22.000 C25.000,23.657 23.657,25.000 22.000,25.000 L3.000,25.000 C1.343,25.000 -0.000,23.657 -0.000,22.000 L-0.000,13.000 C-0.000,11.343 1.343,10.000 3.000,10.000 Z"/> <path fill="url(#PSgrad_0)" d="M3.000,10.000 L22.000,10.000 C23.657,10.000 25.000,11.343 25.000,13.000 L25.000,22.000 C25.000,23.657 23.657,25.000 22.000,25.000 L3.000,25.000 C1.343,25.000 -0.000,23.657 -0.000,22.000 L-0.000,13.000 C-0.000,11.343 1.343,10.000 3.000,10.000 Z"/> <path fill-rule="evenodd" fill-opacity="0" fill="rgb(71, 73, 90)" d="M9.000,-0.000 L25.000,-0.000 C26.657,-0.000 28.000,1.343 28.000,3.000 L28.000,22.000 C28.000,23.657 26.657,25.000 25.000,25.000 L9.000,25.000 C7.343,25.000 6.000,23.657 6.000,22.000 L6.000,3.000 C6.000,1.343 7.343,-0.000 9.000,-0.000 Z"/> <path fill="url(#PSgrad_0)" d="M9.000,-0.000 L25.000,-0.000 C26.657,-0.000 28.000,1.343 28.000,3.000 L28.000,22.000 C28.000,23.657 26.657,25.000 25.000,25.000 L9.000,25.000 C7.343,25.000 6.000,23.657 6.000,22.000 L6.000,3.000 C6.000,1.343 7.343,-0.000 9.000,-0.000 Z"/> <path fill-rule="evenodd" fill="rgb(255, 255, 255)" d="M10.000,17.000 L10.000,15.000 L25.000,15.000 L25.000,17.000 L10.000,17.000 ZM21.000,21.000 L10.000,21.000 L10.000,19.000 L21.000,19.000 L21.000,21.000 Z"/> <path fill-rule="evenodd" fill="rgb(255, 255, 255)" d="M11.000,4.000 L23.000,4.000 C23.552,4.000 24.000,4.448 24.000,5.000 L24.000,11.000 C24.000,11.552 23.552,12.000 23.000,12.000 L11.000,12.000 C10.448,12.000 10.000,11.552 10.000,11.000 L10.000,5.000 C10.000,4.448 10.448,4.000 11.000,4.000 Z"/> </svg>