<?xml version="1.0" encoding="UTF-8"?>
<!-- Generator: Adobe Illustrator 19.2.1, SVG Export Plug-In . SVG Version: 6.00 Build 0)  -->
<svg version="1.1" id="Layer_1" xmlns="http://www.w3.org/2000/svg" xmlns:xlink="http://www.w3.org/1999/xlink" x="0px" y="0px" viewBox="0 0 34 34" style="enable-background:new 0 0 34 34;" xml:space="preserve">
<style type="text/css">
	.st0{fill-rule:evenodd;clip-rule:evenodd;fill:url(#SVGID_1_);}
	.st1{fill-rule:evenodd;clip-rule:evenodd;fill:url(#SVGID_2_);}
	.st2{fill-rule:evenodd;clip-rule:evenodd;fill:#FFFFFF;}
</style>
<linearGradient id="SVGID_1_" gradientUnits="userSpaceOnUse" x1="15.5" y1="30" x2="15.5" y2="15.0001">
	<stop offset="0" style="stop-color:#F3AFF7"/>
	<stop offset="1" style="stop-color:#8776FA"/>
</linearGradient>
<path class="st0" d="M6,15h19c1.7,0,3,1.3,3,3v9c0,1.7-1.3,3-3,3H6c-1.7,0-3-1.3-3-3v-9C3,16.3,4.3,15,6,15z"/>
<linearGradient id="SVGID_2_" gradientUnits="userSpaceOnUse" x1="20" y1="30" x2="20" y2="4.9999">
	<stop offset="0" style="stop-color:#F3AFF7"/>
	<stop offset="1" style="stop-color:#8776FA"/>
</linearGradient>
<path class="st1" d="M12,5h16c1.7,0,3,1.3,3,3v19c0,1.7-1.3,3-3,3H12c-1.7,0-3-1.3-3-3V8C9,6.3,10.3,5,12,5z"/>
<path class="st2" d="M13,20h15v2H13V20z"/>
<path class="st2" d="M13,24h11v2H13V24z"/>
<path class="st2" d="M14,9h12c0.6,0,1,0.4,1,1v6c0,0.6-0.4,1-1,1H14c-0.6,0-1-0.4-1-1v-6C13,9.4,13.4,9,14,9z"/>
</svg>