<svg xmlns="http://www.w3.org/2000/svg" xmlns:xlink="http://www.w3.org/1999/xlink" id="Layer_1" x="0px" y="0px" viewBox="0 0 19 21" style="enable-background:new 0 0 19 21;" xml:space="preserve"> <style type="text/css"> .st0{fill:url(#SVGID_1_);} </style> <linearGradient id="SVGID_1_" gradientUnits="userSpaceOnUse" x1="9.5" y1="0" x2="9.5" y2="21"> <stop offset="0" style="stop-color:#2D5BC1"></stop> <stop offset="1" style="stop-color:#2EA9D9"></stop> </linearGradient> <path class="st0" d="M19,9.6C19,19.8,9,21,9,21L9,18.4c-5-0.3-9-4.3-9-9.2C0,4.1,4.3,0,9.5,0S19,4.1,19,9.2C19,9.3,19,9.4,19,9.6 L19,9.6z M5.4,7.9c-0.7,0-1.4,0.6-1.4,1.3s0.6,1.3,1.4,1.3c0.7,0,1.4-0.6,1.4-1.3S6.2,7.9,5.4,7.9z M9.5,7.9c-0.7,0-1.4,0.6-1.4,1.3 s0.6,1.3,1.4,1.3c0.7,0,1.4-0.6,1.4-1.3S10.2,7.9,9.5,7.9z M13.6,7.9c-0.7,0-1.4,0.6-1.4,1.3s0.6,1.3,1.4,1.3c0.7,0,1.4-0.6,1.4-1.3 S14.3,7.9,13.6,7.9z"></path> </svg>