<svg xmlns="http://www.w3.org/2000/svg" xmlns:xlink="http://www.w3.org/1999/xlink" width="34" height="34" viewBox="0 0 34 34"> <metadata> <?xpacket begin="﻿" id="W5M0MpCehiHzreSzNTczkc9d"?> <?xpacket end="w"?> </metadata> <defs> <style> .cls-1 { fill: #414141; fill-rule: evenodd; filter: url(#filter); } </style> <filter id="filter" x="1197" y="1853" width="34" height="34" filterUnits="userSpaceOnUse"> <feComposite operator="in" in2="SourceGraphic"></feComposite> <feBlend in2="SourceGraphic"></feBlend> </filter> </defs> <path id="_-e-platform_icon" class="cls-1" d="M1214,1859.97a1,1,0,1,1-1,1A1,1,0,0,1,1214,1859.97Zm0,17.97a1,1,0,1,1-1,1A1,1,0,0,1,1214,1877.94Zm9-9a1,1,0,1,1-1,1A1,1,0,0,1,1223,1868.94Zm-18,0a1,1,0,1,1-1,1A1,1,0,0,1,1205,1868.94Zm16,6a1,1,0,1,1-1,1A1,1,0,0,1,1221,1874.94Zm-14,0a1,1,0,1,1-1,1A1,1,0,0,1,1207,1874.94Zm1-11.97a1,1,0,1,1-1,1A1,1,0,0,1,1208,1862.97Zm12,0a1,1,0,1,0,1,1A1,1,0,0,0,1220,1862.97Zm-6,2.03a5,5,0,1,1-5,5A5,5,0,0,1,1214,1865Zm0,2a3,3,0,1,1-3,3A3,3,0,0,1,1214,1867Zm0-14a2,2,0,1,1-2,2A2.006,2.006,0,0,1,1214,1853Zm10,5a2,2,0,1,1-2,2A2.006,2.006,0,0,1,1224,1858Zm5,10a2,2,0,1,1-2,2A2.006,2.006,0,0,1,1229,1868Zm-4,10a2,2,0,1,1-2,2A2.006,2.006,0,0,1,1225,1878Zm-11,5a2,2,0,1,1-2,2A2.006,2.006,0,0,1,1214,1883Zm-11-5a2,2,0,1,1-2,2A2.006,2.006,0,0,1,1203,1878Zm-4-10a2,2,0,1,1-2,2A2.006,2.006,0,0,1,1199,1868Zm5-10a2,2,0,1,1-2,2A2.006,2.006,0,0,1,1204,1858Z" transform="translate(-1197 -1853)"></path> </svg>