<svg id="Layer_1" data-name="Layer 1" xmlns="http://www.w3.org/2000/svg" viewBox="0 0 250 250"><defs><style>.cls-1{fill:#2999d6;}</style></defs><title>CC web icons final blue 5pt</title><path class="cls-1" d="M234.09,4.62H15.67A11.8,11.8,0,0,0,3.88,16.41v217a11.8,11.8,0,0,0,11.79,11.79H234.09a11.8,11.8,0,0,0,11.79-11.79v-217A11.8,11.8,0,0,0,234.09,4.62Zm0,232.19H15.67a3.45,3.45,0,0,1-3.45-3.45V203.7H237.54v29.65A3.45,3.45,0,0,1,234.09,236.81ZM15.67,13H234.09a3.45,3.45,0,0,1,3.45,3.45V44.25H12.22V16.41A3.45,3.45,0,0,1,15.67,13ZM12.22,195.36V52.58H237.54V195.36Z"/><rect class="cls-1" x="110.89" y="207.96" width="27.99" height="8.34" rx="2.9" ry="2.9"/><rect class="cls-1" x="110.89" y="222.56" width="27.99" height="8.34" rx="2.9" ry="2.9"/><rect class="cls-1" x="48.66" y="207.96" width="27.99" height="8.34" rx="2.9" ry="2.9"/><rect class="cls-1" x="48.66" y="222.56" width="27.99" height="8.34" rx="2.9" ry="2.9"/><rect class="cls-1" x="173.11" y="207.96" width="27.99" height="8.34" rx="2.9" ry="2.9"/><rect class="cls-1" x="173.11" y="222.56" width="27.99" height="8.34" rx="2.9" ry="2.9"/><path class="cls-1" d="M33.45,39.43a9.87,9.87,0,1,0-9.87-9.87A9.88,9.88,0,0,0,33.45,39.43Zm0-8.34A1.53,1.53,0,1,1,35,29.56,1.53,1.53,0,0,1,33.45,31.09Z"/><path class="cls-1" d="M55.42,39.43a9.87,9.87,0,1,0-9.87-9.87A9.88,9.88,0,0,0,55.42,39.43Zm0-8.34A1.53,1.53,0,1,1,57,29.56,1.53,1.53,0,0,1,55.42,31.09Z"/><path class="cls-1" d="M77.39,39.43a9.87,9.87,0,1,0-9.87-9.87A9.88,9.88,0,0,0,77.39,39.43Zm0-8.34a1.53,1.53,0,1,1,1.53-1.53A1.53,1.53,0,0,1,77.39,31.09Z"/><path class="cls-1" d="M37.68,122.14,56.5,103.33a2.9,2.9,0,0,0,0-4.1l-1.8-1.8a3,3,0,0,0-4.1,0L27.94,120.09a2.9,2.9,0,0,0,0,4.1L50.75,147a2.9,2.9,0,0,0,4.1,0l1.8-1.8a2.9,2.9,0,0,0,0-4.1Z"/><path class="cls-1" d="M221.82,120.24,199,97.43a3,3,0,0,0-4.1,0l-1.8,1.8a2.9,2.9,0,0,0,0,4.1l19,19L193.27,141.1a2.9,2.9,0,0,0,0,4.1l1.8,1.8a2.9,2.9,0,0,0,4.1,0l22.66-22.66A2.9,2.9,0,0,0,221.82,120.24Z"/></svg>