<svg id="Layer_1" data-name="Layer 1" xmlns="http://www.w3.org/2000/svg" viewBox="0 0 250 250"><defs><style>.cls-1{fill:#2999d6;}</style></defs><title>CC web icons final blue 5pt</title><path class="cls-1" d="M125,244.5c-64.35,0-110.77-9.86-111.23-10a6.68,6.68,0,0,1-5.28-6.86c2.48-52,34.88-68.19,59-75.82a80.79,80.79,0,0,0,23.92-12A95.8,95.8,0,0,1,71,107.82l-.35-.21c-2-1.22-3.38-2.1-4.38-3.87-7.05-12.49-8.87-22.59-5.39-30A16,16,0,0,1,66.74,67a101.91,101.91,0,0,1,3-24.26C69.82,42.33,80.42,5.5,125,5.5s55.18,36.8,55.28,37.18a101.88,101.88,0,0,1,3,24.3,16.1,16.1,0,0,1,5.83,6.75c3.47,7.44,1.66,17.55-5.39,30-1,1.78-2.5,2.7-4.39,3.87l-.33.2a96.06,96.06,0,0,1-20.41,32.06,81.26,81.26,0,0,0,23.9,12c24.16,7.62,56.56,23.77,59,75.82a6.69,6.69,0,0,1-5.28,6.86C235.77,234.64,189.35,244.5,125,244.5ZM125,8.18c-42.46,0-52.6,34.87-52.7,35.23a100.08,100.08,0,0,0-2.88,24.32v.76l-.66.39a13.41,13.41,0,0,0-5.42,6c-3.09,6.61-1.31,15.88,5.29,27.57.66,1.17,1.72,1.83,3.47,2.91l1.15.69.16.47c3,8.66,10.8,22.55,21,32.57l1.09,1.07-1.19.94a82.21,82.21,0,0,1-26,13.33c-23.4,7.38-54.77,23-57.17,73.39a4,4,0,0,0,3.17,4.12c.46.1,46.59,9.9,110.66,9.9s110.21-9.8,110.67-9.9a4,4,0,0,0,3.17-4.12c-2.4-50.37-33.78-66-57.18-73.39a82.73,82.73,0,0,1-26-13.34l-1.2-.94,1.09-1.07a92.41,92.41,0,0,0,21-32.56l.15-.45,1.13-.7c1.91-1.18,2.85-1.79,3.48-2.92,6.61-11.68,8.39-21,5.3-27.57a13.47,13.47,0,0,0-5.42-6l-.66-.39v-.76a100,100,0,0,0-2.89-24.35C177.6,43,167.43,8.18,125,8.18Z"/><path class="cls-1" d="M125,247.5c-64.8,0-111.4-9.93-111.86-10a9.67,9.67,0,0,1-7.64-9.94C8.06,173.62,41.61,156.89,66.63,149a80.8,80.8,0,0,0,20.27-9.56,99.87,99.87,0,0,1-18.33-29.6,12.72,12.72,0,0,1-4.88-4.6c-7.56-13.39-9.41-24.42-5.5-32.78a19,19,0,0,1,5.57-7,104,104,0,0,1,3-23.48C66.92,41.54,78,2.5,125,2.5c46.55,0,58.06,39,58.17,39.36a104.07,104.07,0,0,1,3.07,23.56,19.08,19.08,0,0,1,5.57,7c3.91,8.38,2.06,19.41-5.5,32.77a12.84,12.84,0,0,1-4.88,4.61,100.13,100.13,0,0,1-18.32,29.58A80.84,80.84,0,0,0,183.37,149c25,7.89,58.57,24.62,61.14,78.53a9.68,9.68,0,0,1-7.64,9.94C236.4,237.57,189.71,247.5,125,247.5Zm0-236.32c-16.61,0-30,5.47-39.79,16.25a47.59,47.59,0,0,0-10,16.79,96.91,96.91,0,0,0-2.77,23.51V70.2l-2.14,1.26a10.46,10.46,0,0,0-4.22,4.67c-2.66,5.68-.91,14,5.19,24.83.27.48,1,.93,2.42,1.83L75.74,104l.51,1.52c2.84,8.32,10.4,21.71,20.26,31.38l3.52,3.45-3.87,3.05a85.29,85.29,0,0,1-26.93,13.84c-22.54,7.11-52.77,22.17-55.08,70.67a1,1,0,0,0,.8,1c.46.1,46.35,9.83,110,9.83s109.58-9.73,110-9.83a1,1,0,0,0,.81-1c-2.31-48.5-32.54-63.56-55.08-70.67a85.83,85.83,0,0,1-26.91-13.84L150,140.38l3.52-3.46a89.12,89.12,0,0,0,20.27-31.39l.49-1.46,2-1.27c1.68-1,2.2-1.4,2.45-1.84,6.1-10.79,7.85-19.14,5.19-24.83a10.51,10.51,0,0,0-4.23-4.67l-2.13-1.25V67.72a96.93,96.93,0,0,0-2.79-23.58C174.42,42.85,164.82,11.18,125,11.18Z"/></svg>