<svg id="Layer_1" data-name="Layer 1" xmlns="http://www.w3.org/2000/svg" viewBox="0 0 250 250"><defs><style>.cls-1{fill:#2999d6;}</style></defs><title>CC web icons final blue 5pt</title><path class="cls-1" d="M235.51,243.76h-221a9,9,0,0,1-9-9V15.24a9,9,0,0,1,9-9h221a9,9,0,0,1,9,9V234.76A9,9,0,0,1,235.51,243.76ZM14.49,8.81a6.43,6.43,0,0,0-6.42,6.42V234.76a6.43,6.43,0,0,0,6.42,6.42h221a6.43,6.43,0,0,0,6.42-6.42V15.24a6.43,6.43,0,0,0-6.42-6.42Z"/><path class="cls-1" d="M235.51,246.7h-221A12,12,0,0,1,2.56,234.76V15.24A12,12,0,0,1,14.49,3.3h221a12,12,0,0,1,11.93,11.93V234.76A12,12,0,0,1,235.51,246.7ZM14.49,11.75A3.49,3.49,0,0,0,11,15.24V234.76a3.49,3.49,0,0,0,3.49,3.49h221a3.49,3.49,0,0,0,3.49-3.49V15.24a3.49,3.49,0,0,0-3.49-3.49Z"/><rect class="cls-1" x="113.77" y="211.99" width="22.46" height="2.57"/><rect class="cls-1" x="110.83" y="209.06" width="28.33" height="8.45"/><rect class="cls-1" x="113.77" y="226.77" width="22.46" height="2.57"/><rect class="cls-1" x="110.83" y="223.83" width="28.33" height="8.45"/><rect class="cls-1" x="50.81" y="211.99" width="22.46" height="2.57"/><rect class="cls-1" x="47.87" y="209.06" width="28.33" height="8.45"/><rect class="cls-1" x="50.81" y="226.77" width="22.46" height="2.57"/><rect class="cls-1" x="47.87" y="223.83" width="28.33" height="8.45"/><rect class="cls-1" x="176.73" y="211.99" width="22.46" height="2.57"/><rect class="cls-1" x="173.8" y="209.06" width="28.33" height="8.45"/><rect class="cls-1" x="176.73" y="226.77" width="22.46" height="2.57"/><rect class="cls-1" x="173.8" y="223.83" width="28.33" height="8.45"/><path class="cls-1" d="M32.48,35.6a7,7,0,1,1,7.05-7.05A7.06,7.06,0,0,1,32.48,35.6Zm0-11.53A4.48,4.48,0,1,0,37,28.55,4.49,4.49,0,0,0,32.48,24.07Z"/><path class="cls-1" d="M32.48,38.54a10,10,0,1,1,10-10A10,10,0,0,1,32.48,38.54Zm0-11.53A1.54,1.54,0,1,0,34,28.55,1.54,1.54,0,0,0,32.48,27Z"/><path class="cls-1" d="M52.71,35.6a7,7,0,1,1,7-7.05A7.06,7.06,0,0,1,52.71,35.6Zm0-11.53a4.48,4.48,0,1,0,4.48,4.48A4.49,4.49,0,0,0,52.71,24.07Z"/><path class="cls-1" d="M52.71,38.54a10,10,0,1,1,10-10A10,10,0,0,1,52.71,38.54Zm0-11.53a1.54,1.54,0,1,0,1.54,1.54A1.54,1.54,0,0,0,52.71,27Z"/><path class="cls-1" d="M72.92,35.6A7,7,0,1,1,80,28.55,7.06,7.06,0,0,1,72.92,35.6Zm0-11.53a4.48,4.48,0,1,0,4.48,4.48A4.49,4.49,0,0,0,72.92,24.07Z"/><path class="cls-1" d="M72.92,38.54a10,10,0,1,1,10-10A10,10,0,0,1,72.92,38.54Zm0-11.53a1.54,1.54,0,1,0,1.54,1.54A1.54,1.54,0,0,0,72.92,27Z"/><rect class="cls-1" x="6.78" y="46.34" width="236.43" height="2.57"/><rect class="cls-1" x="3.85" y="43.4" width="242.31" height="8.45"/><rect class="cls-1" x="6.78" y="199.25" width="236.43" height="2.57"/><rect class="cls-1" x="3.85" y="196.31" width="242.31" height="8.45"/><path class="cls-1" d="M127.77,171.31h-5.54a5.2,5.2,0,0,1-5.11-4.27l-.92-5.08a38.33,38.33,0,0,1-11.43-4.75l-4.26,2.95a5.2,5.2,0,0,1-6.64-.6l-3.92-3.92a5.2,5.2,0,0,1-.6-6.64l2.95-4.26a38.28,38.28,0,0,1-4.75-11.43l-5.08-.92a5.2,5.2,0,0,1-4.27-5.12v-5.54a5.19,5.19,0,0,1,4.27-5.11l5.08-.92a38.33,38.33,0,0,1,4.75-11.43L89.35,100a5.19,5.19,0,0,1,.6-6.64l3.91-3.92a5.21,5.21,0,0,1,6.64-.6l4.26,2.95a38.33,38.33,0,0,1,11.43-4.75l.92-5.08a5.2,5.2,0,0,1,5.11-4.27h5.54A5.2,5.2,0,0,1,132.89,82l.92,5.08a38.33,38.33,0,0,1,11.43,4.75l4.26-2.95a5.2,5.2,0,0,1,6.64.6l3.92,3.91a5.2,5.2,0,0,1,.6,6.64l-2.95,4.26a38.33,38.33,0,0,1,4.75,11.43l5.08.92a5.19,5.19,0,0,1,4.27,5.11v5.54a5.2,5.2,0,0,1-4.27,5.12l-5.08.92a38.28,38.28,0,0,1-4.75,11.43l2.95,4.26a5.19,5.19,0,0,1-.6,6.64l-3.91,3.92a5.2,5.2,0,0,1-6.64.6l-4.26-2.95A38.33,38.33,0,0,1,133.81,162l-.92,5.08A5.2,5.2,0,0,1,127.77,171.31Zm-23.06-16.6.58.38a36.09,36.09,0,0,0,12,5l.68.15,1.17,6.44a3.12,3.12,0,0,0,3.07,2.56h5.54a3.12,3.12,0,0,0,3.07-2.56l1.17-6.44.68-.15a36.09,36.09,0,0,0,12-5l.58-.38,5.4,3.74a3.1,3.1,0,0,0,4-.37l3.92-3.92a3.11,3.11,0,0,0,.37-4l-3.74-5.4.38-.58a36.19,36.19,0,0,0,5-12l.15-.68,6.44-1.17a3.12,3.12,0,0,0,2.56-3.07v-5.54a3.11,3.11,0,0,0-2.56-3.07l-6.44-1.17-.15-.68a36.09,36.09,0,0,0-5-12l-.38-.58,3.74-5.4a3.12,3.12,0,0,0-.36-4l-3.92-3.92a3.1,3.1,0,0,0-4-.37l-5.4,3.74-.58-.38a36.09,36.09,0,0,0-12-5l-.68-.15-1.17-6.44a3.12,3.12,0,0,0-3.07-2.56h-5.54a3.12,3.12,0,0,0-3.07,2.56L118,88.79l-.68.15a36.09,36.09,0,0,0-12,5l-.58.38-5.4-3.74a3.13,3.13,0,0,0-4,.36l-3.92,3.92a3.11,3.11,0,0,0-.37,4l3.74,5.4-.38.58a36.09,36.09,0,0,0-5,12l-.15.68-6.44,1.17a3.11,3.11,0,0,0-2.56,3.07v5.54a3.12,3.12,0,0,0,2.56,3.07l6.44,1.17.15.68a36.19,36.19,0,0,0,5,12l.38.58-3.74,5.4a3.12,3.12,0,0,0,.36,4l3.92,3.92a3.11,3.11,0,0,0,4,.37Z"/><path class="cls-1" d="M127.77,174.25h-5.54a8.14,8.14,0,0,1-8-6.68l-.59-3.24a41.23,41.23,0,0,1-8.75-3.63l-2.71,1.88a8.15,8.15,0,0,1-10.39-.93l-3.92-3.92a8.14,8.14,0,0,1-.94-10.39l1.88-2.71a41.18,41.18,0,0,1-3.64-8.75l-3.23-.59a8.14,8.14,0,0,1-6.68-8v-5.54a8.13,8.13,0,0,1,6.69-8l3.23-.59a41.24,41.24,0,0,1,3.63-8.75l-1.88-2.71a8.13,8.13,0,0,1,.94-10.39l3.91-3.91a8.16,8.16,0,0,1,10.39-.94l2.71,1.88a41.28,41.28,0,0,1,8.75-3.63l.59-3.23a8.14,8.14,0,0,1,8-6.68h5.54a8.14,8.14,0,0,1,8,6.68l.59,3.24a41.28,41.28,0,0,1,8.75,3.63l2.71-1.88a8.15,8.15,0,0,1,10.39.94l3.91,3.91a8.14,8.14,0,0,1,.94,10.39l-1.88,2.71a41.24,41.24,0,0,1,3.63,8.75l3.24.59a8.13,8.13,0,0,1,6.68,8v5.54a8.14,8.14,0,0,1-6.68,8l-3.24.59a41.23,41.23,0,0,1-3.63,8.75l1.88,2.71a8.13,8.13,0,0,1-.94,10.39l-3.91,3.91a8.15,8.15,0,0,1-10.39.94l-2.71-1.88a41.23,41.23,0,0,1-8.75,3.63l-.59,3.24A8.14,8.14,0,0,1,127.77,174.25Zm-23.12-23.07,2.23,1.44a33.14,33.14,0,0,0,11,4.58l2.6.58,1.52,8.36a.18.18,0,0,0,.18.15h5.54a.18.18,0,0,0,.18-.16l1.52-8.36,2.58-.57a33.18,33.18,0,0,0,11.06-4.59l2.23-1.44,7,4.86a.17.17,0,0,0,.21,0l3.93-3.93a.18.18,0,0,0,0-.23l-4.86-7,1.45-2.24a33.25,33.25,0,0,0,4.58-11l.58-2.6,8.36-1.52a.18.18,0,0,0,.15-.18v-5.54a.17.17,0,0,0-.14-.17L158.28,120l-.57-2.58a33.2,33.2,0,0,0-4.59-11.06l-1.44-2.23,4.86-7a.18.18,0,0,0,0-.23L152.59,93a.17.17,0,0,0-.23,0l-7,4.86-2.23-1.44a33.14,33.14,0,0,0-11-4.58l-2.6-.58-1.52-8.36a.18.18,0,0,0-.18-.15h-5.54a.18.18,0,0,0-.18.15l-1.52,8.35L118,91.8a33.18,33.18,0,0,0-11.06,4.59l-2.23,1.44-7-4.86a.19.19,0,0,0-.23,0L93.5,96.92a.18.18,0,0,0,0,.24l4.86,7-1.45,2.24a33.17,33.17,0,0,0-4.58,11l-.58,2.6-8.36,1.52a.18.18,0,0,0-.15.18v5.54a.18.18,0,0,0,.16.18L91.72,129l.57,2.58a33.32,33.32,0,0,0,4.59,11.06l1.44,2.23-4.86,7a.18.18,0,0,0,0,.23L97.41,156a.18.18,0,0,0,.24,0Z"/><path class="cls-1" d="M125,142.19a17.68,17.68,0,1,1,17.68-17.68A17.7,17.7,0,0,1,125,142.19Zm0-33.28a15.6,15.6,0,1,0,15.61,15.61A15.62,15.62,0,0,0,125,108.9Z"/><path class="cls-1" d="M125,145.12a20.62,20.62,0,1,1,20.62-20.62A20.64,20.64,0,0,1,125,145.12Zm0-33.28a12.66,12.66,0,1,0,12.67,12.67A12.68,12.68,0,0,0,125,111.84Z"/></svg>