<svg id="Layer_1" data-name="Layer 1" xmlns="http://www.w3.org/2000/svg" viewBox="0 0 250 250"><defs><style>.cls-1{fill:#2999d6;}</style></defs><title>CC web icons final blue 5pt</title><path class="cls-1" d="M238.08,153.13H215.49V137.18a22.37,22.37,0,0,0-22.34-22.34H129.25V93.4h30.22A9.4,9.4,0,0,0,168.86,84V30.74a9.4,9.4,0,0,0-9.39-9.39H90.53a9.4,9.4,0,0,0-9.39,9.39V84a9.4,9.4,0,0,0,9.39,9.39h30.22v21.44H56.86a22.37,22.37,0,0,0-22.34,22.34v15.95H11.92a9.4,9.4,0,0,0-9.39,9.39v53.27a9.4,9.4,0,0,0,9.39,9.39H65.6A9.4,9.4,0,0,0,75,215.79V162.52a9.4,9.4,0,0,0-9.39-9.39H43V137.18a13.86,13.86,0,0,1,13.84-13.84h63.89v29.79H98.16a9.4,9.4,0,0,0-9.39,9.39v53.27a9.4,9.4,0,0,0,9.39,9.39h53.68a9.4,9.4,0,0,0,9.39-9.39V162.52a9.4,9.4,0,0,0-9.39-9.39H129.25V123.34h63.89A13.86,13.86,0,0,1,207,137.18v15.95H184.4a9.4,9.4,0,0,0-9.39,9.39v53.27a9.4,9.4,0,0,0,9.39,9.39h53.67a9.4,9.4,0,0,0,9.39-9.39V162.52A9.4,9.4,0,0,0,238.08,153.13Zm-54.56,9.39a.89.89,0,0,1,.89-.89h53.67a.89.89,0,0,1,.89.89v53.27a.89.89,0,0,1-.89.89H184.4a.89.89,0,0,1-.89-.89ZM89.64,30.74a.89.89,0,0,1,.89-.89h68.94a.89.89,0,0,1,.89.89V84a.89.89,0,0,1-.89.89H90.53a.89.89,0,0,1-.89-.89Zm-23.16,185a.89.89,0,0,1-.89.89H11.92a.89.89,0,0,1-.89-.89V162.52a.89.89,0,0,1,.89-.89H65.6a.89.89,0,0,1,.89.89Zm86.24,0a.89.89,0,0,1-.89.89H98.16a.89.89,0,0,1-.89-.89V162.52a.89.89,0,0,1,.89-.89h53.68a.89.89,0,0,1,.89.89Z"/></svg>