<svg id="Layer_1" data-name="Layer 1" xmlns="http://www.w3.org/2000/svg" viewBox="0 0 250 250"><defs><style>.cls-1{fill:#2999d6;}</style></defs><title>CC web icons final blue 5pt</title><path class="cls-1" d="M163,236.62H87a2.79,2.79,0,0,1-1.91-4.83L97.68,220V195.85A1.82,1.82,0,0,1,99.5,194h51a1.82,1.82,0,0,1,1.82,1.82V220l12.59,11.78a2.79,2.79,0,0,1-1.91,4.83ZM99.94,196.3V220.2a1.83,1.83,0,0,1-.57,1.32L86.63,233.44a.52.52,0,0,0-.13.58.5.5,0,0,0,.49.33h76a.53.53,0,0,0,.36-.91l-12.74-11.91a1.86,1.86,0,0,1-.57-1.33V196.3Z"/><path class="cls-1" d="M163,239.55H87a5.73,5.73,0,0,1-3.92-9.91l11.67-10.91V195.85a4.76,4.76,0,0,1,4.75-4.76h51a4.76,4.76,0,0,1,4.76,4.76v22.88l11.66,10.91a5.73,5.73,0,0,1-3.91,9.92Zm-69.91-8.14H156.9l-8.28-7.74a4.85,4.85,0,0,1-1.51-3.48v-21H102.88v21a4.78,4.78,0,0,1-1.48,3.45Z"/><path class="cls-1" d="M236.58,29.66H225.84l-2,2.26h12.76a5.66,5.66,0,0,1,5.66,5.66v150.8a5.66,5.66,0,0,1-5.66,5.66H13.42a5.66,5.66,0,0,1-5.66-5.66V37.58a5.66,5.66,0,0,1,5.66-5.66h185.2l2-2.26H13.42A7.93,7.93,0,0,0,5.5,37.58v150.8a7.93,7.93,0,0,0,7.92,7.92H236.58a7.93,7.93,0,0,0,7.92-7.92V37.58A7.93,7.93,0,0,0,236.58,29.66Z"/><path class="cls-1" d="M236.58,199.24H13.42A10.87,10.87,0,0,1,2.56,188.38V37.58A10.87,10.87,0,0,1,13.42,26.73H207.19l-7.26,8.14H13.42a2.72,2.72,0,0,0-2.72,2.72V188.38a2.72,2.72,0,0,0,2.72,2.72H236.58a2.72,2.72,0,0,0,2.72-2.72V37.58a2.72,2.72,0,0,0-2.72-2.72H217.26l7.26-8.14h12.06a10.87,10.87,0,0,1,10.86,10.86V188.38A10.87,10.87,0,0,1,236.58,199.24Z"/><path class="cls-1" d="M225.72,15.69a9.12,9.12,0,0,0-6.11-2.3,10,10,0,0,0-6.79,2.71,10.45,10.45,0,0,0-.83.83l-55.3,62-.47.53h0c-.08.09-3.94,17.67-3.94,17.67a.65.65,0,0,0,.63.8.69.69,0,0,0,.22,0s17-5.82,17.13-5.91h0l55.92-62.71A9.64,9.64,0,0,0,225.72,15.69Zm-56.15,70a8.84,8.84,0,0,0-4.42-2.11,8.76,8.76,0,0,0-4.66-5.51l53.32-59.8c.16-.18.33-.34.5-.5a7.74,7.74,0,0,1,5.16-2,6.89,6.89,0,0,1,4.6,1.73,7.39,7.39,0,0,1,.27,10.43L171.16,87.61A8.76,8.76,0,0,0,169.57,85.72Zm-.63,4.37c-1.79.64-8.34,2.89-13.84,4.77,1.25-5.67,2.74-12.43,3.18-14.27l.63-.7A6.47,6.47,0,0,1,161,81.15a6.66,6.66,0,0,1,2.19,4.61h.38a6.63,6.63,0,0,1,4.45,1.66,6.47,6.47,0,0,1,1.5,2Z"/><path class="cls-1" d="M152.9,100.42a3.09,3.09,0,0,1-3-3.76c4-18.21,4-18.21,4.5-18.78l55.78-62.58a13,13,0,0,1,1-1,12.38,12.38,0,0,1,8.43-3.34,11.6,11.6,0,0,1,7.74,2.92h0A12.11,12.11,0,0,1,228,30.94L172.09,93.65c-.52.57-.52.57-18.17,6.6A3.16,3.16,0,0,1,152.9,100.42Zm7.17-16.68c-.47,2.11-1.1,5-1.64,7.4l7.18-2.47a4.18,4.18,0,0,0-2.24-.46,2.45,2.45,0,0,1-2.58-2.29A4.37,4.37,0,0,0,160.07,83.74Zm6.93-2.2a11.25,11.25,0,0,1,4.19,2.35l51.33-57.58a5,5,0,0,0-.08-7,4.44,4.44,0,0,0-3-1.11A5.28,5.28,0,0,0,216,19.62c-.08.07-.2.19-.31.31L164.19,77.64A11.21,11.21,0,0,1,167,81.54Z"/><path class="cls-1" d="M106.86,130.87c-15.83,0-25-10.63-33.26-20.13-6.4-7.39-11.92-13.77-19.38-14-6.38-.19-13.68,4.19-22.6,13.36A1.13,1.13,0,1,1,30,108.54C39.31,99,46.9,94.49,53.83,94.49h.46c8.45.24,14.56,7.3,21,14.77,8.87,10.24,18.94,21.87,37.46,18.85,14.28-2.31,32.2-24.06,32.39-24.28a1.13,1.13,0,1,1,1.75,1.43c-.75.92-18.65,22.64-33.77,25.08A39.07,39.07,0,0,1,106.86,130.87Z"/><path class="cls-1" d="M106.86,133.81c-17.17,0-26.9-11.23-35.48-21.14-5.94-6.86-11.07-12.79-17.24-13-5.45-.16-12.1,3.92-20.41,12.47a4.07,4.07,0,0,1-5.74.1,4.07,4.07,0,0,1-.09-5.77C37.8,96.3,46,91.55,53.83,91.55h.54c9.76.28,16.58,8.16,23.17,15.78,8.8,10.15,17.87,20.63,34.77,17.87,10.88-1.76,25.77-17.37,30.59-23.24a4.07,4.07,0,0,1,6.29,5.16,123.49,123.49,0,0,1-11.8,12.28c-8.91,8.07-16.91,12.72-23.78,13.84A42.13,42.13,0,0,1,106.86,133.81ZM32.11,110.58h0Zm-2.59-2.52,0,0Zm115.11-4.66h0Z"/></svg>