<svg id="Layer_1" data-name="Layer 1" xmlns="http://www.w3.org/2000/svg" viewBox="0 0 250 250"><defs><style>.cls-1{fill:#2999d6;}</style></defs><title>CC web icons final blue 5pt</title><path class="cls-1" d="M86.82,171.83A83.17,83.17,0,1,1,170,88.67,83.26,83.26,0,0,1,86.82,171.83Zm0-163.41a80.25,80.25,0,1,0,80.25,80.25A80.34,80.34,0,0,0,86.82,8.42Z"/><path class="cls-1" d="M86.82,174.81A86.14,86.14,0,1,1,173,88.67,86.24,86.24,0,0,1,86.82,174.81Zm0-163.41a77.27,77.27,0,1,0,77.27,77.27A77.36,77.36,0,0,0,86.82,11.4Z"/><path class="cls-1" d="M228.41,244.5a13.05,13.05,0,0,1-9.28-3.85L133,154.48l1.38-1a77.15,77.15,0,0,0,20.23-21.61l1-1.55,87,87a13.14,13.14,0,0,1,0,18.57l-4.81,4.8A13,13,0,0,1,228.41,244.5Zm-91-89.68,83.77,83.77a10.45,10.45,0,0,0,14.44,0l4.81-4.8a10.23,10.23,0,0,0,0-14.45L156.05,135A79.93,79.93,0,0,1,137.42,154.82Z"/><path class="cls-1" d="M228.41,247.48A16,16,0,0,1,217,242.76l-88.64-88.65,4.21-3.05A74.19,74.19,0,0,0,152,130.28l3-4.71,89.6,89.6a16.12,16.12,0,0,1,0,22.79l-4.81,4.81A16,16,0,0,1,228.41,247.48ZM141.9,155.08l81.4,81.4a7.25,7.25,0,0,0,5.12,2h0a7.23,7.23,0,0,0,5.11-2l4.81-4.81a7.25,7.25,0,0,0,0-10.23l-81.87-81.86A82.85,82.85,0,0,1,141.9,155.08Z"/></svg>