<svg xmlns="http://www.w3.org/2000/svg" viewBox="0 0 250 250"><defs><style>.cls-1{fill:#2999d6;}</style></defs><title>CC web icons final blue 5pt</title><g id="Layer_3" data-name="Layer 3"><path class="cls-1" d="M206.84,237.23H191.06c3.73-15.08,14-63.78,3.55-108.32-.61-2.6-1.27-5.23-2-7.88l.37-.28-.7-.94A310.76,310.76,0,0,0,180,83.63l.06-.06-.15-.17c-2.72-6.6-5.61-12.91-8.57-18.68-7.6-14.8-19-32.51-30-32.78H141c-11,.27-22.33,18-29.93,32.78-2.61,5.08-5.15,10.58-7.58,16.33v-7.9h.12l-.12-.2V70.56l-.06-.19a3.61,3.61,0,0,0-.11-.46l0-.26L95.85,57V45.35h.36l-.36-.63v0a3.63,3.63,0,0,0-.15-3.27L85,22.41V9.14a3.64,3.64,0,1,0-7.27,0v13L67.57,40.66a3.6,3.6,0,0,0-1,2.54V58L59.41,69.07l-.3.5,0,.26a3.39,3.39,0,0,0-.12.44l-.09.24v2.2l-.28.44h.28V82.6A9.63,9.63,0,0,0,51.26,92v40.63a9.55,9.55,0,0,0,5.67,8.77v95.84H43.16a3.64,3.64,0,0,0,0,7.27H206.84a3.64,3.64,0,0,0,0-7.27ZM58.54,92a2.34,2.34,0,0,1,2.33-2.33H100Q98.47,93.75,97,97.93a21.4,21.4,0,1,0-10,34.94q-.22,1-.42,2.09H60.87a2.34,2.34,0,0,1-2.33-2.33Zm54.38-14.63c4.24,2.82,8.34,5.83,12.28,9a252.92,252.92,0,0,0-14.5,21.7q-3.77-2.92-7.7-5.71A260.43,260.43,0,0,1,112.91,77.36ZM80.54,115.95H91.22q-1.16,4-2.17,8a14,14,0,0,1-7.86,2.44,14.09,14.09,0,0,1-4.28-27.52v13.42A3.64,3.64,0,0,0,80.54,115.95ZM123,152.89c4.78,5.12,9.29,10.34,13.52,15.61-3.21,4.77-6.07,9.46-8.6,14a174.82,174.82,0,0,0-13.51-13.88C117,163.59,119.82,158.32,123,152.89ZM108.73,163.7a111.59,111.59,0,0,0-12.56-9c2.13-5.6,4.89-12.29,8.38-19.67,4.61,4,9,8.14,13.21,12.38C114.41,153,111.41,158.48,108.73,163.7ZM137,193.52c-1.31-1.71-2.63-3.35-3.95-5,2.42-4.52,5.18-9.19,8.29-14,4,5.22,7.7,10.44,11.17,15.59a153.67,153.67,0,0,0-6.61,15.62C143.08,201.73,140.11,197.61,137,193.52Zm15.16-45.28c-4.76-5.67-9.83-11.29-15.21-16.78,4.52-6.33,9.49-12.75,15-19.17,5.84,6.7,11.1,13.46,15.78,20A214.89,214.89,0,0,0,152.12,148.24Zm4.7,5.75a206.33,206.33,0,0,1,15.05-15.71c3.34,4.9,6.32,9.56,8.93,13.84a113.77,113.77,0,0,0-14,15Q162.08,160.57,156.82,154ZM147,106.83c-5.59,6.51-10.67,13-15.29,19.43-4.84-4.68-9.92-9.23-15.24-13.61A246.43,246.43,0,0,1,130.77,91,212.73,212.73,0,0,1,147,106.83ZM98.09,186.94c-2.31,5.73-4.15,10.87-5.6,15.28-.8-6.64-1.43-13.88-1.72-21.46C93.25,182.67,95.7,184.73,98.09,186.94Zm52.85,26.49a150.59,150.59,0,0,1,6.2-16.13,363.68,363.68,0,0,1,22,39.92H164.9C161.32,230.54,156.62,222.27,150.94,213.43ZM93.4,108.67H84.18V98.54a14.23,14.23,0,0,1,9.87,8.09C93.83,107.31,93.61,108,93.4,108.67Zm1.52,21.89c.22-1,.46-1.91.69-2.86,1.07.84,2.12,1.69,3.18,2.54-2.48,5.17-4.63,10-6.47,14.47C93,140,93.82,135.23,94.91,130.56Zm26.78,83.74c5.86,8.16,10.91,16.19,14.87,22.92H115.73A139.8,139.8,0,0,1,121.69,214.3ZM83.32,167.8H64.21V142.23H85.32A199.47,199.47,0,0,0,83.32,167.8Zm0,7.27a270.13,270.13,0,0,0,1.93,28.12h-21V175.07Zm20.43,17.42a183.48,183.48,0,0,1,12.69,14.77,147.59,147.59,0,0,0-8.07,30H98.89c-.84-3.29-2.31-9.46-3.79-17.61A196.14,196.14,0,0,1,103.75,192.49Zm67.43-19.13a107.79,107.79,0,0,1,13.4-14.85c3.3,5.73,5.74,10.39,7.28,13.46a262.25,262.25,0,0,1-2.06,31.55C184.56,194.06,178.37,183.83,171.18,173.36ZM168.79,94.1q2.74-2.7,5.62-5.38c2.73,6.82,5.26,14,7.54,21.32Q175.51,101.65,168.79,94.1Zm-4.92-5.36a234,234,0,0,0-17.28-16.63c4.18-4.45,8.64-8.79,13.39-13q1.6,2.65,3.26,5.67c2.85,5.2,5.59,10.83,8.18,16.76Q167.54,85.14,163.88,88.73ZM64.21,210.46h22c.47,3.24,1,6.29,1.47,9.13l.42,2.35c1.22,6.57,2.42,11.81,3.27,15.28H64.21ZM141,67.45a192.12,192.12,0,0,0-16.32-11.82c7.25-11.16,13.28-16.33,16.44-16.41h.11c3,.07,8.3,4.43,14.76,13.77A200.16,200.16,0,0,0,141,67.45ZM74.12,54.89V46.84H88.58v8.05Zm16.33,7.27,3.07,5.21H69.14l3.33-5.21ZM66.13,82.39V74.64H96.25v7.75ZM76.46,39.56l4.85-8.85,5,8.85Z"/></g></svg>