<svg id="Layer_1" data-name="Layer 1" xmlns="http://www.w3.org/2000/svg" viewBox="0 0 250 250"><defs><style>.cls-1{fill:#2999d6;}</style></defs><title>CC web icons final blue 5pt</title><path class="cls-1" d="M235.51,24.57h-221a9,9,0,0,0-9,9V187a9,9,0,0,0,9,9H157v-2.57H14.49A6.43,6.43,0,0,1,8.07,187V33.57a6.43,6.43,0,0,1,6.42-6.42h221a6.43,6.43,0,0,1,6.42,6.42V187a6.43,6.43,0,0,1-6.42,6.42h-2.44V196h2.44a9,9,0,0,0,9-9V33.57A9,9,0,0,0,235.51,24.57Z"/><path class="cls-1" d="M235.5,198.95h-5.37v-8.44h5.37A3.5,3.5,0,0,0,239,187V33.57a3.5,3.5,0,0,0-3.49-3.49H14.5A3.5,3.5,0,0,0,11,33.57V187a3.5,3.5,0,0,0,3.49,3.49H159.92v8.44H14.5A11.94,11.94,0,0,1,2.57,187V33.57A11.94,11.94,0,0,1,14.5,21.64h221a11.94,11.94,0,0,1,11.93,11.93V187A11.94,11.94,0,0,1,235.5,198.95Z"/><path class="cls-1" d="M227.93,216.57h-65.8a6.43,6.43,0,0,1-6.42-6.42V166.46h78.65v43.69A6.43,6.43,0,0,1,227.93,216.57ZM158.27,169v41.12a3.86,3.86,0,0,0,3.85,3.85h65.8a3.86,3.86,0,0,0,3.85-3.85V169Z"/><path class="cls-1" d="M227.93,219.5h-65.8a9.37,9.37,0,0,1-9.36-9.36V163.52h84.52v46.62A9.37,9.37,0,0,1,227.93,219.5ZM161.21,172v38.19a.93.93,0,0,0,.92.92h65.8a.93.93,0,0,0,.92-.92V172Z"/><path class="cls-1" d="M165.13,91.14a7.05,7.05,0,1,1,7-7.05A7.06,7.06,0,0,1,165.13,91.14Zm0-11.53a4.48,4.48,0,1,0,4.48,4.48A4.49,4.49,0,0,0,165.13,79.6Z"/><path class="cls-1" d="M165.13,94.07a10,10,0,1,1,10-10A10,10,0,0,1,165.13,94.07Zm0-11.53a1.55,1.55,0,1,0,1.54,1.55A1.55,1.55,0,0,0,165.13,82.53Z"/><path class="cls-1" d="M187.31,91.14a7.05,7.05,0,1,1,7.05-7.05A7.06,7.06,0,0,1,187.31,91.14Zm0-11.53a4.48,4.48,0,1,0,4.48,4.48A4.49,4.49,0,0,0,187.31,79.6Z"/><path class="cls-1" d="M187.31,94.07a10,10,0,1,1,10-10A10,10,0,0,1,187.31,94.07Zm0-11.53a1.55,1.55,0,1,0,1.55,1.55A1.55,1.55,0,0,0,187.31,82.53Z"/><path class="cls-1" d="M209.49,91.14a7.05,7.05,0,1,1,7.05-7.05A7.06,7.06,0,0,1,209.49,91.14Zm0-11.53A4.48,4.48,0,1,0,214,84.08,4.49,4.49,0,0,0,209.49,79.6Z"/><path class="cls-1" d="M209.49,94.07a10,10,0,1,1,10-10A10,10,0,0,1,209.49,94.07Zm0-11.53A1.55,1.55,0,1,0,211,84.08,1.55,1.55,0,0,0,209.49,82.53Z"/><path class="cls-1" d="M143,91.14A7.05,7.05,0,1,1,150,84.08,7.06,7.06,0,0,1,143,91.14Zm0-11.53a4.48,4.48,0,1,0,4.48,4.48A4.49,4.49,0,0,0,143,79.6Z"/><path class="cls-1" d="M143,94.07a10,10,0,1,1,10-10A10,10,0,0,1,143,94.07Zm0-11.53a1.55,1.55,0,1,0,1.55,1.55A1.55,1.55,0,0,0,143,82.53Z"/><rect class="cls-1" x="6.78" y="64.67" width="236.43" height="2.57"/><rect class="cls-1" x="3.85" y="61.74" width="242.3" height="8.44"/><rect class="cls-1" x="6.78" y="100.93" width="236.43" height="2.57"/><rect class="cls-1" x="3.85" y="97.99" width="242.3" height="8.44"/><path class="cls-1" d="M231.22,167.74h-2.57V148.47a14.15,14.15,0,0,0-14.13-14.13h-39a14.15,14.15,0,0,0-14.13,14.13v19.27h-2.57V148.47a16.72,16.72,0,0,1,16.7-16.7h39a16.72,16.72,0,0,1,16.7,16.7Z"/><path class="cls-1" d="M234.16,170.68h-8.44V148.47a11.21,11.21,0,0,0-11.2-11.2h-39a11.21,11.21,0,0,0-11.2,11.2v22.21H155.9V148.47a19.66,19.66,0,0,1,19.64-19.64h39a19.66,19.66,0,0,1,19.64,19.64Z"/></svg>