<svg id="Layer_1" data-name="Layer 1" xmlns="http://www.w3.org/2000/svg" viewBox="0 0 240 240"><defs><style>.cls-1,.cls-2{fill:none;stroke:#2999d6;stroke-width:8.29px;}.cls-1{stroke-miterlimit:10;}.cls-2{stroke-linecap:round;stroke-linejoin:round;}</style></defs><title>commitment</title><path class="cls-1" d="M67.11,139.74s9.07,71.09,30.53,82.55c0,0,26.72.48,45.8,2.39s85.89,4.71,74.91-33.91c0,0,20-12.37,4.81-36.23,0,0,11.93-27.68-4.29-35.78,0,0,10-15.28-1.93-24.34s-34.36-4.29-34.36-4.29l-24.81,1s7.15-35.31,10-40.08,2.5-45.06-21-45.33c-14.31-.16-6.68,22.43-9.07,27.68s-12.91,35.78-19.58,43.41S98.6,97.29,93.36,111.6,82.38,135.45,67.11,139.74Z"/><path class="cls-1" d="M66,139.85c-7.1.64-33.86,4.42-56.46,2.46-.66-.06,4.08,91.8,8.26,91.46,8.62-.7,90.75-3.16,90-3.88-5.09-5-23.79-13.77-29.95-41-5.1-22.55-9.6-43-10.49-48A1.27,1.27,0,0,0,66,139.85Z"/><path class="cls-2" d="M68.69,210.46s-4.33-7.76-6.5-6.86-2,11.37,9,13.54Z"/></svg>