<svg xmlns="http://www.w3.org/2000/svg" viewBox="0 0 250 250"><defs><style>.cls-1{fill:#2999d6;}.cls-2,.cls-3,.cls-4,.cls-5{fill:none;stroke:#2999d6;}.cls-2,.cls-3{stroke-miterlimit:10;}.cls-2{stroke-width:7.94px;}.cls-3{stroke-width:8.01px;}.cls-4,.cls-5{stroke-linecap:round;stroke-linejoin:round;}.cls-4{stroke-width:9.29px;}.cls-5{stroke-width:6.64px;}</style></defs><title>Responsive across all devices</title><g id="Layer_1" data-name="Layer 1"><path class="cls-1" d="M147.74,239.71H72.3a2.77,2.77,0,0,1-1.89-4.79l12.5-11.69v-24a1.8,1.8,0,0,1,1.8-1.8h50.62a1.8,1.8,0,0,1,1.8,1.8v24l12.5,11.69a2.77,2.77,0,0,1-1.89,4.79Zm-62.58-40v23.71a1.82,1.82,0,0,1-.57,1.31L71.94,236.55a.51.51,0,0,0-.13.58.5.5,0,0,0,.49.33h75.44a.52.52,0,0,0,.36-.91l-12.64-11.82a1.85,1.85,0,0,1-.57-1.32V199.7Z"/><path class="cls-1" d="M147.74,242.62H72.3a5.69,5.69,0,0,1-3.89-9.83L80,222v-22.7a4.72,4.72,0,0,1,4.72-4.72h50.62a4.73,4.73,0,0,1,4.72,4.72V222l11.57,10.82a5.69,5.69,0,0,1-3.88,9.84Zm-69.38-8.08h63.32l-8.22-7.68a4.81,4.81,0,0,1-1.49-3.45v-20.8H88.07v20.8a4.75,4.75,0,0,1-1.47,3.42Z"/><path class="cls-2" d="M158.3,197.81H11.46a6,6,0,0,1-6-6V14.48a6,6,0,0,1,6-6H208.87a6,6,0,0,1,6,6V78.63"/><line class="cls-3" x1="161.2" y1="164.33" x2="5.5" y2="164.33"/></g><g id="Layer_4" data-name="Layer 4"><rect class="cls-4" x="161.2" y="79.83" width="80.26" height="158.88" rx="10.62" ry="10.62"/><line class="cls-5" x1="208.79" y1="92.79" x2="195.51" y2="92.79"/><circle class="cls-1" cx="202.15" cy="222.88" r="5.97"/></g></svg>