<svg xmlns="http://www.w3.org/2000/svg" xmlns:xlink="http://www.w3.org/1999/xlink" width="119.564" height="111" viewBox="0 0 119.564 111">
  <defs>
    <filter id="Path_153" x="31.611" y="0" width="87.953" height="111" filterUnits="userSpaceOnUse">
      <feOffset dy="10" input="SourceAlpha"/>
      <feGaussianBlur stdDeviation="5" result="blur"/>
      <feFlood flood-opacity="0.161"/>
      <feComposite operator="in" in2="blur"/>
      <feComposite in="SourceGraphic"/>
    </filter>
    <filter id="clipboard-with-list" x="0" y="21" width="56.819" height="68.771" filterUnits="userSpaceOnUse">
      <feOffset dy="10" input="SourceAlpha"/>
      <feGaussianBlur stdDeviation="5" result="blur-2"/>
      <feFlood flood-opacity="0.161"/>
      <feComposite operator="in" in2="blur-2"/>
      <feComposite in="SourceGraphic"/>
    </filter>
  </defs>
  <g id="Group_115" data-name="Group 115" transform="translate(-1289.349 -844)">
    <g transform="matrix(1, 0, 0, 1, 1289.35, 844)" filter="url(#Path_153)">
      <path id="Path_153-2" data-name="Path 153" d="M684.62,323.9a22.051,22.051,0,0,0-16.174-6.755H656.38a23.09,23.09,0,0,0-22.943,22.927V375.22a23.09,23.09,0,0,0,22.943,22.928h12.067A23.089,23.089,0,0,0,691.39,375.22V340.075a22.093,22.093,0,0,0-6.77-16.173m-5.877,51.317a10.056,10.056,0,0,1-.624,3.556,10.2,10.2,0,0,1-2.426,3.69,9.922,9.922,0,0,1-7.246,3.051H656.38a10.392,10.392,0,0,1-10.3-10.3V340.075a10.392,10.392,0,0,1,10.3-10.3h12.067a10.418,10.418,0,0,1,10.3,10.3Z" transform="translate(-586.83 -312.15)" fill="#01b2f1"/>
    </g>
    <g transform="matrix(1, 0, 0, 1, 1289.35, 844)" filter="url(#clipboard-with-list)">
      <path id="clipboard-with-list-2" data-name="clipboard-with-list" d="M39.858,4.853V3.412a.571.571,0,0,1,.571-.571h.917a2.455,2.455,0,0,0,2.236-1.489,2.258,2.258,0,0,1,4.138,0,2.456,2.456,0,0,0,2.236,1.489h.917a.571.571,0,0,1,.571.571V4.853a.571.571,0,0,1-.571.571H40.429A.571.571,0,0,1,39.858,4.853Zm-2,26.916H40.53V29.1H37.858Zm0-16.071H40.53V13.026H37.858Zm21.2-7.064V35.059a3.716,3.716,0,0,1-3.712,3.712h-19.4a3.716,3.716,0,0,1-3.712-3.712V8.635a3.716,3.716,0,0,1,3.712-3.712h2.055a2.426,2.426,0,0,0,2.421,2.354H50.872a2.426,2.426,0,0,0,2.421-2.354h2.055A3.716,3.716,0,0,1,59.06,8.635ZM43.849,14.347a.927.927,0,0,0,.927.927h8.366a.927.927,0,1,0,0-1.854H44.776A.927.927,0,0,0,43.849,14.347Zm0,8.128a.927.927,0,0,0,.927.927H52.21a.927.927,0,1,0,0-1.854H44.776A.927.927,0,0,0,43.849,22.474Zm-1.465,5.7a.927.927,0,0,0-.927-.927H36.931A.927.927,0,0,0,36,28.17V32.7a.927.927,0,0,0,.927.927h4.526a.927.927,0,0,0,.927-.927Zm0-8.035a.927.927,0,0,0-.927-.927H36.931a.927.927,0,0,0-.927.927V24.66a.927.927,0,0,0,.927.927h4.526a.927.927,0,0,0,.927-.927Zm0-8.035a.927.927,0,0,0-.927-.927H36.931A.927.927,0,0,0,36,12.1v4.526a.927.927,0,0,0,.927.927h4.526a.927.927,0,0,0,.927-.927ZM54.532,30.6a.927.927,0,0,0-.927-.927h-8.83a.927.927,0,1,0,0,1.854h8.83A.927.927,0,0,0,54.532,30.6ZM37.858,23.734H40.53V21.061H37.858Z" transform="translate(-17.24 26)" fill="#9d9d9d"/>
    </g>
  </g>
</svg>