<svg xmlns="http://www.w3.org/2000/svg" xmlns:xlink="http://www.w3.org/1999/xlink" viewBox="0 0 48 50"> <!-- Generator: Sketch 39.1 (31720) - http://www.bohemiancoding.com/sketch --> <title>Slice 1</title> <desc>Created with Sketch.</desc> <defs/> <g id="Page-1" stroke="none" stroke-width="1" fill="none" fill-rule="evenodd"> <g id="lifecycle" fill="#D1DDE5"> <path d="M8.5,40.5 C1,33 0.1,21.3 5.9,12.8 L6.2,16.3 L8.3,15.9 L7.3,8.7 L1.1,9.7 L1.5,11.8 L4.3,11.5 C-2.2,20.8 -1.3,33.7 7,42 C15.8,50.7 29.6,51.3 39,43.8 L37.4,42.3 C29,49 16.4,48.4 8.5,40.5 L8.5,40.5 Z M43.8,38.5 C50.2,29.2 49.3,16.3 41,8 C32.2,-0.7 18.4,-1.3 9,6.2 L10.6,7.7 C19,1 31.5,1.6 39.4,9.5 C46.9,17 47.8,28.7 42,37.2 L41.7,34.7 L39.6,35.1 L40.6,41.3 L46.8,40.3 L46.4,38.2 L43.8,38.5 L43.8,38.5 Z" id="Shape"/> </g> </g> </svg>