<svg xmlns="http://www.w3.org/2000/svg" viewBox="0 0 809 401"><style>.st2,.st3{fill:none;stroke-miterlimit:10}.st2{stroke:#d7bea4;stroke-width:4}.st3{stroke-width:2}.st3,.st4,.st5{stroke:#d7bea4}.st4,.st5,.st6,.st7{stroke-miterlimit:10}.st4{stroke-width:2;stroke-dasharray:4,2;fill:none}.st5{fill:#d7bea4}.st6,.st7{fill:none;stroke:#fff;stroke-width:2}.st7{opacity:.65}.st0{fill:#878787}.cls-2{fill:none;stroke:#878787;stroke-width:1px}</style><g id="wall"><path class="st2" d="M6 356.3l-1.4 9.5 240.2 31c41.2 3 117.8-25.2 130.4-103.4v-45.3H405v-45.3h194.2v22.6M414.5 43.2H51.2L11 321.9M501.5 43.2h-11.9m312.9 153.2l2.1 13.3m-498.5-78.3v86.9h-30.9m30.9-175.1v41.7m-98.8-41.7v31m-96.5-31v31m293-31v31"/><path class="st2" d="M12.4 312.3l107 13.8-7.5 53.6M574.1 244l-3.2-15.3 231.6-32.3-21.1-132.9h-56V18.2l-225 .1v55.8m92.7 151.1l3.2 15.2M500.4 73.9v11.7"/><path class="st3" d="M498 84.6h225m-130-65v2"/><path class="st4" d="M593 23.6v58"/><path class="st3" d="M593 82.6v2"/><path class="st2" d="M599 203.6v-65h-51v65"/><path class="st3" d="M697 84.6v-66"/><path class="st5" d="M701.6 49.9l-4.8-3.5v25.9l4.8-3.6zm93.9 109.2H761l-2-7h-36.5v-88h2v86h36.4l2 8h32.6z"/><path class="st3" d="M779 158.8l6 39.3m-118-44.5h-52v-26m83 30v54m-31 3v-62m-33 67v-66m-67 48v-48h14v48m-14-46h-19m19 4h-19m19 5h-19m52-3h-19m19 4h-19m19 5h-19m-9-31v14m-5-14v14m10-14v14m4-14v14m-14 16h-19m19 5h-19m19 4h-19m19 5h-19"/><path class="st3" d="M614.7 129L492 123.1l-9.6 78.6m46.6.9v-77m-125 76v-52h-30v99m0-99v-24h31v12h-12v12m11-81h22.5l26.2-25 26.2 25H500m-10-25h-75"/><path class="st3" d="M457.4 28.9c7.9 0 14.3 6.4 14.3 14.3v1.2c0 7.9-6.4 14.3-14.3 14.3m-8.3 0c-7.9 0-14.3-6.4-14.3-14.3v-1.2c0-7.9 6.4-14.3 14.3-14.3M244.8 396.8l13.7-95.1v-45.3s17.9-6.7 17.9-20.2v-17.9M69 45.6v36H57v44h12v8h19v18h20v-18h5v18h91v-18h5v84h97m361.1-35h-33.4m33.4-28.6l-33.4 28.6m.8-28.6l32.6 28.6m0 0l-33.4 36m0-36l33.4 31.4M795 158.8h-97M405.8 73.2h-50.3"/><path class="st2" d="M356.6 43.2v31"/></g><g id="window"><path class="st7" d="M787.8 107.5l-4.2-26.3m11.1 68.6l-4.4-27.4"/><path class="st6" d="M408.3 202.8h86.9m-250.7 194c41.2 3 118-24.7 130.6-102.9M98.6 43.2H70m122.7 0h-70.3m172.7 0h-72.6m125 0h-32.1m228.7-25h-31m76.2 0h-28.6m128.7 0h-32.2m130.6 89.3l-4.2-26.3m11.1 68.6l-4.4-27.4"/></g><path class="st0" d="M453 2h1v14h-1zm-2 14l2.5 11 2.5-11z" id="entrance"/><path class="cls-2" d="M370 66v-2.857L379 59h2l9 4.143V66h-20zm7.3-12.9a3 3 0 1 1 3 3m-1.3 1.6l2-2" id="clothes"/><path class="st0" d="M734.5 174c.8 0 1.5.7 1.5 1.5s-.7 1.5-1.5 1.5-1.5-.7-1.5-1.5.7-1.5 1.5-1.5m0-1c-1.4 0-2.5 1.1-2.5 2.5s1.1 2.5 2.5 2.5 2.5-1.1 2.5-2.5-1.1-2.5-2.5-2.5zm3.5 7v.8l-2.7 6.2h-1.7l-2.7-6.2v-.8h7.1m1-1h-9v2l3 7h3l3-7v-2zm8.5-5c.8 0 1.5.7 1.5 1.5s-.7 1.5-1.5 1.5-1.5-.7-1.5-1.5.7-1.5 1.5-1.5m0-1c-1.4 0-2.5 1.1-2.5 2.5s1.1 2.5 2.5 2.5 2.5-1.1 2.5-2.5-1.1-2.5-2.5-2.5zm.8 7l2.7 6.2v.8h-7v-.8l2.7-6.2h1.6m.7-1h-3l-3 7v2h9v-2l-3-7z" id="wc"/><path class="st0" d="M507.5 168c2.5 0 4.5.7 5.7 2.1 1.4 1.6 1.7 3.7 1.8 4.9h-15c.1-1.2.4-3.3 1.8-4.9 1.3-1.4 3.2-2.1 5.7-2.1m0-1c-9.3 0-8.5 9-8.5 9h16.9s1-9-8.4-9zm8.5 10h-17v1h17v-1zm-6-12h-5v1h5v-1zm-2 11h-1v1h1v-1zm0-10h-1v1h1v-1zm0-5h-1v2h1v-2zm3.6-.1l-1 1.7.8.5 1-1.7-.8-.5zm-8.5 0l-.7.7 1.5 1.5.7-.7-1.5-1.5z" id="ring"/></svg>