<svg xmlns="http://www.w3.org/2000/svg" xmlns:xlink="http://www.w3.org/1999/xlink" style="margin-top:0;" viewBox="0 0 47 43"> <!-- Generator: Sketch 39.1 (31720) - http://www.bohemiancoding.com/sketch --> <title>Slice 1</title> <desc>Created with Sketch.</desc> <defs> <linearGradient x1="49.8812352%" y1="-7.14603095e-11%" x2="49.8812352%" y2="100.000476%" id="linearGradient-started-1"> <stop stop-color="#56CAD8" offset="0%"/> <stop stop-color="#B1E8CD" offset="100%"/> </linearGradient> <linearGradient x1="49.899115%" y1="-0.299705015%" x2="49.899115%" y2="100.090265%" id="linearGradient-started-2"> <stop stop-color="#56CAD8" offset="0%"/> <stop stop-color="#B1E8CD" offset="100%"/> </linearGradient> </defs> <g id="Page-1" stroke="none" stroke-width="1" fill="none" fill-rule="evenodd"> <g id="install"> <path d="M38.9,22.7 L38.1,22.6 L37.9,24 C35.4,24.1 33,25.1 31.1,27.1 C28.5,29.7 27.6,33.3 28.2,36.6 L27.8,36.8 L28.1,37.5 L28.3,38.7 L28.1,40.8 L26.8,41.2 L25.4,39.6 L24.9,38.5 L24.7,37.8 L22.5,38.1 L22.6,38.9 L22.5,40 L21.7,42 L20.4,42 L19.6,40 L19.4,38.8 L19.5,38 L17.3,37.7 L17.1,38.4 L16.6,39.5 L15.2,41.1 L13.9,40.7 L13.7,38.6 L13.9,37.4 L14.2,36.7 L12.3,35.7 L11.9,36.4 L11,37.3 L9.2,38.4 L8.1,37.6 L8.6,35.5 L9.1,34.4 L9.6,33.8 L8.1,32.3 L7.5,32.8 L6.4,33.3 L4.3,33.8 L3.5,32.7 L4.7,31 L5.5,30.2 L6.2,29.8 L5.2,27.9 L4.5,28.2 L3.3,28.4 L1.2,28.2 L0.8,26.9 L2.4,25.5 L3.5,25 L4.2,24.8 L3.9,22.6 L3.1,22.7 L2,22.5 L0,21.7 L0,20.4 L2,19.6 L3.2,19.4 L4,19.5 L4.3,17.3 L3.6,17.1 L2.5,16.6 L0.9,15.2 L1.3,13.9 L3.4,13.7 L4.6,13.9 L5.3,14.2 L6.3,12.3 L5.6,11.9 L4.7,11 L3.6,9.2 L4.4,8.1 L6.5,8.6 L7.6,9.1 L8.2,9.6 L9.7,8.1 L9.1,7.5 L8.6,6.5 L8.1,4.4 L9.2,3.6 L11,4.7 L11.8,5.5 L12.2,6.2 L14.1,5.2 L13.8,4.5 L13.6,3.3 L13.8,1.2 L15.1,0.8 L16.5,2.4 L17,3.5 L17.2,4.2 L19.4,3.9 L19.3,3.1 L19.5,2 L20.3,0 L20.3,0 L21.6,0 L22.4,2 L22.6,3.2 L22.5,4 L24.7,4.3 L24.9,3.6 L25.4,2.5 L26.8,0.9 L28.1,1.3 L28.3,3.4 L28.1,4.6 L27.8,5.3 L29.7,6.3 L30.1,5.6 L31,4.7 L32.8,3.6 L33.9,4.4 L33.4,6.5 L32.9,7.6 L32.4,8.2 L33.9,9.7 L34.5,9.2 L35.6,8.7 L37.7,8.2 L38.5,9.3 L37.3,11 L36.5,11.8 L35.8,12.2 L36.8,14.1 L37.5,13.8 L38.7,13.6 L40.8,13.8 L41.2,15.1 L39.6,16.5 L38.5,17 L37.8,17.2 L38.1,19.4 L38.9,19.3 L40.1,19.5 L42.1,20.3 L42.1,21.6 L40.1,22.4 L38.9,22.7 L38.9,22.7 Z M21,13.9 C17.1,13.9 13.9,17.1 13.9,21 L13.9,21 C13.9,24.9 17.1,28.1 21,28.1 L21,28.1 C24.9,28.1 28.1,24.9 28.1,21 C28.1,17.1 24.9,13.9 21,13.9 L21,13.9 Z" id="Shape" fill="url(#linearGradient-started-1)"/> <path d="M44.5,40.5 C41.2,43.8 35.8,43.8 32.5,40.5 C29.2,37.2 29.2,31.8 32.5,28.5 C35.8,25.2 41.2,25.2 44.5,28.5 C47.8,31.8 47.8,37.2 44.5,40.5 L44.5,40.5 Z M41.4,36.6 L39.6,34.4 L39.2,30.2 C39.2,29.9 38.9,29.7 38.6,29.7 C38.3,29.7 38,29.9 38,30.2 L37.4,35 C37.4,35.3 37.5,35.5 37.8,35.7 C37.8,35.8 37.9,35.9 38,35.9 L40.6,37.6 C40.8,37.8 41.2,37.7 41.4,37.5 C41.5,37.2 41.6,36.8 41.4,36.6 L41.4,36.6 Z" id="Shape" fill="url(#linearGradient-started-2)"/> </g> </g> </svg>