<svg xmlns="http://www.w3.org/2000/svg" xmlns:xlink="http://www.w3.org/1999/xlink" id="Layer_1" x="0px" y="0px" viewBox="0 0 46 56" style="enable-background:new 0 0 46 56;" xml:space="preserve"> <style type="text/css"> .abtesting0{fill-rule:evenodd;clip-rule:evenodd;fill:url(#ABTESTING_1_);} .abtesting1{fill-rule:evenodd;clip-rule:evenodd;fill:#F0F4F7;} .abtesting2{fill-rule:evenodd;clip-rule:evenodd;fill:#FFFFFF;} .abtesting3{fill:#6B7C93;} </style> <linearGradient id="ABTESTING_1_" gradientUnits="userSpaceOnUse" x1="23" y1="43" x2="23" y2="7.0002"> <stop offset="0" style="stop-color:#EFADF7"/> <stop offset="1" style="stop-color:#8676FA"/> </linearGradient> <path class="abtesting0" d="M41.8,43H4.2C1.9,43,0,41.1,0,38.8V11.2C0,8.9,1.9,7,4.2,7h37.6c2.3,0,4.2,1.9,4.2,4.2v27.6 C46,41.1,44.1,43,41.8,43z M5.5,10C4.7,10,4,10.7,4,11.5C4,12.3,4.7,13,5.5,13S7,12.3,7,11.5C7,10.7,6.3,10,5.5,10z M10.5,10 C9.7,10,9,10.7,9,11.5c0,0.8,0.7,1.5,1.5,1.5c0.8,0,1.5-0.7,1.5-1.5C12,10.7,11.3,10,10.5,10z M15.5,10c-0.8,0-1.5,0.7-1.5,1.5 c0,0.8,0.7,1.5,1.5,1.5c0.8,0,1.5-0.7,1.5-1.5C17,10.7,16.3,10,15.5,10z M43,17c0-0.6-0.4-1-1-1H4c-0.6,0-1,0.4-1,1v22 c0,0.6,0.4,1,1,1h38c0.6,0,1-0.4,1-1V17z"/> <path class="abtesting1" d="M4,16h18c0.6,0,1,0.4,1,1v22c0,0.6-0.4,1-1,1H4c-0.6,0-1-0.4-1-1V17C3,16.4,3.4,16,4,16z"/> <g> <g> <path class="abtesting2" d="M23,3c1.1,0,2,0.9,2,2v40c0,1.1-0.9,2-2,2c-1.1,0-2-0.9-2-2V5C21,3.9,21.9,3,23,3z"/> </g> </g> <g> <path class="abtesting3" d="M8.3,31.7l3.4-7.4c0-0.1,0.1-0.1,0.2-0.1h0.1c0.1,0,0.2,0.1,0.2,0.1l3.4,7.4c0.1,0.1,0,0.3-0.2,0.3h-1.2 c-0.2,0-0.3-0.1-0.4-0.3l-0.4-0.9h-3l-0.4,0.9C10.1,31.9,9.9,32,9.7,32H8.5C8.3,32,8.2,31.9,8.3,31.7z M12.8,29.4L12,27.5h0 l-0.8,1.8H12.8z"/> </g> <g> <path class="abtesting3" d="M31.6,24.5c0-0.1,0.1-0.2,0.2-0.2h2.6c1.3,0,2.4,0.9,2.4,2c0,0.8-0.8,1.5-1.3,1.7c0.6,0.2,1.5,0.8,1.5,1.8 c0,1.2-1.1,2.1-2.4,2.1h-2.7c-0.1,0-0.2-0.1-0.2-0.2V24.5z M34.2,27.4c0.4,0,0.8-0.4,0.8-0.8s-0.4-0.7-0.8-0.7h-0.9v1.5H34.2z M34.3,30.4c0.4,0,0.8-0.4,0.8-0.8c0-0.4-0.5-0.8-0.9-0.8h-0.9v1.6H34.3z"/> </g> </svg>