<svg xmlns="http://www.w3.org/2000/svg" xmlns:xlink="http://www.w3.org/1999/xlink" id="Layer_1" x="0px" y="0px" viewBox="0 0 29 21" style="enable-background:new 0 0 29 21;" xml:space="preserve"> <style type="text/css"> .card0{fill-rule:evenodd;clip-rule:evenodd;fill:url(#CARD_1_);} .card1{fill-rule:evenodd;clip-rule:evenodd;fill:url(#CARD_2_);} .card2{fill-rule:evenodd;clip-rule:evenodd;fill:#FFFFFF;} </style> <linearGradient id="CARD_1_" gradientUnits="userSpaceOnUse" x1="10" y1="-3.146852e-10" x2="10" y2="15.0002"> <stop offset="0" style="stop-color:#56CAD8"/> <stop offset="1" style="stop-color:#B1E8CD"/> </linearGradient> <path class="card0" d="M10,4L10,4L0,4V3c0-1.7,1.3-3,3-3h14c1.7,0,3,1.3,3,3v1H10z M7,7v8H3c-1.7,0-3-1.3-3-3V7L7,7L7,7z"/> <linearGradient id="CARD_2_" gradientUnits="userSpaceOnUse" x1="19" y1="6.0001" x2="19" y2="21"> <stop offset="0" style="stop-color:#56CAD8"/> <stop offset="1" style="stop-color:#B1E8CD"/> </linearGradient> <path class="card1" d="M12,6h14c1.7,0,3,1.3,3,3v9c0,1.7-1.3,3-3,3H12c-1.7,0-3-1.3-3-3V9C9,7.3,10.3,6,12,6z"/> <path class="card2" d="M13,9h4c0.6,0,1,0.4,1,1v2c0,0.6-0.4,1-1,1h-4c-0.6,0-1-0.4-1-1v-2C12,9.4,12.4,9,13,9z"/> </svg>