<svg xmlns="http://www.w3.org/2000/svg" xmlns:xlink="http://www.w3.org/1999/xlink" id="Layer_1" x="0px" y="0px" viewBox="0 0 107 33" style="enable-background:new 0 0 107 33;" xml:space="preserve"> <style type="text/css"> .change0{fill-rule:evenodd;clip-rule:evenodd;fill:url(#CHANGE_1_);} .change1{fill-rule:evenodd;clip-rule:evenodd;fill:url(#CHANGE_2_);} .change2{fill-rule:evenodd;clip-rule:evenodd;fill:#C6D6E2;} </style> <linearGradient id="CHANGE_1_" gradientUnits="userSpaceOnUse" x1="14.5" y1="-5.611582e-10" x2="14.5" y2="32.9996"> <stop offset="0" style="stop-color:#56CAD8"/> <stop offset="1" style="stop-color:#B1E8CD"/> </linearGradient> <path class="change0" d="M27,33H2c-1.1,0-2-0.9-2-2V2c0-1.1,0.9-2,2-2h25c1.1,0,2,0.9,2,2v29C29,32.1,28.1,33,27,33z M6,27 c1.1,0,2-0.9,2-2c0-1.1-0.9-2-2-2s-2,0.9-2,2C4,26.1,4.9,27,6,27z M25,5c0-0.6-0.4-1-1-1H5C4.4,4,4,4.4,4,5v14c0,0.6,0.4,1,1,1h19 c0.6,0,1-0.4,1-1V5z M24,24H14c-0.6,0-1,0.4-1,1c0,0.6,0.4,1,1,1h10c0.6,0,1-0.4,1-1C25,24.4,24.6,24,24,24z"/> <linearGradient id="CHANGE_2_" gradientUnits="userSpaceOnUse" x1="97.5" y1="2.9998" x2="97.5" y2="29.9998"> <stop offset="0" style="stop-color:#56CAD8"/> <stop offset="1" style="stop-color:#B1E8CD"/> </linearGradient> <path class="change1" d="M104,30H91c-1.7,0-3-1.3-3-3V6c0-1.7,1.3-3,3-3h13c1.7,0,3,1.3,3,3v21C107,28.7,105.7,30,104,30z M98,29 c0.6,0,1-0.4,1-1c0-0.6-0.4-1-1-1s-1,0.4-1,1C97,28.6,97.4,29,98,29z M104,7c0-0.6-0.4-1-1-1H92c-0.6,0-1,0.4-1,1v18 c0,0.6,0.4,1,1,1h11c0.6,0,1-0.4,1-1V7z"/> <g> <path class="change2" d="M77.7,15.4l-2.8-2.8c-0.4-0.4-1-0.4-1.4,0c-0.4,0.4-0.4,1,0,1.4l2.1,2.1l-2.1,2.1c-0.4,0.4-0.4,1,0,1.4 c0.4,0.4,1,0.4,1.4,0l2.8-2.8c0.2-0.2,0.3-0.5,0.3-0.7C78,15.9,77.9,15.6,77.7,15.4z M43.7,12.6c-0.4-0.4-1-0.4-1.4,0l-2.8,2.8 c-0.2,0.2-0.3,0.5-0.3,0.7c0,0.3,0.1,0.5,0.3,0.7l2.8,2.8c0.4,0.4,1,0.4,1.4,0c0.4-0.4,0.4-1,0-1.4l-2.1-2.1l2.1-2.1 C44.1,13.6,44.1,13,43.7,12.6z M48.1,14.7c-0.8,0-1.5,0.7-1.5,1.5c0,0.8,0.7,1.5,1.5,1.5c0.8,0,1.5-0.7,1.5-1.5 C49.6,15.4,48.9,14.7,48.1,14.7z M55.1,14.7c-0.8,0-1.5,0.7-1.5,1.5c0,0.8,0.7,1.5,1.5,1.5c0.8,0,1.5-0.7,1.5-1.5 C56.6,15.4,55.9,14.7,55.1,14.7z M62.1,14.7c-0.8,0-1.5,0.7-1.5,1.5c0,0.8,0.7,1.5,1.5,1.5c0.8,0,1.5-0.7,1.5-1.5 C63.6,15.4,62.9,14.7,62.1,14.7z M69.1,14.7c-0.8,0-1.5,0.7-1.5,1.5c0,0.8,0.7,1.5,1.5,1.5c0.8,0,1.5-0.7,1.5-1.5 C70.6,15.4,69.9,14.7,69.1,14.7z"/> </g> </svg>