<svg xmlns="http://www.w3.org/2000/svg" xmlns:xlink="http://www.w3.org/1999/xlink" id="Layer_1" viewBox="0 0 37 37"> <defs> <clipPath id="clip-path" transform="translate(1 1)"> <path d="M29.2,5.8A16.48,16.48,0,1,1,5.9,29.1,16.48,16.48,0,1,1,29.2,5.8Z" style="fill:none"/> </clipPath> </defs> <title>red-clock</title> <g style="clip-path:url(#clip-path)"> <rect y="35" width="37" height="2" style="fill:#fdb1a3"/> </g> <g style="clip-path:url(#clip-path)"> <polygon points="0 35 37 35 37 35 0 35" style="fill:#fdb1a3"/> </g> <g style="clip-path:url(#clip-path)"> <rect y="34" width="37" height="1" style="fill:#fdb0a3"/> </g> <g style="clip-path:url(#clip-path)"> <polygon points="0 34 37 34 37 34 0 34" style="fill:#fcafa3"/> </g> <g style="clip-path:url(#clip-path)"> <polygon points="0 34 37 34 37 34 0 34" style="fill:#fcaea3"/> </g> <g style="clip-path:url(#clip-path)"> <rect y="33" width="37" height="1" style="fill:#fcada3"/> </g> <g style="clip-path:url(#clip-path)"> <polygon points="0 33 37 33 37 33 0 33" style="fill:#fbaca2"/> </g> <g style="clip-path:url(#clip-path)"> <rect y="32" width="37" height="1" style="fill:#fbaba2"/> </g> <g style="clip-path:url(#clip-path)"> <polygon points="0 32 37 32 37 32 0 32" style="fill:#fbaaa2"/> </g> <g style="clip-path:url(#clip-path)"> <polygon points="0 32 37 32 37 32 0 32" style="fill:#faa9a2"/> </g> <g style="clip-path:url(#clip-path)"> <rect y="31" width="37" height="1" style="fill:#faa8a2"/> </g> <g style="clip-path:url(#clip-path)"> <polygon points="0 31 37 31 37 31 0 31" style="fill:#f9a7a2"/> </g> <g style="clip-path:url(#clip-path)"> <polygon points="0 31 37 31 37 31 0 31" style="fill:#f9a6a2"/> </g> <g style="clip-path:url(#clip-path)"> <rect y="30" width="37" height="1" style="fill:#f9a5a2"/> </g> <g style="clip-path:url(#clip-path)"> <polygon points="0 30 37 30 37 30 0 30" style="fill:#f8a4a1"/> </g> <g style="clip-path:url(#clip-path)"> <polygon points="0 30 37 30 37 30 0 30" style="fill:#f8a3a1"/> </g> <g style="clip-path:url(#clip-path)"> <rect y="29" width="37" height="1" style="fill:#f8a2a1"/> </g> <g style="clip-path:url(#clip-path)"> <polygon points="0 29 37 29 37 29 0 29" style="fill:#f7a1a1"/> </g> <g style="clip-path:url(#clip-path)"> <rect y="28" width="37" height="1" style="fill:#f7a0a1"/> </g> <g style="clip-path:url(#clip-path)"> <polygon points="0 28 37 28 37 28 0 28" style="fill:#f79fa1"/> </g> <g style="clip-path:url(#clip-path)"> <polygon points="0 28 37 28 37 28 0 28" style="fill:#f69ea1"/> </g> <g style="clip-path:url(#clip-path)"> <rect y="27" width="37" height="1" style="fill:#f69da1"/> </g> <g style="clip-path:url(#clip-path)"> <polygon points="0 27 37 27 37 27 0 27" style="fill:#f69ca0"/> </g> <g style="clip-path:url(#clip-path)"> <polygon points="0 27 37 27 37 27 0 27" style="fill:#f59ba0"/> </g> <g style="clip-path:url(#clip-path)"> <rect y="26" width="37" height="1" style="fill:#f59aa0"/> </g> <g style="clip-path:url(#clip-path)"> <polygon points="0 26 37 26 37 26 0 26" style="fill:#f499a0"/> </g> <g style="clip-path:url(#clip-path)"> <polygon points="0 26 37 26 37 26 0 26" style="fill:#f498a0"/> </g> <g style="clip-path:url(#clip-path)"> <rect y="25" width="37" height="1" style="fill:#f497a0"/> </g> <g style="clip-path:url(#clip-path)"> <polygon points="0 25 37 25 37 25 0 25" style="fill:#f396a0"/> </g> <g style="clip-path:url(#clip-path)"> <rect y="24" width="37" height="1" style="fill:#f395a0"/> </g> <g style="clip-path:url(#clip-path)"> <polygon points="0 24 37 24 37 24 0 24" style="fill:#f3949f"/> </g> <g style="clip-path:url(#clip-path)"> <polygon points="0 24 37 24 37 24 0 24" style="fill:#f2939f"/> </g> <g style="clip-path:url(#clip-path)"> <rect y="23" width="37" height="1" style="fill:#f2929f"/> </g> <g style="clip-path:url(#clip-path)"> <polygon points="0 23 37 23 37 23 0 23" style="fill:#f2919f"/> </g> <g style="clip-path:url(#clip-path)"> <polygon points="0 23 37 23 37 23 0 23" style="fill:#f1909f"/> </g> <g style="clip-path:url(#clip-path)"> <rect y="22" width="37" height="1" style="fill:#f18f9f"/> </g> <g style="clip-path:url(#clip-path)"> <polygon points="0 22 37 22 37 22 0 22" style="fill:#f18e9f"/> </g> <g style="clip-path:url(#clip-path)"> <polygon points="0 22 37 22 37 22 0 22" style="fill:#f08d9f"/> </g> <g style="clip-path:url(#clip-path)"> <rect y="21" width="37" height="1" style="fill:#f08c9e"/> </g> <g style="clip-path:url(#clip-path)"> <polygon points="0 21 37 21 37 21 0 21" style="fill:#ef8b9e"/> </g> <g style="clip-path:url(#clip-path)"> <rect y="20" width="37" height="1" style="fill:#ef8a9e"/> </g> <g style="clip-path:url(#clip-path)"> <polygon points="0 20 37 20 37 20 0 20" style="fill:#ef899e"/> </g> <g style="clip-path:url(#clip-path)"> <polygon points="0 20 37 20 37 20 0 20" style="fill:#ee889e"/> </g> <g style="clip-path:url(#clip-path)"> <rect y="19" width="37" height="1" style="fill:#ee879e"/> </g> <g style="clip-path:url(#clip-path)"> <polygon points="0 19 37 19 37 19 0 19" style="fill:#ee869e"/> </g> <g style="clip-path:url(#clip-path)"> <polygon points="0 19 37 19 37 19 0 19" style="fill:#ed859e"/> </g> <g style="clip-path:url(#clip-path)"> <rect y="18" width="37" height="1" style="fill:#ed849e"/> </g> <g style="clip-path:url(#clip-path)"> <polygon points="0 18 37 18 37 18 0 18" style="fill:#ed829d"/> </g> <g style="clip-path:url(#clip-path)"> <polygon points="0 18 37 18 37 18 0 18" style="fill:#ec819d"/> </g> <g style="clip-path:url(#clip-path)"> <rect y="17" width="37" height="1" style="fill:#ec809d"/> </g> <g style="clip-path:url(#clip-path)"> <polygon points="0 17 37 17 37 17 0 17" style="fill:#ec7f9d"/> </g> <g style="clip-path:url(#clip-path)"> <rect y="16" width="37" height="1" style="fill:#eb7e9d"/> </g> <g style="clip-path:url(#clip-path)"> <polygon points="0 16 37 16 37 16 0 16" style="fill:#eb7d9d"/> </g> <g style="clip-path:url(#clip-path)"> <polygon points="0 16 37 16 37 16 0 16" style="fill:#eb7c9d"/> </g> <g style="clip-path:url(#clip-path)"> <rect y="15" width="37" height="1" style="fill:#ea7b9d"/> </g> <g style="clip-path:url(#clip-path)"> <polygon points="0 15 37 15 37 15 0 15" style="fill:#ea7a9c"/> </g> <g style="clip-path:url(#clip-path)"> <polygon points="0 15 37 15 37 15 0 15" style="fill:#e9799c"/> </g> <g style="clip-path:url(#clip-path)"> <rect y="14" width="37" height="1" style="fill:#e9789c"/> </g> <g style="clip-path:url(#clip-path)"> <polygon points="0 14 37 14 37 14 0 14" style="fill:#e9779c"/> </g> <g style="clip-path:url(#clip-path)"> <polygon points="0 14 37 14 37 14 0 14" style="fill:#e8769c"/> </g> <g style="clip-path:url(#clip-path)"> <rect y="13" width="37" height="1" style="fill:#e8759c"/> </g> <g style="clip-path:url(#clip-path)"> <polygon points="0 13 37 13 37 13 0 13" style="fill:#e8749c"/> </g> <g style="clip-path:url(#clip-path)"> <polygon points="0 13 37 13 37 13 0 13" style="fill:#e7739c"/> </g> <g style="clip-path:url(#clip-path)"> <rect y="12" width="37" height="1" style="fill:#e7729b"/> </g> <g style="clip-path:url(#clip-path)"> <polygon points="0 12 37 12 37 12 0 12" style="fill:#e7719b"/> </g> <g style="clip-path:url(#clip-path)"> <rect y="11" width="37" height="1" style="fill:#e6709b"/> </g> <g style="clip-path:url(#clip-path)"> <polygon points="0 11 37 11 37 11 0 11" style="fill:#e66f9b"/> </g> <g style="clip-path:url(#clip-path)"> <polygon points="0 11 37 11 37 11 0 11" style="fill:#e66e9b"/> </g> <g style="clip-path:url(#clip-path)"> <rect y="10" width="37" height="1" style="fill:#e56d9b"/> </g> <g style="clip-path:url(#clip-path)"> <polygon points="0 10 37 10 37 10 0 10" style="fill:#e56c9b"/> </g> <g style="clip-path:url(#clip-path)"> <polygon points="0 10 37 10 37 10 0 10" style="fill:#e46b9b"/> </g> <g style="clip-path:url(#clip-path)"> <rect y="9" width="37" height="1" style="fill:#e46a9a"/> </g> <g style="clip-path:url(#clip-path)"> <polygon points="0 9 37 9 37 9 0 9" style="fill:#e4699a"/> </g> <g style="clip-path:url(#clip-path)"> <polygon points="0 9 37 9 37 9 0 9" style="fill:#e3689a"/> </g> <g style="clip-path:url(#clip-path)"> <rect y="8" width="37" height="1" style="fill:#e3679a"/> </g> <g style="clip-path:url(#clip-path)"> <polygon points="0 8 37 8 37 8 0 8" style="fill:#e3669a"/> </g> <g style="clip-path:url(#clip-path)"> <rect y="7" width="37" height="1" style="fill:#e2659a"/> </g> <g style="clip-path:url(#clip-path)"> <polygon points="0 7 37 7 37 7 0 7" style="fill:#e2649a"/> </g> <g style="clip-path:url(#clip-path)"> <polygon points="0 7 37 7 37 7 0 7" style="fill:#e2639a"/> </g> <g style="clip-path:url(#clip-path)"> <rect y="6" width="37" height="1" style="fill:#e16299"/> </g> <g style="clip-path:url(#clip-path)"> <polygon points="0 6 37 6 37 6 0 6" style="fill:#e16199"/> </g> <g style="clip-path:url(#clip-path)"> <polygon points="0 6 37 6 37 6 0 6" style="fill:#e16099"/> </g> <g style="clip-path:url(#clip-path)"> <rect y="5" width="37" height="1" style="fill:#e05f99"/> </g> <g style="clip-path:url(#clip-path)"> <polygon points="0 5 37 5 37 5 0 5" style="fill:#e05e99"/> </g> <g style="clip-path:url(#clip-path)"> <polygon points="0 5 37 5 37 5 0 5" style="fill:#df5d99"/> </g> <g style="clip-path:url(#clip-path)"> <rect y="4" width="37" height="1" style="fill:#df5c99"/> </g> <g style="clip-path:url(#clip-path)"> <polygon points="0 4 37 4 37 4 0 4" style="fill:#df5b99"/> </g> <g style="clip-path:url(#clip-path)"> <rect y="3" width="37" height="1" style="fill:#de5a98"/> </g> <g style="clip-path:url(#clip-path)"> <polygon points="0 3 37 3 37 3 0 3" style="fill:#de5998"/> </g> <g style="clip-path:url(#clip-path)"> <polygon points="0 3 37 3 37 3 0 3" style="fill:#de5898"/> </g> <g style="clip-path:url(#clip-path)"> <rect y="2" width="37" height="1" style="fill:#dd5798"/> </g> <g style="clip-path:url(#clip-path)"> <polygon points="0 2 37 2 37 2 0 2" style="fill:#dd5698"/> </g> <g style="clip-path:url(#clip-path)"> <rect width="37" height="2" style="fill:#dd5698"/> </g> <path d="M22.9,22.5a1.26,1.26,0,0,1-1.5.3l-5.1-3.3c-.2-.1-.3-.3-.4-.4a1.71,1.71,0,0,1-.7-1.3l1-9.3c0-.5.6-.9,1.2-.9s1.2.4,1.2.9l.9,8.2L23,21A1.09,1.09,0,0,1,22.9,22.5Z" transform="translate(1 1)" style="fill:#fff"/> </svg>